League Gothic.ufo
<glyph name="quotedbl" format="1">
  <advance width="161"/>
  <unicode hex="0022"/>
  <outline>
    <contour>
      <point x="118" y="466" type="line"/>
      <point x="133" y="735" type="line"/>
      <point x="28" y="735" type="line"/>
      <point x="43" y="466" type="line"/>
    </contour>
  </outline>
</glyph>
<glyph name="dollar" format="1">
  <advance width="338"/>
  <unicode hex="0024"/>
  <outline>
    <contour>
      <point x="140" y="795" type="line"/>
      <point x="140" y="731" type="line"/>
      <point x="59" y="712"/>
      <point x="36" y="635"/>
      <point x="35" y="564" type="curve" smooth="yes"/>
      <point x="35" y="481"/>
      <point x="92" y="405"/>
      <point x="137" y="343" type="curve" smooth="yes"/>
      <point x="171" y="295"/>
      <point x="220" y="237"/>
      <point x="220" y="180" type="curve" smooth="yes"/>
      <point x="219" y="133"/>
      <point x="209" y="90"/>
      <point x="175" y="90" type="curve" smooth="yes"/>
      <point x="130" y="90"/>
      <point x="115" y="133"/>
      <point x="112" y="181" type="curve"/>
      <point x="18" y="175" type="line"/>
      <point x="22" y="93"/>
      <point x="53" y="18"/>
      <point x="140" y="3" type="curve"/>
      <point x="140" y="-105" type="line"/>
      <point x="200" y="-105" type="line"/>
      <point x="200" y="1" type="line"/>
      <point x="292" y="13"/>
      <point x="319" y="94"/>
      <point x="320" y="181" type="curve" smooth="yes"/>
      <point x="320" y="266"/>
      <point x="262" y="339"/>
      <point x="219" y="401" type="curve" smooth="yes"/>
      <point x="182" y="453"/>
      <point x="135" y="509"/>
      <point x="135" y="566" type="curve" smooth="yes"/>
      <point x="136" y="605"/>
      <point x="145" y="644"/>
      <point x="176" y="645" type="curve" smooth="yes"/>
      <point x="206" y="646"/>
      <point x="217" y="617"/>
      <point x="221" y="584" type="curve"/>
      <point x="315" y="596" type="line"/>
      <point x="306" y="664"/>
      <point x="279" y="725"/>
      <point x="200" y="734" type="curve"/>
      <point x="200" y="795" type="line"/>
    </contour>
  </outline>
</glyph>
<glyph name="percent" format="1">
  <advance width="489"/>
  <unicode hex="0025"/>
  <outline>
    <contour>
      <point x="144" y="0" type="line"/>
      <point x="411" y="735" type="line"/>
      <point x="347" y="735" type="line"/>
      <point x="77" y="0" type="line"/>
    </contour>
    <contour>
      <point x="122" y="445" type="line"/>
      <point x="122" y="445"/>
      <point x="123" y="418"/>
      <point x="105" y="418" type="curve" smooth="yes"/>
      <point x="85" y="418"/>
      <point x="87" y="445"/>
      <point x="87" y="445" type="curve"/>
      <point x="87" y="658" type="line"/>
      <point x="87" y="658"/>
      <point x="85" y="685"/>
      <point x="105" y="685" type="curve" smooth="yes"/>
      <point x="123" y="685"/>
      <point x="122" y="658"/>
      <point x="122" y="658" type="curve"/>
    </contour>
    <contour>
      <point x="403" y="77" type="line"/>
      <point x="403" y="77"/>
      <point x="404" y="49"/>
      <point x="386" y="49" type="curve" smooth="yes"/>
      <point x="366" y="49"/>
      <point x="368" y="77"/>
      <point x="368" y="77" type="curve"/>
      <point x="368" y="290" type="line"/>
      <point x="368" y="290"/>
      <point x="366" y="317"/>
      <point x="386" y="317" type="curve" smooth="yes"/>
      <point x="404" y="317"/>
      <point x="403" y="290"/>
      <point x="403" y="290" type="curve"/>
    </contour>
    <contour>
      <point x="182" y="658" type="line"/>
      <point x="182" y="658"/>
      <point x="182" y="743"/>
      <point x="105" y="743" type="curve" smooth="yes"/>
      <point x="26" y="743"/>
      <point x="27" y="658"/>
      <point x="27" y="658" type="curve"/>
      <point x="27" y="445" type="line"/>
      <point x="27" y="445"/>
      <point x="26" y="359"/>
      <point x="105" y="359" type="curve" smooth="yes"/>
      <point x="182" y="359"/>
      <point x="182" y="445"/>
      <point x="182" y="445" type="curve"/>
    </contour>
    <contour>
      <point x="463" y="290" type="line"/>
      <point x="463" y="290"/>
      <point x="463" y="376"/>
      <point x="386" y="376" type="curve" smooth="yes"/>
      <point x="307" y="376"/>
      <point x="308" y="290"/>
      <point x="308" y="290" type="curve"/>
      <point x="308" y="77" type="line"/>
      <point x="308" y="77"/>
      <point x="307" y="-8"/>
      <point x="386" y="-8" type="curve" smooth="yes"/>
      <point x="463" y="-8"/>
      <point x="463" y="77"/>
      <point x="463" y="77" type="curve"/>
    </contour>
  </outline>
</glyph>
<glyph name="ampersand" format="1">
  <advance width="417"/>
  <unicode hex="0026"/>
  <outline>
    <contour>
      <point x="24" y="67"/>
      <point x="86" y="-8"/>
      <point x="172" y="-8" type="curve" smooth="yes"/>
      <point x="217" y="-8"/>
      <point x="259" y="19"/>
      <point x="295" y="60" type="curve"/>
      <point x="339" y="13"/>
      <point x="387" y="-8"/>
      <point x="397" y="-8" type="curve"/>
      <point x="397" y="107" type="line"/>
      <point x="391" y="109"/>
      <point x="373" y="120"/>
      <point x="352" y="144" type="curve"/>
      <point x="385" y="207"/>
      <point x="395" y="292"/>
      <point x="397" y="319" type="curve"/>
      <point x="311" y="335" type="line"/>
      <point x="309" y="318"/>
      <point x="301" y="269"/>
      <point x="288" y="232" type="curve"/>
      <point x="270" y="260"/>
      <point x="248" y="298"/>
      <point x="216" y="371" type="curve"/>
      <point x="273" y="447"/>
      <point x="316" y="519"/>
      <point x="316" y="583" type="curve"/>
      <point x="316" y="583"/>
      <point x="323" y="743"/>
      <point x="187" y="743" type="curve" smooth="yes"/>
      <point x="51" y="743"/>
      <point x="55" y="583"/>
      <point x="55" y="583" type="curve"/>
      <point x="55" y="506"/>
      <point x="73" y="439"/>
      <point x="107" y="367" type="curve"/>
      <point x="66" y="305"/>
      <point x="24" y="237"/>
      <point x="24" y="154" type="curve" smooth="yes"/>
    </contour>
    <contour>
      <point x="220" y="104"/>
      <point x="203" y="86"/>
      <point x="177" y="86" type="curve" smooth="yes"/>
      <point x="149" y="86"/>
      <point x="129" y="117"/>
      <point x="128" y="159" type="curve" smooth="yes"/>
      <point x="127" y="230"/>
      <point x="153" y="272"/>
      <point x="153" y="272" type="curve"/>
      <point x="184" y="215"/>
      <point x="211" y="170"/>
      <point x="238" y="128" type="curve"/>
    </contour>
    <contour>
      <point x="225" y="548"/>
      <point x="200" y="500"/>
      <point x="176" y="463" type="curve"/>
      <point x="158" y="507"/>
      <point x="149" y="542"/>
      <point x="149" y="583" type="curve"/>
      <point x="149" y="583"/>
      <point x="145" y="657"/>
      <point x="187" y="657" type="curve" smooth="yes"/>
      <point x="229" y="657"/>
      <point x="225" y="586"/>
      <point x="225" y="586" type="curve"/>
    </contour>
  </outline>
</glyph>
<glyph name="quotesingle" format="1">
  <advance width="151"/>
  <unicode hex="0027"/>
  <outline>
    <contour>
      <point x="127" y="735" type="line"/>
      <point x="22" y="735" type="line"/>
      <point x="22" y="624" type="line"/>
      <point x="57" y="624" type="line"/>
      <point x="22" y="494" type="line"/>
      <point x="72" y="494" type="line"/>
      <point x="127" y="624" type="line"/>
    </contour>
  </outline>
</glyph>
<glyph name="parenleft" format="1">
  <advance width="274"/>
  <unicode hex="0028"/>
  <outline>
    <contour>
      <point x="175" y="776" type="line"/>
      <point x="175" y="776"/>
      <point x="32" y="565"/>
      <point x="32" y="315" type="curve" smooth="yes"/>
      <point x="32" y="65"/>
      <point x="175" y="-145"/>
      <point x="175" y="-145" type="curve"/>
      <point x="254" y="-104" type="line"/>
      <point x="254" y="-104"/>
      <point x="128" y="67"/>
      <point x="128" y="315" type="curve" smooth="yes"/>
      <point x="128" y="563"/>
      <point x="254" y="735"/>
      <point x="254" y="735" type="curve"/>
    </contour>
  </outline>
</glyph>
<glyph name="parenright" format="1">
  <advance width="274"/>
  <unicode hex="0029"/>
  <outline>
    <contour>
      <point x="20" y="735" type="line"/>
      <point x="20" y="735"/>
      <point x="146" y="563"/>
      <point x="146" y="315" type="curve" smooth="yes"/>
      <point x="146" y="67"/>
      <point x="20" y="-104"/>
      <point x="20" y="-104" type="curve"/>
      <point x="99" y="-145" type="line"/>
      <point x="99" y="-145"/>
      <point x="242" y="65"/>
      <point x="242" y="315" type="curve" smooth="yes"/>
      <point x="242" y="565"/>
      <point x="99" y="776"/>
      <point x="99" y="776" type="curve"/>
    </contour>
  </outline>
</glyph>
<glyph name="one" format="1">
  <advance width="232"/>
  <unicode hex="0031"/>
  <outline>
    <contour>
      <point x="84" y="576" type="line"/>
      <point x="84" y="0" type="line"/>
      <point x="192" y="0" type="line"/>
      <point x="192" y="735" type="line"/>
      <point x="127" y="735" type="line" smooth="yes"/>
      <point x="127" y="735"/>
      <point x="102" y="663"/>
      <point x="12" y="645" type="curve"/>
      <point x="12" y="576" type="line"/>
    </contour>
  </outline>
</glyph>
<glyph name="two" format="1">
  <advance width="357"/>
  <unicode hex="0032"/>
  <outline>
    <contour>
      <point x="138" y="502" type="line"/>
      <point x="138" y="553" type="line" smooth="yes"/>
      <point x="138" y="600"/>
      <point x="144" y="643"/>
      <point x="174" y="643" type="curve" smooth="yes"/>
      <point x="206" y="643"/>
      <point x="210" y="593"/>
      <point x="210" y="553" type="curve" smooth="yes"/>
      <point x="205" y="373"/>
      <point x="27" y="107"/>
      <point x="27" y="107" type="curve"/>
      <point x="27" y="0" type="line"/>
      <point x="320" y="0" type="line"/>
      <point x="320" y="107" type="line"/>
      <point x="149" y="107" type="line"/>
      <point x="204" y="201"/>
      <point x="318" y="410"/>
      <point x="318" y="560" type="curve" smooth="yes"/>
      <point x="318" y="661"/>
      <point x="284" y="743"/>
      <point x="174" y="743" type="curve" smooth="yes"/>
      <point x="56" y="743"/>
      <point x="30" y="652"/>
      <point x="30" y="553" type="curve" smooth="yes"/>
      <point x="30" y="502" type="line"/>
    </contour>
  </outline>
</glyph>
<glyph name="three" format="1">
  <advance width="335"/>
  <unicode hex="0033"/>
  <outline>
    <contour>
      <point x="121" y="332" type="line"/>
      <point x="215" y="327"/>
      <point x="203" y="273"/>
      <point x="203" y="180" type="curve" smooth="yes"/>
      <point x="203" y="138"/>
      <point x="203" y="87"/>
      <point x="169" y="87" type="curve" smooth="yes"/>
      <point x="142" y="87"/>
      <point x="133" y="113"/>
      <point x="132" y="212" type="curve"/>
      <point x="26" y="212" type="line"/>
      <point x="26" y="129"/>
      <point x="34" y="-8"/>
      <point x="169" y="-8" type="curve" smooth="yes"/>
      <point x="304" y="-8"/>
      <point x="309" y="169"/>
      <point x="309" y="188" type="curve" smooth="yes"/>
      <point x="309" y="273"/>
      <point x="299" y="349"/>
      <point x="247" y="390" type="curve"/>
      <point x="248" y="391" type="line" smooth="yes"/>
      <point x="281" y="424"/>
      <point x="300" y="476"/>
      <point x="300" y="585" type="curve" smooth="yes"/>
      <point x="300" y="604"/>
      <point x="295" y="743"/>
      <point x="160" y="743" type="curve" smooth="yes"/>
      <point x="25" y="743"/>
      <point x="22" y="606"/>
      <point x="22" y="523" type="curve"/>
      <point x="128" y="523" type="line"/>
      <point x="129" y="622"/>
      <point x="133" y="648"/>
      <point x="160" y="648" type="curve" smooth="yes"/>
      <point x="194" y="648"/>
      <point x="194" y="595"/>
      <point x="194" y="553" type="curve" smooth="yes"/>
      <point x="194" y="460"/>
      <point x="202" y="427"/>
      <point x="112" y="422" type="curve"/>
      <point x="112" y="332" type="line"/>
    </contour>
  </outline>
</glyph>
<glyph name="four" format="1">
  <advance width="334"/>
  <unicode hex="0034"/>
  <outline>
    <contour>
      <point x="179" y="0" type="line"/>
      <point x="278" y="0" type="line"/>
      <point x="278" y="160" type="line"/>
      <point x="328" y="160" type="line"/>
      <point x="328" y="255" type="line"/>
      <point x="278" y="255" type="line"/>
      <point x="278" y="735" type="line"/>
      <point x="170" y="735" type="line"/>
      <point x="12" y="255" type="line"/>
      <point x="12" y="160" type="line"/>
      <point x="179" y="160" type="line"/>
    </contour>
    <contour>
      <point x="167" y="485" type="line"/>
      <point x="173" y="507" type="line"/>
      <point x="179" y="507" type="line"/>
      <point x="179" y="485" type="line"/>
      <point x="179" y="255" type="line"/>
      <point x="104" y="255" type="line"/>
    </contour>
  </outline>
</glyph>
<glyph name="five" format="1">
  <advance width="344"/>
  <unicode hex="0035"/>
  <outline>
    <contour>
      <point x="144" y="214" type="line"/>
      <point x="36" y="214" type="line"/>
      <point x="36" y="116"/>
      <point x="45" y="-8"/>
      <point x="177" y="-8" type="curve" smooth="yes"/>
      <point x="309" y="-8"/>
      <point x="318" y="116"/>
      <point x="318" y="184" type="curve" smooth="yes"/>
      <point x="318" y="348" type="line" smooth="yes"/>
      <point x="318" y="372"/>
      <point x="309" y="500"/>
      <point x="198" y="500" type="curve"/>
      <point x="170" y="502"/>
      <point x="136" y="475"/>
      <point x="136" y="475" type="curve"/>
      <point x="136" y="628" type="line"/>
      <point x="304" y="628" type="line"/>
      <point x="304" y="735" type="line"/>
      <point x="43" y="735" type="line"/>
      <point x="43" y="348" type="line"/>
      <point x="134" y="348" type="line"/>
      <point x="134" y="365"/>
      <point x="152" y="402"/>
      <point x="176" y="402" type="curve" smooth="yes"/>
      <point x="199" y="402"/>
      <point x="210" y="378"/>
      <point x="210" y="348" type="curve" smooth="yes"/>
      <point x="210" y="184" type="line" smooth="yes"/>
      <point x="210" y="110"/>
      <point x="200" y="86"/>
      <point x="177" y="86" type="curve" smooth="yes"/>
      <point x="152" y="86"/>
      <point x="144" y="110"/>
      <point x="144" y="185" type="curve" smooth="yes"/>
    </contour>
  </outline>
</glyph>
<glyph name="six" format="1">
  <advance width="342"/>
  <unicode hex="0036"/>
  <outline>
    <contour>
      <point x="314" y="301" type="line" smooth="yes"/>
      <point x="314" y="342"/>
      <point x="305" y="456"/>
      <point x="194" y="456" type="curve" smooth="yes"/>
      <point x="175" y="456"/>
      <point x="158" y="449"/>
      <point x="140" y="438" type="curve"/>
      <point x="140" y="569" type="line" smooth="yes"/>
      <point x="140" y="625"/>
      <point x="146" y="649"/>
      <point x="173" y="649" type="curve" smooth="yes"/>
      <point x="204" y="649"/>
      <point x="206" y="622"/>
      <point x="206" y="523" type="curve"/>
      <point x="314" y="523" type="line"/>
      <point x="314" y="569" type="line" smooth="yes"/>
      <point x="314" y="621"/>
      <point x="308" y="743"/>
      <point x="173" y="743" type="curve" smooth="yes"/>
      <point x="38" y="743"/>
      <point x="32" y="621"/>
      <point x="32" y="569" type="curve" smooth="yes"/>
      <point x="32" y="151" type="line" smooth="yes"/>
      <point x="32" y="116"/>
      <point x="41" y="-8"/>
      <point x="173" y="-8" type="curve" smooth="yes"/>
      <point x="305" y="-8"/>
      <point x="314" y="116"/>
      <point x="314" y="151" type="curve" smooth="yes"/>
    </contour>
    <contour>
      <point x="140" y="342" type="line"/>
      <point x="141" y="352"/>
      <point x="150" y="372"/>
      <point x="173" y="372" type="curve" smooth="yes"/>
      <point x="196" y="372"/>
      <point x="206" y="348"/>
      <point x="206" y="339" type="curve" smooth="yes"/>
      <point x="206" y="119" type="line" smooth="yes"/>
      <point x="206" y="110"/>
      <point x="196" y="86"/>
      <point x="173" y="86" type="curve" smooth="yes"/>
      <point x="148" y="86"/>
      <point x="140" y="110"/>
      <point x="140" y="119" type="curve" smooth="yes"/>
    </contour>
  </outline>
</glyph>
<glyph name="seven" format="1">
  <advance width="288"/>
  <unicode hex="0037"/>
  <outline>
    <contour>
      <point x="56" y="0" type="line"/>
      <point x="168" y="0" type="line"/>
      <point x="276" y="627" type="line"/>
      <point x="276" y="735" type="line"/>
      <point x="4" y="735" type="line"/>
      <point x="4" y="628" type="line"/>
      <point x="166" y="628" type="line"/>
    </contour>
  </outline>
</glyph>
<glyph name="eight" format="1">
  <advance width="340"/>
  <unicode hex="0038"/>
  <outline>
    <contour>
      <point x="314" y="243" type="line" smooth="yes"/>
      <point x="314" y="297"/>
      <point x="295" y="353"/>
      <point x="258" y="388" type="curve"/>
      <point x="291" y="421"/>
      <point x="308" y="473"/>
      <point x="308" y="523" type="curve" smooth="yes"/>
      <point x="308" y="585" type="line" smooth="yes"/>
      <point x="308" y="604"/>
      <point x="305" y="743"/>
      <point x="170" y="743" type="curve" smooth="yes"/>
      <point x="35" y="743"/>
      <point x="32" y="604"/>
      <point x="32" y="585" type="curve" smooth="yes"/>
      <point x="32" y="523" type="line" smooth="yes"/>
      <point x="32" y="473"/>
      <point x="49" y="421"/>
      <point x="82" y="388" type="curve"/>
      <point x="45" y="353"/>
      <point x="26" y="297"/>
      <point x="26" y="243" type="curve" smooth="yes"/>
      <point x="26" y="157" type="line" smooth="yes"/>
      <point x="26" y="137"/>
      <point x="29" y="-8"/>
      <point x="170" y="-8" type="curve" smooth="yes"/>
      <point x="311" y="-8"/>
      <point x="314" y="137"/>
      <point x="314" y="157" type="curve" smooth="yes"/>
    </contour>
    <contour>
      <point x="209" y="132"/>
      <point x="207" y="91"/>
      <point x="170" y="91" type="curve" smooth="yes"/>
      <point x="139" y="91"/>
      <point x="132" y="121"/>
      <point x="131" y="200" type="curve"/>
      <point x="131" y="288"/>
      <point x="133" y="330"/>
      <point x="170" y="330" type="curve" smooth="yes"/>
      <point x="207" y="330"/>
      <point x="209" y="288"/>
      <point x="209" y="200" type="curve" smooth="yes"/>
    </contour>
    <contour>
      <point x="202" y="470"/>
      <point x="198" y="436"/>
      <point x="170" y="436" type="curve" smooth="yes"/>
      <point x="142" y="436"/>
      <point x="138" y="470"/>
      <point x="138" y="547" type="curve" smooth="yes"/>
      <point x="139" y="623"/>
      <point x="146" y="648"/>
      <point x="170" y="648" type="curve" smooth="yes"/>
      <point x="198" y="648"/>
      <point x="202" y="614"/>
      <point x="202" y="547" type="curve" smooth="yes"/>
    </contour>
  </outline>
</glyph>
<glyph name="nine" format="1">
  <advance width="342"/>
  <unicode hex="0039"/>
  <outline>
    <contour>
      <point x="28" y="441" type="line" smooth="yes"/>
      <point x="28" y="400"/>
      <point x="37" y="286"/>
      <point x="148" y="286" type="curve" smooth="yes"/>
      <point x="167" y="286"/>
      <point x="184" y="293"/>
      <point x="202" y="304" type="curve"/>
      <point x="202" y="166" type="line" smooth="yes"/>
      <point x="202" y="110"/>
      <point x="196" y="86"/>
      <point x="169" y="86" type="curve" smooth="yes"/>
      <point x="138" y="86"/>
      <point x="136" y="113"/>
      <point x="136" y="212" type="curve"/>
      <point x="28" y="212" type="line"/>
      <point x="28" y="166" type="line" smooth="yes"/>
      <point x="28" y="114"/>
      <point x="34" y="-8"/>
      <point x="169" y="-8" type="curve" smooth="yes"/>
      <point x="304" y="-8"/>
      <point x="310" y="114"/>
      <point x="310" y="166" type="curve" smooth="yes"/>
      <point x="310" y="584" type="line" smooth="yes"/>
      <point x="310" y="619"/>
      <point x="301" y="743"/>
      <point x="169" y="743" type="curve" smooth="yes"/>
      <point x="37" y="743"/>
      <point x="28" y="619"/>
      <point x="28" y="584" type="curve" smooth="yes"/>
    </contour>
    <contour>
      <point x="202" y="400" type="line"/>
      <point x="201" y="390"/>
      <point x="192" y="370"/>
      <point x="169" y="370" type="curve" smooth="yes"/>
      <point x="146" y="370"/>
      <point x="136" y="394"/>
      <point x="136" y="403" type="curve" smooth="yes"/>
      <point x="136" y="616" type="line" smooth="yes"/>
      <point x="136" y="625"/>
      <point x="146" y="649"/>
      <point x="169" y="649" type="curve" smooth="yes"/>
      <point x="194" y="649"/>
      <point x="202" y="625"/>
      <point x="202" y="616" type="curve" smooth="yes"/>
    </contour>
  </outline>
</glyph>
<glyph name="colon" format="1">
  <advance width="177"/>
  <unicode hex="003A"/>
  <outline>
    <contour>
      <point x="36" y="0" type="line"/>
      <point x="141" y="0" type="line"/>
      <point x="141" y="111" type="line"/>
      <point x="36" y="111" type="line"/>
    </contour>
    <contour>
      <point x="36" y="436" type="line"/>
      <point x="141" y="436" type="line"/>
      <point x="141" y="547" type="line"/>
      <point x="36" y="547" type="line"/>
    </contour>
  </outline>
</glyph>
<glyph name="question" format="1">
  <advance width="315"/>
  <unicode hex="003F"/>
  <outline>
    <contour>
      <point x="97" y="111" type="line"/>
      <point x="202" y="111" type="line"/>
      <point x="202" y="0" type="line"/>
      <point x="97" y="0" type="line"/>
    </contour>
    <contour>
      <point x="196" y="198" type="line"/>
      <point x="196" y="323" type="line" smooth="yes"/>
      <point x="196" y="398"/>
      <point x="232" y="453"/>
      <point x="256" y="492" type="curve" smooth="yes"/>
      <point x="277" y="528"/>
      <point x="295" y="558"/>
      <point x="295" y="599" type="curve" smooth="yes"/>
      <point x="295" y="638"/>
      <point x="278" y="737"/>
      <point x="165" y="739" type="curve" smooth="yes"/>
      <point x="73" y="741"/>
      <point x="24" y="646"/>
      <point x="12" y="615" type="curve"/>
      <point x="99" y="574" type="line"/>
      <point x="105" y="594"/>
      <point x="127" y="646"/>
      <point x="163" y="645" type="curve" smooth="yes"/>
      <point x="192" y="645"/>
      <point x="199" y="612"/>
      <point x="196" y="599" type="curve" smooth="yes"/>
      <point x="193" y="586"/>
      <point x="184" y="567"/>
      <point x="170" y="544" type="curve" smooth="yes"/>
      <point x="140" y="494"/>
      <point x="103" y="430"/>
      <point x="103" y="323" type="curve" smooth="yes"/>
      <point x="103" y="198" type="line"/>
    </contour>
  </outline>
</glyph>
<glyph name="at" format="1">
  <advance width="426"/>
  <unicode hex="0040"/>
  <outline>
    <contour>
      <point x="398" y="582" type="line" smooth="yes"/>
      <point x="398" y="630"/>
      <point x="362" y="743"/>
      <point x="215" y="743" type="curve" smooth="yes"/>
      <point x="68" y="743"/>
      <point x="32" y="630"/>
      <point x="32" y="582" type="curve" smooth="yes"/>
      <point x="32" y="148" type="line" smooth="yes"/>
      <point x="32" y="102"/>
      <point x="68" y="-8"/>
      <point x="215" y="-8" type="curve" smooth="yes"/>
      <point x="299" y="-8"/>
      <point x="344" y="26"/>
      <point x="371" y="62" type="curve"/>
      <point x="297" y="104" type="line"/>
      <point x="281" y="84"/>
      <point x="258" y="73"/>
      <point x="215" y="73" type="curve" smooth="yes"/>
      <point x="140" y="73"/>
      <point x="122" y="124"/>
      <point x="122" y="148" type="curve" smooth="yes"/>
      <point x="122" y="582" type="line" smooth="yes"/>
      <point x="122" y="604"/>
      <point x="140" y="659"/>
      <point x="215" y="659" type="curve" smooth="yes"/>
      <point x="290" y="659"/>
      <point x="308" y="604"/>
      <point x="308" y="582" type="curve" smooth="yes"/>
      <point x="308" y="560" type="line"/>
      <point x="308" y="560"/>
      <point x="292" y="593"/>
      <point x="253" y="593" type="curve" smooth="yes"/>
      <point x="200" y="593"/>
      <point x="182" y="555"/>
      <point x="182" y="510" type="curve" smooth="yes"/>
      <point x="182" y="273" type="line" smooth="yes"/>
      <point x="182" y="227"/>
      <point x="200" y="189"/>
      <point x="253" y="189" type="curve" smooth="yes"/>
      <point x="292" y="189"/>
      <point x="308" y="222"/>
      <point x="308" y="222" type="curve"/>
      <point x="318" y="195" type="line"/>
      <point x="398" y="195" type="line"/>
    </contour>
    <contour>
      <point x="308" y="280" type="line" smooth="yes"/>
      <point x="308" y="262"/>
      <point x="298" y="254"/>
      <point x="284" y="254" type="curve" smooth="yes"/>
      <point x="269" y="254"/>
      <point x="261" y="262"/>
      <point x="261" y="280" type="curve" smooth="yes"/>
      <point x="261" y="502" type="line" smooth="yes"/>
      <point x="261" y="520"/>
      <point x="269" y="528"/>
      <point x="284" y="528" type="curve" smooth="yes"/>
      <point x="298" y="528"/>
      <point x="308" y="518"/>
      <point x="308" y="502" type="curve" smooth="yes"/>
    </contour>
  </outline>
</glyph>
<glyph name="A" format="1">
  <advance width="374"/>
  <unicode hex="0041"/>
  <outline>
    <contour>
      <point x="115.0" y="0.0" type="line"/>
      <point x="135.0" y="150.0" type="line"/>
      <point x="239.0" y="150.0" type="line"/>
      <point x="259" y="0" type="line"/>
      <point x="364.0" y="0.0" type="line"/>
      <point x="253.0" y="735.0" type="line"/>
      <point x="121.0" y="735.0" type="line"/>
      <point x="10.0" y="0.0" type="line"/>
    </contour>
    <contour>
      <point x="224.0" y="264.0" type="line"/>
      <point x="150.0" y="264.0" type="line"/>
      <point x="181.0" y="496.0" type="line"/>
      <point x="184.0" y="515.0" type="line"/>
      <point x="190.0" y="515.0" type="line"/>
      <point x="193.0" y="496.0" type="line"/>
    </contour>
  </outline>
</glyph>
<glyph name="B" format="1">
  <advance width="364"/>
  <unicode hex="0042"/>
  <outline>
    <contour>
      <point x="173" y="0" type="line"/>
      <point x="302" y="5"/>
      <point x="340" y="100"/>
      <point x="340" y="208" type="curve" smooth="yes"/>
      <point x="340" y="354"/>
      <point x="265" y="388"/>
      <point x="265" y="388" type="curve"/>
      <point x="317" y="433"/>
      <point x="332" y="472"/>
      <point x="332" y="540" type="curve" smooth="yes"/>
      <point x="332" y="686"/>
      <point x="264" y="735"/>
      <point x="135" y="735" type="curve" smooth="yes"/>
      <point x="94" y="735"/>
      <point x="40" y="735"/>
      <point x="40" y="735" type="curve"/>
      <point x="40" y="0" type="line"/>
    </contour>
    <contour>
      <point x="228" y="99"/>
      <point x="168" y="107"/>
      <point x="148" y="107" type="curve"/>
      <point x="148" y="333" type="line"/>
      <point x="168" y="333"/>
      <point x="228" y="341"/>
      <point x="228" y="220" type="curve" smooth="yes"/>
    </contour>
    <contour>
      <point x="228" y="429"/>
      <point x="168" y="432"/>
      <point x="148" y="432" type="curve"/>
      <point x="148" y="628" type="line"/>
      <point x="168" y="628"/>
      <point x="228" y="631"/>
      <point x="228" y="530" type="curve" smooth="yes"/>
    </contour>
  </outline>
</glyph>
<glyph name="D" format="1">
  <advance width="372"/>
  <unicode hex="0044"/>
  <outline>
    <contour>
      <point x="125" y="735" type="curve" smooth="yes"/>
      <point x="40" y="735" type="line"/>
      <point x="40" y="0" type="line"/>
      <point x="125" y="0" type="line" smooth="yes"/>
      <point x="325" y="1"/>
      <point x="340" y="80"/>
      <point x="340" y="367" type="curve" smooth="yes"/>
      <point x="340" y="655"/>
      <point x="325" y="734"/>
    </contour>
    <contour>
      <point x="148" y="627" type="line"/>
      <point x="224" y="627"/>
      <point x="229" y="608"/>
      <point x="228" y="368" type="curve" smooth="yes"/>
      <point x="229" y="127"/>
      <point x="224" y="108"/>
      <point x="148" y="108" type="curve"/>
    </contour>
  </outline>
</glyph>
<glyph name="F" format="1">
  <advance width="301"/>
  <unicode hex="0046"/>
  <outline>
    <contour>
      <point x="297" y="735" type="line"/>
      <point x="51" y="735"/>
      <point x="40" y="735"/>
      <point x="40" y="735" type="curve"/>
      <point x="40" y="0" type="line"/>
      <point x="148" y="0" type="line"/>
      <point x="148" y="320" type="line"/>
      <point x="248" y="320" type="line"/>
      <point x="248" y="431" type="line"/>
      <point x="148" y="431" type="line"/>
      <point x="148" y="624" type="line"/>
      <point x="297" y="624" type="line"/>
    </contour>
  </outline>
</glyph>
<glyph name="H" format="1">
  <advance width="380"/>
  <unicode hex="0048"/>
  <outline>
    <contour>
      <point x="232.0" y="0.0" type="line"/>
      <point x="340.0" y="0.0" type="line"/>
      <point x="340.0" y="735.0" type="line"/>
      <point x="232.0" y="735.0" type="line"/>
      <point x="232.0" y="431.0" type="line"/>
      <point x="148.0" y="431.0" type="line"/>
      <point x="148.0" y="735.0" type="line"/>
      <point x="40.0" y="735.0" type="line"/>
      <point x="40.0" y="0.0" type="line"/>
      <point x="148.0" y="0.0" type="line"/>
      <point x="148.0" y="320.0" type="line"/>
      <point x="232.0" y="320.0" type="line"/>
    </contour>
  </outline>
</glyph>
<glyph name="I" format="1">
  <advance width="188"/>
  <unicode hex="0049"/>
  <outline>
    <contour>
      <point x="40" y="0" type="line"/>
      <point x="148" y="0" type="line"/>
      <point x="148" y="735" type="line"/>
      <point x="40" y="735" type="line"/>
    </contour>
  </outline>
</glyph>
<glyph name="J" format="1">
  <advance width="207"/>
  <unicode hex="004A"/>
  <outline>
    <contour>
      <point x="6" y="-7" type="line"/>
      <point x="134" y="-14"/>
      <point x="172" y="57"/>
      <point x="172" y="136" type="curve" smooth="yes"/>
      <point x="172" y="735" type="line"/>
      <point x="64" y="735" type="line"/>
      <point x="64" y="153" type="line" smooth="yes"/>
      <point x="64" y="87"/>
      <point x="6" y="99"/>
      <point x="6" y="99" type="curve"/>
    </contour>
  </outline>
</glyph>
<glyph name="K" format="1">
  <advance width="375"/>
  <unicode hex="004B"/>
  <outline>
    <contour>
      <point x="40" y="735" type="line" smooth="yes"/>
      <point x="40" y="735"/>
      <point x="40" y="230"/>
      <point x="40" y="0" type="curve"/>
      <point x="148" y="0" type="line"/>
      <point x="148" y="260" type="line"/>
      <point x="173" y="320" type="line"/>
      <point x="179" y="335" type="line"/>
      <point x="182" y="335" type="line"/>
      <point x="185" y="320" type="line"/>
      <point x="260" y="0" type="line"/>
      <point x="365" y="0" type="line"/>
      <point x="253" y="493" type="line"/>
      <point x="352" y="735" type="line"/>
      <point x="247" y="735" type="line"/>
      <point x="157" y="490" type="line"/>
      <point x="152" y="478" type="line"/>
      <point x="148" y="478" type="line"/>
      <point x="148" y="490" type="line"/>
      <point x="148" y="735" type="line"/>
    </contour>
  </outline>
</glyph>
<glyph name="L" format="1">
  <advance width="295"/>
  <unicode hex="004C"/>
  <outline>
    <contour>
      <point x="40" y="0" type="line"/>
      <point x="291" y="0" type="line"/>
      <point x="291" y="100" type="line"/>
      <point x="148" y="100" type="line"/>
      <point x="148" y="735" type="line"/>
      <point x="40" y="735" type="line"/>
    </contour>
  </outline>
</glyph>
<glyph name="N" format="1">
  <advance width="395"/>
  <unicode hex="004E"/>
  <outline>
    <contour>
      <point x="259" y="0" type="line"/>
      <point x="259" y="0"/>
      <point x="355" y="0"/>
      <point x="355" y="0" type="curve" smooth="yes"/>
      <point x="355" y="0"/>
      <point x="355" y="735"/>
      <point x="355" y="735" type="curve" smooth="yes"/>
      <point x="256" y="735" type="line"/>
      <point x="256" y="352" type="line"/>
      <point x="256" y="318" type="line"/>
      <point x="250" y="318" type="line"/>
      <point x="241" y="352" type="line"/>
      <point x="241" y="352"/>
      <point x="136" y="735"/>
      <point x="136" y="735" type="curve" smooth="yes"/>
      <point x="136" y="735"/>
      <point x="40" y="735"/>
      <point x="40" y="735" type="curve" smooth="yes"/>
      <point x="40" y="735"/>
      <point x="40" y="0"/>
      <point x="40" y="0" type="curve"/>
      <point x="139" y="0" type="line"/>
      <point x="139" y="383" type="line"/>
      <point x="139" y="417" type="line"/>
      <point x="145" y="417" type="line"/>
      <point x="154" y="383" type="line"/>
    </contour>
  </outline>
</glyph>
<glyph name="O" format="1">
  <advance width="354"/>
  <unicode hex="004F"/>
  <outline>
    <contour>
      <point x="321" y="584" type="line"/>
      <point x="321" y="584"/>
      <point x="322" y="743"/>
      <point x="177" y="743" type="curve" smooth="yes"/>
      <point x="32" y="743"/>
      <point x="33" y="584"/>
      <point x="33" y="584" type="curve"/>
      <point x="33" y="151" type="line"/>
      <point x="33" y="151"/>
      <point x="32" y="-8"/>
      <point x="177" y="-8" type="curve" smooth="yes"/>
      <point x="322" y="-8"/>
      <point x="321" y="151"/>
      <point x="321" y="151" type="curve"/>
    </contour>
    <contour>
      <point x="213" y="151" type="line"/>
      <point x="213" y="151"/>
      <point x="215" y="97"/>
      <point x="177" y="97" type="curve" smooth="yes"/>
      <point x="139" y="97"/>
      <point x="141" y="151"/>
      <point x="141" y="151" type="curve"/>
      <point x="141" y="584" type="line"/>
      <point x="141" y="584"/>
      <point x="139" y="638"/>
      <point x="177" y="638" type="curve" smooth="yes"/>
      <point x="215" y="638"/>
      <point x="213" y="584"/>
      <point x="213" y="584" type="curve"/>
    </contour>
  </outline>
</glyph>
<glyph name="P" format="1">
  <advance width="352"/>
  <unicode hex="0050"/>
  <outline>
    <contour>
      <point x="40" y="0" type="line"/>
      <point x="148" y="0" type="line"/>
      <point x="148" y="294" type="line"/>
      <point x="242" y="294"/>
      <point x="338" y="346"/>
      <point x="338" y="515" type="curve" smooth="yes"/>
      <point x="338" y="684"/>
      <point x="242" y="735"/>
      <point x="148" y="735" type="curve" smooth="yes"/>
      <point x="143" y="735"/>
      <point x="40" y="735"/>
      <point x="40" y="735" type="curve"/>
    </contour>
    <contour>
      <point x="148" y="625" type="line"/>
      <point x="216" y="625"/>
      <point x="229" y="593"/>
      <point x="229" y="511" type="curve" smooth="yes"/>
      <point x="229" y="429"/>
      <point x="216" y="404"/>
      <point x="148" y="404" type="curve"/>
    </contour>
  </outline>
</glyph>
<glyph name="Q" format="1">
  <advance width="356"/>
  <unicode hex="0051"/>
  <outline>
    <contour>
      <point x="321" y="584" type="line"/>
      <point x="321" y="584"/>
      <point x="322" y="743"/>
      <point x="177" y="743" type="curve" smooth="yes"/>
      <point x="32" y="743"/>
      <point x="33" y="584"/>
      <point x="33" y="584" type="curve"/>
      <point x="33" y="151" type="line"/>
      <point x="33" y="151"/>
      <point x="32" y="-8"/>
      <point x="177" y="-8" type="curve" smooth="yes"/>
      <point x="198" y="-8"/>
      <point x="216" y="-4"/>
      <point x="231" y="1" type="curve"/>
      <point x="249" y="-30"/>
      <point x="281" y="-56"/>
      <point x="342" y="-56" type="curve"/>
      <point x="342" y="36" type="line"/>
      <point x="321" y="40"/>
      <point x="308" y="50"/>
      <point x="299" y="62" type="curve"/>
      <point x="321" y="105"/>
      <point x="321" y="151"/>
      <point x="321" y="151" type="curve"/>
    </contour>
    <contour>
      <point x="213" y="151" type="line"/>
      <point x="213" y="151"/>
      <point x="215" y="97"/>
      <point x="177" y="97" type="curve" smooth="yes"/>
      <point x="139" y="97"/>
      <point x="141" y="151"/>
      <point x="141" y="151" type="curve"/>
      <point x="141" y="584" type="line"/>
      <point x="141" y="584"/>
      <point x="139" y="638"/>
      <point x="177" y="638" type="curve" smooth="yes"/>
      <point x="215" y="638"/>
      <point x="213" y="584"/>
      <point x="213" y="584" type="curve"/>
    </contour>
  </outline>
</glyph>
<glyph name="T" format="1">
  <advance width="316"/>
  <unicode hex="0054"/>
  <outline>
    <contour>
      <point x="104" y="624" type="line"/>
      <point x="104" y="0" type="line"/>
      <point x="212" y="0" type="line"/>
      <point x="212" y="624" type="line"/>
      <point x="314" y="624" type="line"/>
      <point x="314" y="735" type="line"/>
      <point x="2" y="735" type="line"/>
      <point x="2" y="624" type="line"/>
    </contour>
  </outline>
</glyph>
<glyph name="U" format="1">
  <advance width="366"/>
  <unicode hex="0055"/>
  <outline>
    <contour>
      <point x="219" y="735" type="line"/>
      <point x="219" y="151" type="line"/>
      <point x="219" y="151"/>
      <point x="221" y="97"/>
      <point x="183" y="97" type="curve" smooth="yes"/>
      <point x="145" y="97"/>
      <point x="147" y="151"/>
      <point x="147" y="151" type="curve"/>
      <point x="147" y="735" type="line"/>
      <point x="39" y="735" type="line"/>
      <point x="39" y="151" type="line"/>
      <point x="39" y="151"/>
      <point x="38" y="-8"/>
      <point x="183" y="-8" type="curve" smooth="yes"/>
      <point x="328" y="-8"/>
      <point x="327" y="151"/>
      <point x="327" y="151" type="curve"/>
      <point x="327" y="735" type="line"/>
    </contour>
  </outline>
</glyph>
<glyph name="bracketright" format="1">
  <advance width="263"/>
  <unicode hex="005D"/>
  <outline>
    <contour>
      <point x="28" y="639" type="line"/>
      <point x="127" y="639" type="line"/>
      <point x="127" y="-8" type="line"/>
      <point x="28" y="-8" type="line"/>
      <point x="28" y="-104" type="line"/>
      <point x="223" y="-104" type="line"/>
      <point x="223" y="-8" type="line"/>
      <point x="223" y="735" type="line"/>
      <point x="28" y="735" type="line"/>
    </contour>
  </outline>
</glyph>
<glyph name="asciicircum" format="1">
  <advance width="538"/>
  <unicode hex="005E"/>
  <outline>
    <contour>
      <point x="212" y="735" type="line"/>
      <point x="26" y="395" type="line"/>
      <point x="123" y="395" type="line"/>
      <point x="269" y="660" type="line"/>
      <point x="415" y="395" type="line"/>
      <point x="512" y="395" type="line"/>
      <point x="326" y="735" type="line"/>
    </contour>
  </outline>
</glyph>
<glyph name="a" format="1">
  <advance width="333"/>
  <unicode hex="0061"/>
  <outline>
    <contour>
      <point x="123" y="194"/>
      <point x="144" y="243"/>
      <point x="193" y="264" type="curve"/>
      <point x="193" y="124" type="line" smooth="yes"/>
      <point x="193" y="106"/>
      <point x="174" y="91"/>
      <point x="151" y="91" type="curve" smooth="yes"/>
      <point x="126" y="91"/>
      <point x="123" y="129"/>
      <point x="123" y="142" type="curve" smooth="yes"/>
    </contour>
    <contour>
      <point x="24" y="12"/>
      <point x="78" y="-8"/>
      <point x="105" y="-8" type="curve" smooth="yes"/>
      <point x="146" y="-8"/>
      <point x="176" y="25"/>
      <point x="186" y="44" type="curve"/>
      <point x="193" y="44" type="line"/>
      <point x="193" y="38"/>
      <point x="193" y="10"/>
      <point x="202" y="0" type="curve"/>
      <point x="202" y="0"/>
      <point x="205" y="0"/>
      <point x="301" y="0" type="curve"/>
      <point x="297" y="24"/>
      <point x="294" y="46"/>
      <point x="294" y="95" type="curve" smooth="yes"/>
      <point x="294" y="132"/>
      <point x="294" y="225"/>
      <point x="294" y="260" type="curve" smooth="yes"/>
      <point x="294" y="431" type="line" smooth="yes"/>
      <point x="294" y="502"/>
      <point x="237" y="555"/>
      <point x="171" y="555" type="curve" smooth="yes"/>
      <point x="94" y="555"/>
      <point x="35" y="489"/>
      <point x="35" y="409" type="curve" smooth="yes"/>
      <point x="35" y="405"/>
      <point x="35" y="386"/>
      <point x="35" y="386" type="curve"/>
      <point x="136" y="386" type="line"/>
      <point x="137" y="417"/>
      <point x="131" y="467"/>
      <point x="165" y="467" type="curve" smooth="yes"/>
      <point x="193" y="467"/>
      <point x="193" y="437"/>
      <point x="193" y="417" type="curve" smooth="yes"/>
      <point x="193" y="407"/>
      <point x="193" y="381"/>
      <point x="193" y="375" type="curve" smooth="yes"/>
      <point x="193" y="370"/>
      <point x="193" y="363"/>
      <point x="193" y="357" type="curve"/>
      <point x="183" y="324"/>
      <point x="24" y="312"/>
      <point x="24" y="127" type="curve" smooth="yes"/>
    </contour>
  </outline>
</glyph>
<glyph name="b" format="1">
  <advance width="335"/>
  <unicode hex="0062"/>
  <outline>
    <contour>
      <point x="40" y="0" type="line"/>
      <point x="141" y="0" type="line"/>
      <point x="141" y="36" type="line"/>
      <point x="141" y="36"/>
      <point x="184" y="-8"/>
      <point x="221" y="-8" type="curve" smooth="yes"/>
      <point x="276" y="-8"/>
      <point x="299" y="54"/>
      <point x="299" y="99" type="curve" smooth="yes"/>
      <point x="299" y="448" type="line" smooth="yes"/>
      <point x="299" y="493"/>
      <point x="276" y="555"/>
      <point x="221" y="555" type="curve" smooth="yes"/>
      <point x="184" y="555"/>
      <point x="141" y="511"/>
      <point x="141" y="511" type="curve"/>
      <point x="141" y="735" type="line"/>
      <point x="40" y="735" type="line"/>
    </contour>
    <contour>
      <point x="141" y="427" type="curve" smooth="yes"/>
      <point x="141" y="443"/>
      <point x="156" y="460"/>
      <point x="171" y="460" type="curve" smooth="yes"/>
      <point x="186" y="460"/>
      <point x="198" y="446"/>
      <point x="198" y="427" type="curve" smooth="yes"/>
      <point x="198" y="120" type="line" smooth="yes"/>
      <point x="198" y="101"/>
      <point x="186" y="87"/>
      <point x="171" y="87" type="curve" smooth="yes"/>
      <point x="157" y="87"/>
      <point x="141" y="101"/>
      <point x="141" y="120" type="curve" smooth="yes"/>
      <point x="141" y="244"/>
      <point x="141" y="322"/>
    </contour>
  </outline>
</glyph>
<glyph name="d" format="1">
  <advance width="335"/>
  <unicode hex="0064"/>
  <outline>
    <contour>
      <point x="295" y="735" type="line"/>
      <point x="194" y="735" type="line"/>
      <point x="194" y="511" type="line"/>
      <point x="194" y="511"/>
      <point x="151" y="555"/>
      <point x="114" y="555" type="curve" smooth="yes"/>
      <point x="59" y="555"/>
      <point x="36" y="493"/>
      <point x="36" y="448" type="curve" smooth="yes"/>
      <point x="36" y="99" type="line" smooth="yes"/>
      <point x="36" y="54"/>
      <point x="59" y="-8"/>
      <point x="114" y="-8" type="curve" smooth="yes"/>
      <point x="151" y="-8"/>
      <point x="194" y="36"/>
      <point x="194" y="36" type="curve"/>
      <point x="194" y="0" type="line"/>
      <point x="295" y="0" type="line"/>
    </contour>
    <contour>
      <point x="164" y="87" type="curve" smooth="yes"/>
      <point x="149" y="87"/>
      <point x="137" y="101"/>
      <point x="137" y="120" type="curve" smooth="yes"/>
      <point x="137" y="427" type="line" smooth="yes"/>
      <point x="137" y="446"/>
      <point x="149" y="460"/>
      <point x="164" y="460" type="curve" smooth="yes"/>
      <point x="179" y="460"/>
      <point x="194" y="443"/>
      <point x="194" y="427" type="curve" smooth="yes"/>
      <point x="194" y="322"/>
      <point x="194" y="244"/>
      <point x="194" y="120" type="curve" smooth="yes"/>
      <point x="194" y="101"/>
      <point x="178" y="87"/>
    </contour>
  </outline>
</glyph>
<glyph name="e" format="1">
  <advance width="322"/>
  <unicode hex="0065"/>
  <outline>
    <contour>
      <point x="199.0" y="196.0" type="line"/>
      <point x="199.0" y="136.0" type="line"/>
      <point x="199.0" y="136.0"/>
      <point x="201.0" y="81.0"/>
      <point x="163.0" y="81.0" type="curve" smooth="yes"/>
      <point x="126.0" y="81.0"/>
      <point x="126.0" y="136.0"/>
      <point x="126.0" y="136.0" type="curve"/>
      <point x="126.0" y="255.0" type="line"/>
      <point x="293.0" y="255.0" type="line"/>
      <point x="293.0" y="414.0" type="line"/>
      <point x="293.0" y="414.0"/>
      <point x="294.0" y="555.0"/>
      <point x="163.0" y="555.0" type="curve" smooth="yes"/>
      <point x="33.0" y="555.0"/>
      <point x="32.0" y="411.0"/>
      <point x="32.0" y="411.0" type="curve"/>
      <point x="32.0" y="136.0" type="line"/>
      <point x="32.0" y="136.0"/>
      <point x="32.0" y="-8.0"/>
      <point x="162.0" y="-8.0" type="curve" smooth="yes"/>
      <point x="293.0" y="-8.0"/>
      <point x="293.0" y="133.0"/>
      <point x="293.0" y="133.0" type="curve"/>
      <point x="293.0" y="196.0" type="line"/>
    </contour>
    <contour>
      <point x="126.0" y="411.0" type="line"/>
      <point x="126.0" y="411.0"/>
      <point x="126.0" y="467.0"/>
      <point x="163.0" y="467.0" type="curve" smooth="yes"/>
      <point x="201.0" y="467.0"/>
      <point x="199.0" y="411.0"/>
      <point x="199.0" y="411.0" type="curve"/>
      <point x="199.0" y="334.0" type="line"/>
      <point x="126.0" y="334.0" type="line"/>
    </contour>
  </outline>
</glyph>
<glyph name="f" format="1">
  <advance width="232"/>
  <unicode hex="0066"/>
  <outline>
    <contour>
      <point x="162" y="0" type="line"/>
      <point x="162" y="456" type="line"/>
      <point x="213" y="456" type="line"/>
      <point x="213" y="547" type="line"/>
      <point x="162" y="547" type="line"/>
      <point x="162" y="553" type="line"/>
      <point x="162" y="561" type="line" smooth="yes"/>
      <point x="162" y="586"/>
      <point x="160" y="649"/>
      <point x="194" y="649" type="curve" smooth="yes"/>
      <point x="211" y="649"/>
      <point x="224" y="645"/>
      <point x="224" y="645" type="curve"/>
      <point x="224" y="732" type="line"/>
      <point x="224" y="732"/>
      <point x="209" y="739"/>
      <point x="177" y="739" type="curve" smooth="yes"/>
      <point x="61" y="739"/>
      <point x="61" y="619"/>
      <point x="61" y="562" type="curve" smooth="yes"/>
      <point x="61" y="555" type="line"/>
      <point x="61" y="547" type="line"/>
      <point x="10" y="547" type="line"/>
      <point x="10" y="456" type="line"/>
      <point x="61" y="456" type="line"/>
      <point x="61" y="0" type="line"/>
    </contour>
  </outline>
</glyph>
<glyph name="g" format="1">
  <advance width="342"/>
  <unicode hex="0067"/>
  <outline>
    <contour>
      <point x="287" y="419" type="line"/>
      <point x="287" y="419"/>
      <point x="287" y="434"/>
      <point x="282" y="453" type="curve"/>
      <point x="294" y="459"/>
      <point x="314" y="465"/>
      <point x="341" y="465" type="curve"/>
      <point x="341" y="555" type="line"/>
      <point x="308" y="555"/>
      <point x="272" y="519"/>
      <point x="258" y="505" type="curve"/>
      <point x="239" y="532"/>
      <point x="208" y="555"/>
      <point x="157" y="555" type="curve" smooth="yes"/>
      <point x="31" y="555"/>
      <point x="29" y="416"/>
      <point x="29" y="416" type="curve"/>
      <point x="29" y="267" type="line"/>
      <point x="29" y="267"/>
      <point x="30" y="186"/>
      <point x="87" y="148" type="curve"/>
      <point x="58" y="132"/>
      <point x="24" y="97"/>
      <point x="24" y="66" type="curve" smooth="yes"/>
      <point x="24" y="24"/>
      <point x="52" y="2"/>
      <point x="85" y="-7" type="curve"/>
      <point x="47" y="-25"/>
      <point x="6" y="-53"/>
      <point x="6" y="-90" type="curve" smooth="yes"/>
      <point x="6" y="-171"/>
      <point x="71" y="-193"/>
      <point x="168" y="-196" type="curve" smooth="yes"/>
      <point x="251" y="-196"/>
      <point x="341" y="-163"/>
      <point x="341" y="-56" type="curve" smooth="yes"/>
      <point x="341" y="39"/>
      <point x="264" y="62"/>
      <point x="201" y="71" type="curve" smooth="yes"/>
      <point x="164" y="77"/>
      <point x="124" y="82"/>
      <point x="124" y="105" type="curve" smooth="yes"/>
      <point x="124" y="113"/>
      <point x="130" y="123"/>
      <point x="138" y="130" type="curve"/>
      <point x="144" y="129"/>
      <point x="150" y="129"/>
      <point x="157" y="129" type="curve" smooth="yes"/>
      <point x="284" y="129"/>
      <point x="287" y="264"/>
      <point x="287" y="264" type="curve"/>
    </contour>
    <contour>
      <point x="188" y="262" type="line"/>
      <point x="188" y="262"/>
      <point x="191" y="213"/>
      <point x="157" y="213" type="curve" smooth="yes"/>
      <point x="125" y="213"/>
      <point x="128" y="262"/>
      <point x="128" y="262" type="curve"/>
      <point x="128" y="412" type="line"/>
      <point x="128" y="412"/>
      <point x="125" y="462"/>
      <point x="157" y="462" type="curve" smooth="yes"/>
      <point x="191" y="462"/>
      <point x="188" y="412"/>
      <point x="188" y="412" type="curve"/>
    </contour>
    <contour>
      <point x="170" y="-111" type="curve" smooth="yes"/>
      <point x="124" y="-111"/>
      <point x="104" y="-94"/>
      <point x="104" y="-73" type="curve" smooth="yes"/>
      <point x="104" y="-52"/>
      <point x="120" y="-37"/>
      <point x="141" y="-25" type="curve"/>
      <point x="193" y="-35" type="line" smooth="yes"/>
      <point x="243" y="-44"/>
      <point x="247" y="-56"/>
      <point x="247" y="-74" type="curve" smooth="yes"/>
      <point x="247" y="-100"/>
      <point x="204" y="-111"/>
    </contour>
  </outline>
</glyph>
<glyph name="h" format="1">
  <advance width="337"/>
  <unicode hex="0068"/>
  <outline>
    <contour>
      <point x="198" y="433" type="curve" smooth="yes"/>
      <point x="198" y="0" type="line"/>
      <point x="299" y="0" type="line"/>
      <point x="299" y="448" type="line" smooth="yes"/>
      <point x="299" y="493"/>
      <point x="277" y="555"/>
      <point x="223" y="555" type="curve" smooth="yes"/>
      <point x="188" y="555"/>
      <point x="149" y="506"/>
      <point x="141" y="501" type="curve"/>
      <point x="141" y="735" type="line"/>
      <point x="40" y="735" type="line"/>
      <point x="40" y="0" type="line"/>
      <point x="141" y="0" type="line"/>
      <point x="141" y="114"/>
      <point x="141" y="121"/>
      <point x="141" y="431" type="curve"/>
      <point x="141" y="431"/>
      <point x="154" y="457"/>
      <point x="174" y="457" type="curve" smooth="yes"/>
      <point x="186" y="457"/>
      <point x="198" y="454"/>
    </contour>
  </outline>
</glyph>
<glyph name="i" format="1">
  <advance width="181"/>
  <unicode hex="0069"/>
  <outline>
    <contour>
      <point x="141" y="0" type="line"/>
      <point x="141" y="547" type="line"/>
      <point x="40" y="547" type="line"/>
      <point x="40" y="0" type="line"/>
    </contour>
    <contour>
      <point x="40" y="634" type="line"/>
      <point x="141" y="634" type="line"/>
      <point x="141" y="735" type="line"/>
      <point x="40" y="735" type="line"/>
    </contour>
  </outline>
</glyph>
<glyph name="j" format="1">
  <advance width="178"/>
  <unicode hex="006A"/>
  <outline>
    <contour>
      <point x="37" y="634" type="line"/>
      <point x="138" y="634" type="line"/>
      <point x="138" y="735" type="line"/>
      <point x="37" y="735" type="line"/>
    </contour>
    <contour>
      <point x="37" y="547" type="line"/>
      <point x="37" y="-13" type="line" smooth="yes"/>
      <point x="37" y="-38"/>
      <point x="40" y="-93"/>
      <point x="6" y="-93" type="curve" smooth="yes"/>
      <point x="-8" y="-93"/>
      <point x="-22" y="-89"/>
      <point x="-22" y="-89" type="curve"/>
      <point x="-22" y="-182" type="line"/>
      <point x="-22" y="-182"/>
      <point x="-10" y="-188"/>
      <point x="22" y="-188" type="curve" smooth="yes"/>
      <point x="138" y="-188"/>
      <point x="138" y="-71"/>
      <point x="138" y="-14" type="curve" smooth="yes"/>
      <point x="138" y="547" type="line"/>
    </contour>
  </outline>
</glyph>
<glyph name="l" format="1">
  <advance width="181"/>
  <unicode hex="006C"/>
  <outline>
    <contour>
      <point x="141" y="0" type="line"/>
      <point x="141" y="542"/>
      <point x="141" y="735"/>
      <point x="141" y="735" type="curve" smooth="yes"/>
      <point x="141" y="735"/>
      <point x="52" y="735"/>
      <point x="40" y="735" type="curve"/>
      <point x="40" y="729"/>
      <point x="40" y="335"/>
      <point x="40" y="0" type="curve"/>
    </contour>
  </outline>
</glyph>
<glyph name="m" format="1">
  <advance width="499"/>
  <unicode hex="006D"/>
  <outline>
    <contour>
      <point x="349" y="457"/>
      <point x="366" y="454"/>
      <point x="366" y="433" type="curve" smooth="yes"/>
      <point x="366" y="0" type="line"/>
      <point x="461" y="0" type="line"/>
      <point x="461" y="448" type="line" smooth="yes"/>
      <point x="461" y="493"/>
      <point x="439" y="555"/>
      <point x="385" y="555" type="curve" smooth="yes"/>
      <point x="350" y="555"/>
      <point x="309" y="506"/>
      <point x="293" y="494" type="curve"/>
      <point x="283" y="526"/>
      <point x="261" y="555"/>
      <point x="225" y="555" type="curve" smooth="yes"/>
      <point x="190" y="555"/>
      <point x="149" y="506"/>
      <point x="141" y="501" type="curve"/>
      <point x="141" y="547" type="line"/>
      <point x="40" y="547" type="line"/>
      <point x="40" y="0" type="line"/>
      <point x="141" y="0" type="line"/>
      <point x="141" y="431" type="line"/>
      <point x="141" y="431"/>
      <point x="159" y="457"/>
      <point x="179" y="457" type="curve" smooth="yes"/>
      <point x="189" y="457"/>
      <point x="206" y="454"/>
      <point x="206" y="433" type="curve" smooth="yes"/>
      <point x="206" y="0" type="line"/>
      <point x="301" y="0" type="line"/>
      <point x="301" y="431" type="line"/>
      <point x="301" y="431"/>
      <point x="319" y="457"/>
      <point x="339" y="457" type="curve" smooth="yes"/>
    </contour>
  </outline>
</glyph>
<glyph name="r" format="1">
  <advance width="246"/>
  <unicode hex="0072"/>
  <outline>
    <contour>
      <point x="242" y="555" type="line"/>
      <point x="168" y="555"/>
      <point x="144" y="500"/>
      <point x="141" y="486" type="curve"/>
      <point x="141" y="547" type="line"/>
      <point x="40" y="547" type="line"/>
      <point x="40" y="0" type="line"/>
      <point x="141" y="0" type="line"/>
      <point x="141" y="114"/>
      <point x="141" y="70"/>
      <point x="141" y="380" type="curve" smooth="yes"/>
      <point x="141" y="397"/>
      <point x="145" y="414"/>
      <point x="163" y="430" type="curve" smooth="yes"/>
      <point x="195" y="458"/>
      <point x="242" y="443"/>
      <point x="242" y="443" type="curve"/>
    </contour>
  </outline>
</glyph>
<glyph name="t" format="1">
  <advance width="245"/>
  <unicode hex="0074"/>
  <outline>
    <contour>
      <point x="61" y="682" type="line"/>
      <point x="61" y="547" type="line"/>
      <point x="10" y="547" type="line"/>
      <point x="10" y="456" type="line"/>
      <point x="61" y="456" type="line"/>
      <point x="61" y="176" type="line" smooth="yes"/>
      <point x="61" y="112"/>
      <point x="61" y="-8"/>
      <point x="177" y="-8" type="curve" smooth="yes"/>
      <point x="209" y="-8"/>
      <point x="231" y="-1"/>
      <point x="231" y="-1" type="curve"/>
      <point x="231" y="98" type="line"/>
      <point x="231" y="98"/>
      <point x="211" y="94"/>
      <point x="194" y="94" type="curve" smooth="yes"/>
      <point x="162" y="94"/>
      <point x="162" y="150"/>
      <point x="162" y="184" type="curve" smooth="yes"/>
      <point x="162" y="456" type="line"/>
      <point x="231" y="456" type="line"/>
      <point x="231" y="547" type="line"/>
      <point x="162" y="547" type="line"/>
      <point x="162" y="682" type="line"/>
    </contour>
  </outline>
</glyph>
<glyph name="y" format="1">
  <advance width="310"/>
  <unicode hex="0079"/>
  <outline>
    <contour>
      <point x="16" y="-194" type="line"/>
      <point x="16" y="-194"/>
      <point x="50" y="-196"/>
      <point x="61" y="-196" type="curve" smooth="yes"/>
      <point x="141" y="-196"/>
      <point x="191" y="-117"/>
      <point x="201" y="-41" type="curve" smooth="yes"/>
      <point x="298" y="547" type="line"/>
      <point x="199" y="547" type="line"/>
      <point x="159" y="211" type="line"/>
      <point x="157" y="183" type="line"/>
      <point x="153" y="183" type="line"/>
      <point x="151" y="211" type="line"/>
      <point x="111" y="547" type="line"/>
      <point x="12" y="547" type="line"/>
      <point x="105" y="-16" type="line"/>
      <point x="105" y="-56"/>
      <point x="82" y="-102"/>
      <point x="40" y="-106" type="curve"/>
      <point x="24" y="-106"/>
      <point x="16" y="-104"/>
      <point x="16" y="-104" type="curve"/>
    </contour>
  </outline>
</glyph>
<glyph name="z" format="1">
  <advance width="260"/>
  <unicode hex="007A"/>
  <outline>
    <contour>
      <point x="6" y="0" type="line"/>
      <point x="252" y="0" type="line"/>
      <point x="252" y="92" type="line"/>
      <point x="113" y="92" type="line"/>
      <point x="252" y="465" type="line"/>
      <point x="252" y="547" type="line"/>
      <point x="28" y="547" type="line"/>
      <point x="28" y="455" type="line"/>
      <point x="145" y="455" type="line"/>
      <point x="6" y="82" type="line"/>
    </contour>
  </outline>
</glyph>
<glyph name="braceleft" format="1">
  <advance width="336"/>
  <unicode hex="007B"/>
  <outline>
    <contour>
      <point x="94" y="369" type="line" smooth="yes"/>
      <point x="94" y="355"/>
      <point x="84" y="301"/>
      <point x="30" y="301" type="curve"/>
      <point x="30" y="221" type="line"/>
      <point x="84" y="218"/>
      <point x="94" y="166"/>
      <point x="94" y="153" type="curve" smooth="yes"/>
      <point x="94" y="-41" type="line" smooth="yes"/>
      <point x="94" y="-190"/>
      <point x="153" y="-224"/>
      <point x="308" y="-221" type="curve"/>
      <point x="308" y="-137" type="line"/>
      <point x="223" y="-138"/>
      <point x="190" y="-120"/>
      <point x="190" y="-41" type="curve" smooth="yes"/>
      <point x="190" y="153" type="line" smooth="yes"/>
      <point x="190" y="205"/>
      <point x="167" y="236"/>
      <point x="128" y="261" type="curve"/>
      <point x="167" y="285"/>
      <point x="190" y="316"/>
      <point x="190" y="369" type="curve" smooth="yes"/>
      <point x="190" y="563" type="line" smooth="yes"/>
      <point x="190" y="642"/>
      <point x="223" y="660"/>
      <point x="308" y="659" type="curve"/>
      <point x="308" y="743" type="line"/>
      <point x="153" y="746"/>
      <point x="94" y="712"/>
      <point x="94" y="563" type="curve" smooth="yes"/>
    </contour>
  </outline>
</glyph>
<glyph name="bar" format="1">
  <advance width="174"/>
  <unicode hex="007C"/>
  <outline>
    <contour>
      <point x="134" y="-250" type="line"/>
      <point x="134" y="826" type="line"/>
      <point x="40" y="826" type="line"/>
      <point x="40" y="820"/>
      <point x="40" y="85"/>
      <point x="40" y="-250" type="curve"/>
    </contour>
  </outline>
</glyph>
<glyph name="braceright" format="1">
  <advance width="336"/>
  <unicode hex="007D"/>
  <outline>
    <contour>
      <point x="242" y="563" type="line" smooth="yes"/>
      <point x="242" y="712"/>
      <point x="183" y="746"/>
      <point x="28" y="743" type="curve"/>
      <point x="28" y="659" type="line"/>
      <point x="113" y="660"/>
      <point x="146" y="642"/>
      <point x="146" y="563" type="curve" smooth="yes"/>
      <point x="146" y="369" type="line" smooth="yes"/>
      <point x="146" y="316"/>
      <point x="169" y="285"/>
      <point x="208" y="261" type="curve"/>
      <point x="169" y="236"/>
      <point x="146" y="205"/>
      <point x="146" y="153" type="curve" smooth="yes"/>
      <point x="146" y="-41" type="line" smooth="yes"/>
      <point x="146" y="-120"/>
      <point x="113" y="-138"/>
      <point x="28" y="-137" type="curve"/>
      <point x="28" y="-221" type="line"/>
      <point x="183" y="-224"/>
      <point x="242" y="-190"/>
      <point x="242" y="-41" type="curve" smooth="yes"/>
      <point x="242" y="153" type="line" smooth="yes"/>
      <point x="242" y="166"/>
      <point x="252" y="218"/>
      <point x="306" y="221" type="curve"/>
      <point x="306" y="301" type="line"/>
      <point x="252" y="301"/>
      <point x="242" y="355"/>
      <point x="242" y="369" type="curve" smooth="yes"/>
    </contour>
  </outline>
</glyph>
<glyph name="asciitilde" format="1">
  <advance width="625"/>
  <unicode hex="007E"/>
  <outline>
    <contour>
      <point x="306" y="684" type="curve" smooth="yes"/>
      <point x="344" y="659"/>
      <point x="383" y="635"/>
      <point x="439" y="635" type="curve" smooth="yes"/>
      <point x="548" y="635"/>
      <point x="598" y="786"/>
      <point x="598" y="786" type="curve"/>
      <point x="532" y="814" type="line"/>
      <point x="532" y="814"/>
      <point x="502" y="725"/>
      <point x="439" y="725" type="curve" smooth="yes"/>
      <point x="409" y="725"/>
      <point x="381" y="742"/>
      <point x="354" y="760" type="curve" smooth="yes"/>
      <point x="316" y="784"/>
      <point x="278" y="810"/>
      <point x="219" y="810" type="curve" smooth="yes"/>
      <point x="103" y="810"/>
      <point x="55" y="660"/>
      <point x="55" y="660" type="curve"/>
      <point x="121" y="632" type="line"/>
      <point x="121" y="632"/>
      <point x="149" y="720"/>
      <point x="219" y="720" type="curve" smooth="yes"/>
      <point x="250" y="720"/>
      <point x="278" y="702"/>
    </contour>
  </outline>
</glyph>
<glyph name="cent" format="1">
  <advance width="311"/>
  <unicode hex="00A2"/>
  <outline>
    <contour>
      <point x="134" y="765" type="line"/>
      <point x="134" y="647" type="line"/>
      <point x="74" y="638"/>
      <point x="32" y="594"/>
      <point x="32" y="487" type="curve" smooth="yes"/>
      <point x="32" y="248" type="line" smooth="yes"/>
      <point x="32" y="140"/>
      <point x="74" y="96"/>
      <point x="134" y="87" type="curve"/>
      <point x="134" y="-60" type="line"/>
      <point x="194" y="-60" type="line"/>
      <point x="194" y="88" type="line"/>
      <point x="256" y="98"/>
      <point x="287" y="139"/>
      <point x="287" y="243" type="curve" smooth="yes"/>
      <point x="287" y="296" type="line"/>
      <point x="195" y="296" type="line"/>
      <point x="195" y="220" type="line" smooth="yes"/>
      <point x="195" y="187"/>
      <point x="182" y="176"/>
      <point x="159" y="176" type="curve" smooth="yes"/>
      <point x="132" y="176"/>
      <point x="124" y="200"/>
      <point x="124" y="220" type="curve" smooth="yes"/>
      <point x="124" y="515" type="line" smooth="yes"/>
      <point x="124" y="535"/>
      <point x="132" y="559"/>
      <point x="159" y="559" type="curve" smooth="yes"/>
      <point x="182" y="559"/>
      <point x="195" y="548"/>
      <point x="195" y="515" type="curve" smooth="yes"/>
      <point x="195" y="449" type="line"/>
      <point x="287" y="449" type="line"/>
      <point x="287" y="492" type="line" smooth="yes"/>
      <point x="287" y="596"/>
      <point x="256" y="636"/>
      <point x="194" y="646" type="curve"/>
      <point x="194" y="765" type="line"/>
    </contour>
  </outline>
</glyph>
<glyph name="sterling" format="1">
  <advance width="399"/>
  <unicode hex="00A3"/>
  <outline>
    <contour>
      <point x="353" y="547" type="line"/>
      <point x="353" y="645"/>
      <point x="322" y="745"/>
      <point x="191" y="743" type="curve" smooth="yes"/>
      <point x="82" y="741"/>
      <point x="47" y="645"/>
      <point x="47" y="561" type="curve" smooth="yes"/>
      <point x="47" y="520"/>
      <point x="66" y="456"/>
      <point x="85" y="394" type="curve" smooth="yes"/>
      <point x="88" y="384" type="line"/>
      <point x="16" y="384" type="line"/>
      <point x="16" y="317" type="line"/>
      <point x="108" y="317" type="line"/>
      <point x="117" y="286"/>
      <point x="123" y="257"/>
      <point x="123" y="232" type="curve" smooth="yes"/>
      <point x="123" y="204"/>
      <point x="115" y="165"/>
      <point x="105" y="135" type="curve"/>
      <point x="36" y="123"/>
      <point x="2" y="31"/>
      <point x="2" y="31" type="curve"/>
      <point x="73" y="-8" type="line"/>
      <point x="73" y="-8"/>
      <point x="93" y="42"/>
      <point x="129" y="42" type="curve" smooth="yes"/>
      <point x="167" y="42"/>
      <point x="215" y="-8"/>
      <point x="262" y="-8" type="curve" smooth="yes"/>
      <point x="325" y="-8"/>
      <point x="377" y="56"/>
      <point x="385" y="178" type="curve"/>
      <point x="293" y="189" type="line"/>
      <point x="290" y="122"/>
      <point x="272" y="97"/>
      <point x="253" y="96" type="curve"/>
      <point x="230" y="97"/>
      <point x="213" y="113"/>
      <point x="188" y="125" type="curve"/>
      <point x="207" y="163"/>
      <point x="216" y="205"/>
      <point x="216" y="232" type="curve" smooth="yes"/>
      <point x="216" y="255"/>
      <point x="212" y="284"/>
      <point x="204" y="317" type="curve"/>
      <point x="289" y="317" type="line"/>
      <point x="289" y="384" type="line"/>
      <point x="186" y="384" type="line"/>
      <point x="183" y="396" type="line"/>
      <point x="166" y="451"/>
      <point x="149" y="508"/>
      <point x="149" y="561" type="curve" smooth="yes"/>
      <point x="149" y="599"/>
      <point x="160" y="642"/>
      <point x="193" y="643" type="curve" smooth="yes"/>
      <point x="238" y="644"/>
      <point x="249" y="595"/>
      <point x="249" y="547" type="curve"/>
    </contour>
  </outline>
</glyph>
<glyph name="yen" format="1">
  <advance width="352"/>
  <unicode hex="00A5"/>
  <outline>
    <contour>
      <point x="36" y="166" type="line"/>
      <point x="122" y="166" type="line"/>
      <point x="122" y="0" type="line"/>
      <point x="230" y="0" type="line"/>
      <point x="230" y="166" type="line"/>
      <point x="316" y="166" type="line"/>
      <point x="316" y="233" type="line"/>
      <point x="230" y="233" type="line"/>
      <point x="230" y="300" type="line"/>
      <point x="316" y="300" type="line"/>
      <point x="316" y="367" type="line"/>
      <point x="244" y="367" type="line"/>
      <point x="340" y="735" type="line"/>
      <point x="234" y="735" type="line"/>
      <point x="180" y="500" type="line"/>
      <point x="177" y="493" type="line"/>
      <point x="175" y="493" type="line"/>
      <point x="172" y="500" type="line"/>
      <point x="118" y="735" type="line"/>
      <point x="12" y="735" type="line"/>
      <point x="108" y="367" type="line"/>
      <point x="36" y="367" type="line"/>
      <point x="36" y="300" type="line"/>
      <point x="122" y="300" type="line"/>
      <point x="122" y="233" type="line"/>
      <point x="36" y="233" type="line"/>
    </contour>
  </outline>
</glyph>
<glyph name="dieresis" format="1">
  <advance width="500"/>
  <unicode hex="00A8"/>
  <outline>
    <contour>
      <point x="133" y="637" type="line"/>
      <point x="226" y="637" type="line"/>
      <point x="226" y="735" type="line"/>
      <point x="133" y="735" type="line"/>
    </contour>
    <contour>
      <point x="274" y="637" type="line"/>
      <point x="367" y="637" type="line"/>
      <point x="367" y="735" type="line"/>
      <point x="274" y="735" type="line"/>
    </contour>
  </outline>
</glyph>
<glyph name="copyright" format="1">
  <advance width="803"/>
  <unicode hex="00A9"/>
  <outline>
    <contour>
      <point x="401" y="-8" type="curve" smooth="yes"/>
      <point x="608" y="-8"/>
      <point x="777" y="161"/>
      <point x="777" y="367" type="curve" smooth="yes"/>
      <point x="777" y="574"/>
      <point x="608" y="743"/>
      <point x="401" y="743" type="curve" smooth="yes"/>
      <point x="195" y="743"/>
      <point x="26" y="574"/>
      <point x="26" y="367" type="curve" smooth="yes"/>
      <point x="26" y="161"/>
      <point x="195" y="-8"/>
    </contour>
    <contour>
      <point x="425" y="299" type="line"/>
      <point x="425" y="238" type="line"/>
      <point x="425" y="238"/>
      <point x="428" y="207"/>
      <point x="401" y="207" type="curve" smooth="yes"/>
      <point x="377" y="207"/>
      <point x="377" y="238"/>
      <point x="377" y="238" type="curve"/>
      <point x="377" y="497" type="line"/>
      <point x="377" y="497"/>
      <point x="377" y="528"/>
      <point x="401" y="528" type="curve" smooth="yes"/>
      <point x="428" y="528"/>
      <point x="425" y="497"/>
      <point x="425" y="497" type="curve"/>
      <point x="425" y="436" type="line"/>
      <point x="425" y="436"/>
      <point x="492" y="436"/>
      <point x="492" y="436" type="curve"/>
      <point x="492" y="497" type="line"/>
      <point x="492" y="497"/>
      <point x="492" y="593"/>
      <point x="400" y="593" type="curve" smooth="yes"/>
      <point x="305" y="593"/>
      <point x="306" y="497"/>
      <point x="306" y="497" type="curve"/>
      <point x="306" y="238" type="line"/>
      <point x="306" y="238"/>
      <point x="305" y="142"/>
      <point x="400" y="142" type="curve" smooth="yes"/>
      <point x="492" y="142"/>
      <point x="492" y="238"/>
      <point x="492" y="238" type="curve"/>
      <point x="492" y="299" type="line"/>
    </contour>
    <contour>
      <point x="401" y="685" type="curve" smooth="yes"/>
      <point x="575" y="685"/>
      <point x="719" y="541"/>
      <point x="719" y="367" type="curve" smooth="yes"/>
      <point x="719" y="194"/>
      <point x="575" y="50"/>
      <point x="401" y="50" type="curve" smooth="yes"/>
      <point x="228" y="50"/>
      <point x="84" y="194"/>
      <point x="84" y="367" type="curve" smooth="yes"/>
      <point x="84" y="541"/>
      <point x="228" y="685"/>
    </contour>
  </outline>
</glyph>
<glyph name="registered" format="1">
  <advance width="803"/>
  <unicode hex="00AE"/>
  <outline>
    <contour>
      <point x="305" y="582" type="line"/>
      <point x="305" y="153" type="line"/>
      <point x="376" y="153" type="line"/>
      <point x="376" y="331" type="line"/>
      <point x="403" y="331" type="line"/>
      <point x="449" y="153" type="line"/>
      <point x="523" y="153" type="line"/>
      <point x="471" y="348" type="line"/>
      <point x="511" y="381"/>
      <point x="514" y="414"/>
      <point x="514" y="456" type="curve" smooth="yes"/>
      <point x="514" y="534"/>
      <point x="480" y="582"/>
      <point x="401" y="582" type="curve" smooth="yes"/>
    </contour>
    <contour>
      <point x="398" y="519" type="line" smooth="yes"/>
      <point x="442" y="519"/>
      <point x="446" y="485"/>
      <point x="446" y="455" type="curve" smooth="yes"/>
      <point x="446" y="426"/>
      <point x="442" y="393"/>
      <point x="398" y="393" type="curve" smooth="yes"/>
      <point x="376" y="393" type="line" smooth="yes"/>
      <point x="376" y="393"/>
      <point x="376" y="519"/>
      <point x="376" y="519" type="curve"/>
    </contour>
    <contour>
      <point x="401" y="-8" type="curve" smooth="yes"/>
      <point x="608" y="-8"/>
      <point x="777" y="161"/>
      <point x="777" y="367" type="curve" smooth="yes"/>
      <point x="777" y="574"/>
      <point x="608" y="743"/>
      <point x="401" y="743" type="curve" smooth="yes"/>
      <point x="195" y="743"/>
      <point x="26" y="574"/>
      <point x="26" y="367" type="curve" smooth="yes"/>
      <point x="26" y="161"/>
      <point x="195" y="-8"/>
    </contour>
    <contour>
      <point x="401" y="685" type="curve" smooth="yes"/>
      <point x="575" y="685"/>
      <point x="719" y="541"/>
      <point x="719" y="367" type="curve" smooth="yes"/>
      <point x="719" y="194"/>
      <point x="575" y="50"/>
      <point x="401" y="50" type="curve" smooth="yes"/>
      <point x="228" y="50"/>
      <point x="84" y="194"/>
      <point x="84" y="367" type="curve" smooth="yes"/>
      <point x="84" y="541"/>
      <point x="228" y="685"/>
    </contour>
  </outline>
</glyph>
<glyph name="macron" format="1">
  <advance width="500"/>
  <unicode hex="00AF"/>
  <outline>
    <contour>
      <point x="153" y="642" type="line"/>
      <point x="347" y="642" type="line"/>
      <point x="347" y="721" type="line"/>
      <point x="153" y="721" type="line"/>
    </contour>
  </outline>
</glyph>
<glyph name="questiondown" format="1">
  <advance width="315"/>
  <unicode hex="00BF"/>
  <outline>
    <contour>
      <point x="218" y="547" type="line"/>
      <point x="113" y="547" type="line"/>
      <point x="113" y="436" type="line"/>
      <point x="218" y="436" type="line"/>
    </contour>
    <contour>
      <point x="119" y="349" type="line"/>
      <point x="119" y="224" type="line" smooth="yes"/>
      <point x="119" y="149"/>
      <point x="83" y="94"/>
      <point x="59" y="55" type="curve" smooth="yes"/>
      <point x="38" y="19"/>
      <point x="20" y="-11"/>
      <point x="20" y="-52" type="curve" smooth="yes"/>
      <point x="20" y="-91"/>
      <point x="37" y="-190"/>
      <point x="150" y="-192" type="curve" smooth="yes"/>
      <point x="242" y="-194"/>
      <point x="291" y="-99"/>
      <point x="303" y="-68" type="curve"/>
      <point x="216" y="-27" type="line"/>
      <point x="210" y="-47"/>
      <point x="188" y="-99"/>
      <point x="152" y="-98" type="curve" smooth="yes"/>
      <point x="123" y="-98"/>
      <point x="116" y="-65"/>
      <point x="119" y="-52" type="curve" smooth="yes"/>
      <point x="122" y="-39"/>
      <point x="131" y="-20"/>
      <point x="145" y="3" type="curve" smooth="yes"/>
      <point x="175" y="53"/>
      <point x="212" y="117"/>
      <point x="212" y="224" type="curve" smooth="yes"/>
      <point x="212" y="349" type="line"/>
    </contour>
  </outline>
</glyph>
<glyph name="Atilde" format="1">
  <advance width="374"/>
  <unicode hex="00C3"/>
  <outline>
    <contour>
      <point x="115" y="0" type="line"/>
      <point x="135" y="150" type="line"/>
      <point x="239" y="150" type="line"/>
      <point x="259" y="0" type="line"/>
      <point x="364" y="0" type="line"/>
      <point x="253" y="735" type="line"/>
      <point x="121" y="735" type="line"/>
      <point x="10" y="0" type="line"/>
    </contour>
    <contour>
      <point x="224" y="264" type="line"/>
      <point x="150" y="264" type="line"/>
      <point x="181" y="496" type="line"/>
      <point x="184" y="515" type="line"/>
      <point x="190" y="515" type="line"/>
      <point x="193" y="496" type="line"/>
    </contour>
    <contour>
      <point x="231" y="794" type="curve" smooth="yes"/>
      <point x="259" y="794"/>
      <point x="284" y="813"/>
      <point x="284" y="813" type="curve"/>
      <point x="284" y="887" type="line"/>
      <point x="284" y="887"/>
      <point x="259" y="871"/>
      <point x="231" y="871" type="curve"/>
      <point x="200" y="873"/>
      <point x="174" y="890"/>
      <point x="143" y="890" type="curve" smooth="yes"/>
      <point x="114" y="890"/>
      <point x="90" y="871"/>
      <point x="90" y="871" type="curve"/>
      <point x="90" y="797" type="line"/>
      <point x="90" y="797"/>
      <point x="115" y="813"/>
      <point x="143" y="813" type="curve" smooth="yes"/>
      <point x="175" y="812"/>
      <point x="201" y="794"/>
    </contour>
  </outline>
</glyph>
<glyph name="Adieresis" format="1">
  <advance width="374"/>
  <unicode hex="00C4"/>
  <outline>
    <contour>
      <point x="115" y="0" type="line"/>
      <point x="135" y="150" type="line"/>
      <point x="239" y="150" type="line"/>
      <point x="259" y="0" type="line"/>
      <point x="364" y="0" type="line"/>
      <point x="253" y="735" type="line"/>
      <point x="121" y="735" type="line"/>
      <point x="10" y="0" type="line"/>
    </contour>
    <contour>
      <point x="224" y="264" type="line"/>
      <point x="150" y="264" type="line"/>
      <point x="181" y="496" type="line"/>
      <point x="184" y="515" type="line"/>
      <point x="190" y="515" type="line"/>
      <point x="193" y="496" type="line"/>
    </contour>
    <contour>
      <point x="70" y="800" type="line"/>
      <point x="163" y="800" type="line"/>
      <point x="163" y="898" type="line"/>
      <point x="70" y="898" type="line"/>
    </contour>
    <contour>
      <point x="211" y="800" type="line"/>
      <point x="304" y="800" type="line"/>
      <point x="304" y="898" type="line"/>
      <point x="211" y="898" type="line"/>
    </contour>
  </outline>
</glyph>
<glyph name="Ecircumflex" format="1">
  <advance width="307"/>
  <unicode hex="00CA"/>
  <outline>
    <contour>
      <point x="40" y="0" type="line"/>
      <point x="287" y="0" type="line"/>
      <point x="287" y="111" type="line"/>
      <point x="148" y="111" type="line"/>
      <point x="148" y="313" type="line"/>
      <point x="248" y="313" type="line"/>
      <point x="248" y="431" type="line"/>
      <point x="148" y="431" type="line"/>
      <point x="148" y="624" type="line"/>
      <point x="287" y="624" type="line"/>
      <point x="287" y="735" type="line"/>
      <point x="40" y="735" type="line"/>
    </contour>
    <contour>
      <point x="110" y="890" type="line"/>
      <point x="41" y="800" type="line"/>
      <point x="133" y="800" type="line"/>
      <point x="163" y="835" type="line"/>
      <point x="194" y="800" type="line"/>
      <point x="286" y="800" type="line"/>
      <point x="217" y="890" type="line"/>
    </contour>
  </outline>
</glyph>
<glyph name="Iacute" format="1">
  <advance width="196"/>
  <unicode hex="00CD"/>
  <outline>
    <contour>
      <point x="40" y="0" type="line"/>
      <point x="148" y="0" type="line"/>
      <point x="148" y="735" type="line"/>
      <point x="40" y="735" type="line"/>
    </contour>
    <contour>
      <point x="94" y="890" type="line"/>
      <point x="42" y="800" type="line"/>
      <point x="120" y="800" type="line"/>
      <point x="199" y="890" type="line"/>
    </contour>
  </outline>
</glyph>
<glyph name="Ntilde" format="1">
  <advance width="395"/>
  <unicode hex="00D1"/>
  <outline>
    <contour>
      <point x="259" y="0" type="line"/>
      <point x="259" y="0"/>
      <point x="355" y="0"/>
      <point x="355" y="0" type="curve" smooth="yes"/>
      <point x="355" y="0"/>
      <point x="355" y="735"/>
      <point x="355" y="735" type="curve" smooth="yes"/>
      <point x="256" y="735" type="line"/>
      <point x="256" y="352" type="line"/>
      <point x="256" y="318" type="line"/>
      <point x="250" y="318" type="line"/>
      <point x="241" y="352" type="line"/>
      <point x="241" y="352"/>
      <point x="136" y="735"/>
      <point x="136" y="735" type="curve" smooth="yes"/>
      <point x="136" y="735"/>
      <point x="40" y="735"/>
      <point x="40" y="735" type="curve" smooth="yes"/>
      <point x="40" y="735"/>
      <point x="40" y="0"/>
      <point x="40" y="0" type="curve"/>
      <point x="139" y="0" type="line"/>
      <point x="139" y="383" type="line"/>
      <point x="139" y="417" type="line"/>
      <point x="145" y="417" type="line"/>
      <point x="154" y="383" type="line"/>
    </contour>
    <contour>
      <point x="242" y="794" type="curve" smooth="yes"/>
      <point x="270" y="794"/>
      <point x="295" y="813"/>
      <point x="295" y="813" type="curve"/>
      <point x="295" y="887" type="line"/>
      <point x="295" y="887"/>
      <point x="270" y="871"/>
      <point x="242" y="871" type="curve"/>
      <point x="211" y="873"/>
      <point x="185" y="890"/>
      <point x="154" y="890" type="curve" smooth="yes"/>
      <point x="125" y="890"/>
      <point x="101" y="871"/>
      <point x="101" y="871" type="curve"/>
      <point x="101" y="797" type="line"/>
      <point x="101" y="797"/>
      <point x="126" y="813"/>
      <point x="154" y="813" type="curve" smooth="yes"/>
      <point x="186" y="812"/>
      <point x="212" y="794"/>
    </contour>
  </outline>
</glyph>
<glyph name="Oacute" format="1">
  <advance width="354"/>
  <unicode hex="00D3"/>
  <outline>
    <contour>
      <point x="321" y="584" type="line"/>
      <point x="321" y="584"/>
      <point x="322" y="743"/>
      <point x="177" y="743" type="curve" smooth="yes"/>
      <point x="32" y="743"/>
      <point x="33" y="584"/>
      <point x="33" y="584" type="curve"/>
      <point x="33" y="151" type="line"/>
      <point x="33" y="151"/>
      <point x="32" y="-8"/>
      <point x="177" y="-8" type="curve" smooth="yes"/>
      <point x="322" y="-8"/>
      <point x="321" y="151"/>
      <point x="321" y="151" type="curve"/>
    </contour>
    <contour>
      <point x="213" y="151" type="line"/>
      <point x="213" y="151"/>
      <point x="215" y="97"/>
      <point x="177" y="97" type="curve" smooth="yes"/>
      <point x="139" y="97"/>
      <point x="141" y="151"/>
      <point x="141" y="151" type="curve"/>
      <point x="141" y="584" type="line"/>
      <point x="141" y="584"/>
      <point x="139" y="638"/>
      <point x="177" y="638" type="curve" smooth="yes"/>
      <point x="215" y="638"/>
      <point x="213" y="584"/>
      <point x="213" y="584" type="curve"/>
    </contour>
    <contour>
      <point x="191" y="890" type="line"/>
      <point x="139" y="800" type="line"/>
      <point x="217" y="800" type="line"/>
      <point x="296" y="890" type="line"/>
    </contour>
  </outline>
</glyph>
<glyph name="Otilde" format="1">
  <advance width="354"/>
  <unicode hex="00D5"/>
  <outline>
    <contour>
      <point x="321" y="584" type="line"/>
      <point x="321" y="584"/>
      <point x="322" y="743"/>
      <point x="177" y="743" type="curve" smooth="yes"/>
      <point x="32" y="743"/>
      <point x="33" y="584"/>
      <point x="33" y="584" type="curve"/>
      <point x="33" y="151" type="line"/>
      <point x="33" y="151"/>
      <point x="32" y="-8"/>
      <point x="177" y="-8" type="curve" smooth="yes"/>
      <point x="322" y="-8"/>
      <point x="321" y="151"/>
      <point x="321" y="151" type="curve"/>
    </contour>
    <contour>
      <point x="213" y="151" type="line"/>
      <point x="213" y="151"/>
      <point x="215" y="97"/>
      <point x="177" y="97" type="curve" smooth="yes"/>
      <point x="139" y="97"/>
      <point x="141" y="151"/>
      <point x="141" y="151" type="curve"/>
      <point x="141" y="584" type="line"/>
      <point x="141" y="584"/>
      <point x="139" y="638"/>
      <point x="177" y="638" type="curve" smooth="yes"/>
      <point x="215" y="638"/>
      <point x="213" y="584"/>
      <point x="213" y="584" type="curve"/>
    </contour>
    <contour>
      <point x="165" y="812"/>
      <point x="191" y="794"/>
      <point x="221" y="794" type="curve" smooth="yes"/>
      <point x="249" y="794"/>
      <point x="274" y="813"/>
      <point x="274" y="813" type="curve"/>
      <point x="274" y="887" type="line"/>
      <point x="274" y="887"/>
      <point x="249" y="871"/>
      <point x="221" y="871" type="curve"/>
      <point x="190" y="873"/>
      <point x="164" y="890"/>
      <point x="133" y="890" type="curve" smooth="yes"/>
      <point x="104" y="890"/>
      <point x="80" y="871"/>
      <point x="80" y="871" type="curve"/>
      <point x="80" y="797" type="line"/>
      <point x="80" y="797"/>
      <point x="105" y="813"/>
      <point x="133" y="813" type="curve" smooth="yes"/>
    </contour>
  </outline>
</glyph>
<glyph name="Oslash" format="1">
  <advance width="354"/>
  <unicode hex="00D8"/>
  <outline>
    <contour>
      <point x="92" y="-10" type="line"/>
      <point x="99" y="13" type="line"/>
      <point x="118" y="0"/>
      <point x="144" y="-8"/>
      <point x="177" y="-8" type="curve" smooth="yes"/>
      <point x="322" y="-8"/>
      <point x="321" y="151"/>
      <point x="321" y="151" type="curve"/>
      <point x="321" y="584" type="line"/>
      <point x="321" y="584"/>
      <point x="321" y="630"/>
      <point x="299" y="672" type="curve"/>
      <point x="321" y="745" type="line"/>
      <point x="261" y="745" type="line"/>
      <point x="254" y="722" type="line"/>
      <point x="234" y="735"/>
      <point x="209" y="743"/>
      <point x="177" y="743" type="curve" smooth="yes"/>
      <point x="32" y="743"/>
      <point x="33" y="584"/>
      <point x="33" y="584" type="curve"/>
      <point x="33" y="151" type="line"/>
      <point x="33" y="151"/>
      <point x="32" y="108"/>
      <point x="52" y="67" type="curve"/>
      <point x="29" y="-10" type="line"/>
    </contour>
    <contour>
      <point x="141" y="151" type="curve"/>
      <point x="213" y="389" type="line"/>
      <point x="213" y="151" type="line"/>
      <point x="213" y="151"/>
      <point x="215" y="97"/>
      <point x="177" y="97" type="curve" smooth="yes"/>
      <point x="139" y="97"/>
      <point x="141" y="151"/>
    </contour>
    <contour>
      <point x="141" y="584" type="line"/>
      <point x="141" y="584"/>
      <point x="139" y="638"/>
      <point x="177" y="638" type="curve" smooth="yes"/>
      <point x="209" y="638"/>
      <point x="212" y="600"/>
      <point x="213" y="589" type="curve"/>
      <point x="141" y="355" type="line"/>
    </contour>
  </outline>
</glyph>
<glyph name="Ugrave" format="1">
  <advance width="366"/>
  <unicode hex="00D9"/>
  <outline>
    <contour>
      <point x="327" y="735" type="line"/>
      <point x="327" y="151" type="line"/>
      <point x="327" y="151"/>
      <point x="328" y="-8"/>
      <point x="183" y="-8" type="curve" smooth="yes"/>
      <point x="38" y="-8"/>
      <point x="39" y="151"/>
      <point x="39" y="151" type="curve"/>
      <point x="39" y="735" type="line"/>
      <point x="147" y="735" type="line"/>
      <point x="147" y="151" type="line"/>
      <point x="147" y="151"/>
      <point x="145" y="97"/>
      <point x="183" y="97" type="curve" smooth="yes"/>
      <point x="221" y="97"/>
      <point x="219" y="151"/>
      <point x="219" y="151" type="curve"/>
      <point x="219" y="735" type="line"/>
    </contour>
    <contour>
      <point x="71" y="890" type="line"/>
      <point x="150" y="800" type="line"/>
      <point x="228" y="800" type="line"/>
      <point x="176" y="890" type="line"/>
    </contour>
  </outline>
</glyph>
<glyph name="Ucircumflex" format="1">
  <advance width="366"/>
  <unicode hex="00DB"/>
  <outline>
    <contour>
      <point x="327" y="735" type="line"/>
      <point x="327" y="151" type="line"/>
      <point x="327" y="151"/>
      <point x="328" y="-8"/>
      <point x="183" y="-8" type="curve" smooth="yes"/>
      <point x="38" y="-8"/>
      <point x="39" y="151"/>
      <point x="39" y="151" type="curve"/>
      <point x="39" y="735" type="line"/>
      <point x="147" y="735" type="line"/>
      <point x="147" y="151" type="line"/>
      <point x="147" y="151"/>
      <point x="145" y="97"/>
      <point x="183" y="97" type="curve" smooth="yes"/>
      <point x="221" y="97"/>
      <point x="219" y="151"/>
      <point x="219" y="151" type="curve"/>
      <point x="219" y="735" type="line"/>
    </contour>
    <contour>
      <point x="130" y="890" type="line"/>
      <point x="61" y="800" type="line"/>
      <point x="153" y="800" type="line"/>
      <point x="183" y="835" type="line"/>
      <point x="214" y="800" type="line"/>
      <point x="306" y="800" type="line"/>
      <point x="237" y="890" type="line"/>
    </contour>
  </outline>
</glyph>
<glyph name="Thorn" format="1">
  <advance width="354"/>
  <unicode hex="00DE"/>
  <outline>
    <contour>
      <point x="40" y="0" type="line"/>
      <point x="148" y="0" type="line"/>
      <point x="148" y="176" type="line"/>
      <point x="242" y="176"/>
      <point x="338" y="228"/>
      <point x="338" y="397" type="curve" smooth="yes"/>
      <point x="338" y="566"/>
      <point x="242" y="617"/>
      <point x="148" y="617" type="curve" smooth="yes"/>
      <point x="147" y="617" type="line"/>
      <point x="147" y="735" type="line"/>
      <point x="40" y="735" type="line"/>
    </contour>
    <contour>
      <point x="148" y="507" type="line"/>
      <point x="216" y="507"/>
      <point x="229" y="475"/>
      <point x="229" y="393" type="curve" smooth="yes"/>
      <point x="229" y="311"/>
      <point x="216" y="286"/>
      <point x="148" y="286" type="curve"/>
    </contour>
  </outline>
</glyph>
<glyph name="germandbls" format="1">
  <advance width="358"/>
  <unicode hex="00DF"/>
  <outline>
    <contour>
      <point x="169" y="478" type="line"/>
      <point x="210" y="478"/>
      <point x="231" y="451"/>
      <point x="231" y="281" type="curve" smooth="yes"/>
      <point x="231" y="120"/>
      <point x="210" y="94"/>
      <point x="169" y="94" type="curve"/>
      <point x="169" y="0" type="line"/>
      <point x="274" y="0"/>
      <point x="332" y="38"/>
      <point x="332" y="281" type="curve" smooth="yes"/>
      <point x="332" y="429"/>
      <point x="303" y="493"/>
      <point x="258" y="519" type="curve"/>
      <point x="285" y="539"/>
      <point x="301" y="568"/>
      <point x="301" y="604" type="curve" smooth="yes"/>
      <point x="301" y="679"/>
      <point x="260" y="743"/>
      <point x="169" y="743" type="curve" smooth="yes"/>
      <point x="74" y="743"/>
      <point x="32" y="678"/>
      <point x="32" y="603" type="curve" smooth="yes"/>
      <point x="32" y="0" type="line"/>
      <point x="133" y="0" type="line"/>
      <point x="133" y="603" type="line" smooth="yes"/>
      <point x="133" y="630"/>
      <point x="144" y="653"/>
      <point x="169" y="653" type="curve" smooth="yes"/>
      <point x="198" y="653"/>
      <point x="211" y="631"/>
      <point x="211" y="604" type="curve" smooth="yes"/>
      <point x="211" y="570"/>
      <point x="191" y="547"/>
      <point x="169" y="547" type="curve"/>
    </contour>
  </outline>
</glyph>
<glyph name="ae" format="1">
  <advance width="483"/>
  <unicode hex="00E6"/>
  <outline>
    <contour>
      <point x="360" y="196" type="line"/>
      <point x="360" y="136" type="line"/>
      <point x="360" y="136"/>
      <point x="362" y="81"/>
      <point x="324" y="81" type="curve" smooth="yes"/>
      <point x="287" y="81"/>
      <point x="287" y="136"/>
      <point x="287" y="136" type="curve"/>
      <point x="287" y="255" type="line"/>
      <point x="454" y="255" type="line"/>
      <point x="454" y="414" type="line"/>
      <point x="454" y="414"/>
      <point x="455" y="555"/>
      <point x="324" y="555" type="curve" smooth="yes"/>
      <point x="289" y="555"/>
      <point x="264" y="545"/>
      <point x="245" y="530" type="curve"/>
      <point x="224" y="546"/>
      <point x="198" y="555"/>
      <point x="171" y="555" type="curve" smooth="yes"/>
      <point x="94" y="555"/>
      <point x="35" y="489"/>
      <point x="35" y="409" type="curve" smooth="yes"/>
      <point x="35" y="386" type="line"/>
      <point x="136" y="386" type="line"/>
      <point x="137" y="417"/>
      <point x="131" y="467"/>
      <point x="165" y="467" type="curve" smooth="yes"/>
      <point x="193" y="467"/>
      <point x="193" y="437"/>
      <point x="193" y="417" type="curve" smooth="yes"/>
      <point x="193" y="357" type="line"/>
      <point x="183" y="324"/>
      <point x="24" y="312"/>
      <point x="24" y="127" type="curve" smooth="yes"/>
      <point x="24" y="12"/>
      <point x="78" y="-8"/>
      <point x="105" y="-8" type="curve" smooth="yes"/>
      <point x="149" y="-8"/>
      <point x="185" y="20"/>
      <point x="213" y="56" type="curve"/>
      <point x="230" y="23"/>
      <point x="262" y="-8"/>
      <point x="323" y="-8" type="curve" smooth="yes"/>
      <point x="454" y="-8"/>
      <point x="454" y="133"/>
      <point x="454" y="133" type="curve"/>
      <point x="454" y="196" type="line"/>
    </contour>
    <contour>
      <point x="193" y="264" type="curve"/>
      <point x="193" y="124" type="line" smooth="yes"/>
      <point x="193" y="106"/>
      <point x="174" y="91"/>
      <point x="151" y="91" type="curve" smooth="yes"/>
      <point x="126" y="91"/>
      <point x="123" y="129"/>
      <point x="123" y="142" type="curve" smooth="yes"/>
      <point x="123" y="194"/>
      <point x="144" y="243"/>
    </contour>
    <contour>
      <point x="287" y="411" type="line"/>
      <point x="287" y="411"/>
      <point x="287" y="467"/>
      <point x="324" y="467" type="curve" smooth="yes"/>
      <point x="362" y="467"/>
      <point x="360" y="411"/>
      <point x="360" y="411" type="curve"/>
      <point x="360" y="334" type="line"/>
      <point x="287" y="334" type="line"/>
    </contour>
  </outline>
</glyph>
<glyph name="eacute" format="1">
  <advance width="322"/>
  <unicode hex="00E9"/>
  <outline>
    <contour>
      <point x="199" y="196" type="line"/>
      <point x="199" y="136" type="line"/>
      <point x="199" y="136"/>
      <point x="201" y="81"/>
      <point x="163" y="81" type="curve" smooth="yes"/>
      <point x="126" y="81"/>
      <point x="126" y="136"/>
      <point x="126" y="136" type="curve"/>
      <point x="126" y="255" type="line"/>
      <point x="293" y="255" type="line"/>
      <point x="293" y="414" type="line"/>
      <point x="293" y="414"/>
      <point x="294" y="555"/>
      <point x="163" y="555" type="curve" smooth="yes"/>
      <point x="33" y="555"/>
      <point x="32" y="411"/>
      <point x="32" y="411" type="curve"/>
      <point x="32" y="136" type="line"/>
      <point x="32" y="136"/>
      <point x="32" y="-8"/>
      <point x="162" y="-8" type="curve" smooth="yes"/>
      <point x="293" y="-8"/>
      <point x="293" y="133"/>
      <point x="293" y="133" type="curve"/>
      <point x="293" y="196" type="line"/>
    </contour>
    <contour>
      <point x="126" y="411" type="line"/>
      <point x="126" y="411"/>
      <point x="126" y="467"/>
      <point x="163" y="467" type="curve" smooth="yes"/>
      <point x="201" y="467"/>
      <point x="199" y="411"/>
      <point x="199" y="411" type="curve"/>
      <point x="199" y="334" type="line"/>
      <point x="126" y="334" type="line"/>
    </contour>
    <contour>
      <point x="181" y="727" type="line"/>
      <point x="129" y="637" type="line"/>
      <point x="207" y="637" type="line"/>
      <point x="286" y="727" type="line"/>
    </contour>
  </outline>
</glyph>
<glyph name="ecircumflex" format="1">
  <advance width="322"/>
  <unicode hex="00EA"/>
  <outline>
    <contour>
      <point x="199" y="196" type="line"/>
      <point x="199" y="136" type="line"/>
      <point x="199" y="136"/>
      <point x="201" y="81"/>
      <point x="163" y="81" type="curve" smooth="yes"/>
      <point x="126" y="81"/>
      <point x="126" y="136"/>
      <point x="126" y="136" type="curve"/>
      <point x="126" y="255" type="line"/>
      <point x="293" y="255" type="line"/>
      <point x="293" y="414" type="line"/>
      <point x="293" y="414"/>
      <point x="294" y="555"/>
      <point x="163" y="555" type="curve" smooth="yes"/>
      <point x="33" y="555"/>
      <point x="32" y="411"/>
      <point x="32" y="411" type="curve"/>
      <point x="32" y="136" type="line"/>
      <point x="32" y="136"/>
      <point x="32" y="-8"/>
      <point x="162" y="-8" type="curve" smooth="yes"/>
      <point x="293" y="-8"/>
      <point x="293" y="133"/>
      <point x="293" y="133" type="curve"/>
      <point x="293" y="196" type="line"/>
    </contour>
    <contour>
      <point x="126" y="411" type="line"/>
      <point x="126" y="411"/>
      <point x="126" y="467"/>
      <point x="163" y="467" type="curve" smooth="yes"/>
      <point x="201" y="467"/>
      <point x="199" y="411"/>
      <point x="199" y="411" type="curve"/>
      <point x="199" y="334" type="line"/>
      <point x="126" y="334" type="line"/>
    </contour>
    <contour>
      <point x="108" y="727" type="line"/>
      <point x="39" y="637" type="line"/>
      <point x="131" y="637" type="line"/>
      <point x="161" y="672" type="line"/>
      <point x="192" y="637" type="line"/>
      <point x="284" y="637" type="line"/>
      <point x="215" y="727" type="line"/>
    </contour>
  </outline>
</glyph>
<glyph name="eth" format="1">
  <advance width="329"/>
  <unicode hex="00F0"/>
  <outline>
    <contour>
      <point x="132" y="687" type="line"/>
      <point x="132" y="687"/>
      <point x="142" y="677"/>
      <point x="154" y="655" type="curve"/>
      <point x="105" y="612" type="line"/>
      <point x="132" y="581" type="line"/>
      <point x="172" y="616" type="line"/>
      <point x="182" y="591"/>
      <point x="192" y="558"/>
      <point x="197" y="517" type="curve"/>
      <point x="171" y="539"/>
      <point x="143" y="555"/>
      <point x="121" y="555" type="curve" smooth="yes"/>
      <point x="34" y="555"/>
      <point x="37" y="439"/>
      <point x="37" y="419" type="curve" smooth="yes"/>
      <point x="37" y="136" type="line"/>
      <point x="37" y="136"/>
      <point x="36" y="-8"/>
      <point x="166" y="-8" type="curve" smooth="yes"/>
      <point x="297" y="-8"/>
      <point x="296" y="133"/>
      <point x="296" y="133" type="curve"/>
      <point x="296" y="453" type="line" smooth="yes"/>
      <point x="296" y="552"/>
      <point x="265" y="623"/>
      <point x="235" y="671" type="curve"/>
      <point x="284" y="714" type="line"/>
      <point x="257" y="746" type="line"/>
      <point x="211" y="706" type="line"/>
      <point x="197" y="723"/>
      <point x="185" y="736"/>
      <point x="185" y="736" type="curve"/>
    </contour>
    <contour>
      <point x="201" y="136" type="line"/>
      <point x="201" y="136"/>
      <point x="204" y="81"/>
      <point x="166" y="81" type="curve" smooth="yes"/>
      <point x="129" y="81"/>
      <point x="132" y="136"/>
      <point x="132" y="136" type="curve"/>
      <point x="132" y="411" type="line"/>
      <point x="132" y="411"/>
      <point x="129" y="467"/>
      <point x="166" y="467" type="curve" smooth="yes"/>
      <point x="204" y="467"/>
      <point x="201" y="411"/>
      <point x="201" y="411" type="curve"/>
    </contour>
  </outline>
</glyph>
<glyph name="ntilde" format="1">
  <advance width="337"/>
  <unicode hex="00F1"/>
  <outline>
    <contour>
      <point x="198" y="433" type="curve" smooth="yes"/>
      <point x="198" y="0" type="line"/>
      <point x="299" y="0" type="line"/>
      <point x="299" y="448" type="line" smooth="yes"/>
      <point x="299" y="493"/>
      <point x="277" y="555"/>
      <point x="223" y="555" type="curve" smooth="yes"/>
      <point x="188" y="555"/>
      <point x="149" y="506"/>
      <point x="141" y="501" type="curve"/>
      <point x="141" y="547" type="line"/>
      <point x="40" y="547" type="line"/>
      <point x="40" y="0" type="line"/>
      <point x="141" y="0" type="line"/>
      <point x="141" y="114"/>
      <point x="141" y="121"/>
      <point x="141" y="431" type="curve"/>
      <point x="141" y="431"/>
      <point x="154" y="457"/>
      <point x="174" y="457" type="curve" smooth="yes"/>
      <point x="186" y="457"/>
      <point x="198" y="454"/>
    </contour>
    <contour>
      <point x="213" y="634" type="curve" smooth="yes"/>
      <point x="241" y="634"/>
      <point x="266" y="653"/>
      <point x="266" y="653" type="curve"/>
      <point x="266" y="727" type="line"/>
      <point x="266" y="727"/>
      <point x="241" y="711"/>
      <point x="213" y="711" type="curve"/>
      <point x="182" y="713"/>
      <point x="156" y="730"/>
      <point x="125" y="730" type="curve" smooth="yes"/>
      <point x="96" y="730"/>
      <point x="72" y="711"/>
      <point x="72" y="711" type="curve"/>
      <point x="72" y="637" type="line"/>
      <point x="72" y="637"/>
      <point x="97" y="653"/>
      <point x="125" y="653" type="curve" smooth="yes"/>
      <point x="157" y="652"/>
      <point x="183" y="634"/>
    </contour>
  </outline>
</glyph>
<glyph name="ograve" format="1">
  <advance width="321"/>
  <unicode hex="00F2"/>
  <outline>
    <contour>
      <point x="290" y="414" type="line"/>
      <point x="290" y="414"/>
      <point x="291" y="555"/>
      <point x="160" y="555" type="curve" smooth="yes"/>
      <point x="30" y="555"/>
      <point x="31" y="411"/>
      <point x="31" y="411" type="curve"/>
      <point x="31" y="136" type="line"/>
      <point x="31" y="136"/>
      <point x="30" y="-8"/>
      <point x="160" y="-8" type="curve" smooth="yes"/>
      <point x="291" y="-8"/>
      <point x="290" y="133"/>
      <point x="290" y="133" type="curve"/>
    </contour>
    <contour>
      <point x="195" y="136" type="line"/>
      <point x="195" y="136"/>
      <point x="198" y="81"/>
      <point x="160" y="81" type="curve" smooth="yes"/>
      <point x="123" y="81"/>
      <point x="126" y="136"/>
      <point x="126" y="136" type="curve"/>
      <point x="126" y="411" type="line"/>
      <point x="126" y="411"/>
      <point x="123" y="467"/>
      <point x="160" y="467" type="curve" smooth="yes"/>
      <point x="198" y="467"/>
      <point x="195" y="411"/>
      <point x="195" y="411" type="curve"/>
    </contour>
    <contour>
      <point x="48" y="727" type="line"/>
      <point x="127" y="637" type="line"/>
      <point x="205" y="637" type="line"/>
      <point x="153" y="727" type="line"/>
    </contour>
  </outline>
</glyph>
<glyph name="otilde" format="1">
  <advance width="321"/>
  <unicode hex="00F5"/>
  <outline>
    <contour>
      <point x="290" y="414" type="line"/>
      <point x="290" y="414"/>
      <point x="291" y="555"/>
      <point x="160" y="555" type="curve" smooth="yes"/>
      <point x="30" y="555"/>
      <point x="31" y="411"/>
      <point x="31" y="411" type="curve"/>
      <point x="31" y="136" type="line"/>
      <point x="31" y="136"/>
      <point x="30" y="-8"/>
      <point x="160" y="-8" type="curve" smooth="yes"/>
      <point x="291" y="-8"/>
      <point x="290" y="133"/>
      <point x="290" y="133" type="curve"/>
    </contour>
    <contour>
      <point x="195" y="136" type="line"/>
      <point x="195" y="136"/>
      <point x="198" y="81"/>
      <point x="160" y="81" type="curve" smooth="yes"/>
      <point x="123" y="81"/>
      <point x="126" y="136"/>
      <point x="126" y="136" type="curve"/>
      <point x="126" y="411" type="line"/>
      <point x="126" y="411"/>
      <point x="123" y="467"/>
      <point x="160" y="467" type="curve" smooth="yes"/>
      <point x="198" y="467"/>
      <point x="195" y="411"/>
      <point x="195" y="411" type="curve"/>
    </contour>
    <contour>
      <point x="205" y="634" type="curve" smooth="yes"/>
      <point x="233" y="634"/>
      <point x="258" y="653"/>
      <point x="258" y="653" type="curve"/>
      <point x="258" y="727" type="line"/>
      <point x="258" y="727"/>
      <point x="233" y="711"/>
      <point x="205" y="711" type="curve"/>
      <point x="174" y="713"/>
      <point x="148" y="730"/>
      <point x="117" y="730" type="curve" smooth="yes"/>
      <point x="88" y="730"/>
      <point x="64" y="711"/>
      <point x="64" y="711" type="curve"/>
      <point x="64" y="637" type="line"/>
      <point x="64" y="637"/>
      <point x="89" y="653"/>
      <point x="117" y="653" type="curve" smooth="yes"/>
      <point x="149" y="652"/>
      <point x="175" y="634"/>
    </contour>
  </outline>
</glyph>
<glyph name="odieresis" format="1">
  <advance width="321"/>
  <unicode hex="00F6"/>
  <outline>
    <contour>
      <point x="290" y="414" type="line"/>
      <point x="290" y="414"/>
      <point x="291" y="555"/>
      <point x="160" y="555" type="curve" smooth="yes"/>
      <point x="30" y="555"/>
      <point x="31" y="411"/>
      <point x="31" y="411" type="curve"/>
      <point x="31" y="136" type="line"/>
      <point x="31" y="136"/>
      <point x="30" y="-8"/>
      <point x="160" y="-8" type="curve" smooth="yes"/>
      <point x="291" y="-8"/>
      <point x="290" y="133"/>
      <point x="290" y="133" type="curve"/>
    </contour>
    <contour>
      <point x="195" y="136" type="line"/>
      <point x="195" y="136"/>
      <point x="198" y="81"/>
      <point x="160" y="81" type="curve" smooth="yes"/>
      <point x="123" y="81"/>
      <point x="126" y="136"/>
      <point x="126" y="136" type="curve"/>
      <point x="126" y="411" type="line"/>
      <point x="126" y="411"/>
      <point x="123" y="467"/>
      <point x="160" y="467" type="curve" smooth="yes"/>
      <point x="198" y="467"/>
      <point x="195" y="411"/>
      <point x="195" y="411" type="curve"/>
    </contour>
    <contour>
      <point x="44" y="637" type="line"/>
      <point x="137" y="637" type="line"/>
      <point x="137" y="735" type="line"/>
      <point x="44" y="735" type="line"/>
    </contour>
    <contour>
      <point x="185" y="637" type="line"/>
      <point x="278" y="637" type="line"/>
      <point x="278" y="735" type="line"/>
      <point x="185" y="735" type="line"/>
    </contour>
  </outline>
</glyph>
<glyph name="oslash" format="1">
  <advance width="321"/>
  <unicode hex="00F8"/>
  <outline>
    <contour>
      <point x="100" y="-38" type="line"/>
      <point x="110" y="0" type="line"/>
      <point x="124" y="-5"/>
      <point x="140" y="-8"/>
      <point x="160" y="-8" type="curve" smooth="yes"/>
      <point x="291" y="-8"/>
      <point x="290" y="133"/>
      <point x="290" y="133" type="curve"/>
      <point x="290" y="414" type="line"/>
      <point x="290" y="414"/>
      <point x="290" y="485"/>
      <point x="244" y="526" type="curve"/>
      <point x="259" y="585" type="line"/>
      <point x="222" y="585" type="line"/>
      <point x="212" y="546" type="line"/>
      <point x="197" y="551"/>
      <point x="180" y="555"/>
      <point x="160" y="555" type="curve" smooth="yes"/>
      <point x="30" y="555"/>
      <point x="31" y="411"/>
      <point x="31" y="411" type="curve"/>
      <point x="31" y="136" type="line"/>
      <point x="31" y="136"/>
      <point x="30" y="63"/>
      <point x="76" y="21" type="curve"/>
      <point x="61" y="-38" type="line"/>
    </contour>
    <contour>
      <point x="126" y="411" type="line"/>
      <point x="126" y="411"/>
      <point x="123" y="467"/>
      <point x="160" y="467" type="curve" smooth="yes"/>
      <point x="174" y="467"/>
      <point x="182" y="460"/>
      <point x="187" y="450" type="curve"/>
      <point x="126" y="213" type="line"/>
    </contour>
    <contour>
      <point x="134" y="96" type="curve"/>
      <point x="195" y="333" type="line"/>
      <point x="195" y="136" type="line"/>
      <point x="195" y="136"/>
      <point x="198" y="81"/>
      <point x="160" y="81" type="curve" smooth="yes"/>
      <point x="147" y="81"/>
      <point x="139" y="87"/>
    </contour>
  </outline>
</glyph>
<glyph name="ucircumflex" format="1">
  <advance width="337"/>
  <unicode hex="00FB"/>
  <outline>
    <contour>
      <point x="139" y="114" type="curve" smooth="yes"/>
      <point x="139" y="547" type="line"/>
      <point x="38" y="547" type="line"/>
      <point x="38" y="99" type="line" smooth="yes"/>
      <point x="38" y="54"/>
      <point x="60" y="-8"/>
      <point x="114" y="-8" type="curve" smooth="yes"/>
      <point x="149" y="-8"/>
      <point x="188" y="41"/>
      <point x="196" y="46" type="curve"/>
      <point x="196" y="0" type="line"/>
      <point x="297" y="0" type="line"/>
      <point x="297" y="547" type="line"/>
      <point x="196" y="547" type="line"/>
      <point x="196" y="433"/>
      <point x="196" y="426"/>
      <point x="196" y="116" type="curve"/>
      <point x="196" y="116"/>
      <point x="183" y="90"/>
      <point x="163" y="90" type="curve" smooth="yes"/>
      <point x="151" y="90"/>
      <point x="139" y="93"/>
    </contour>
    <contour>
      <point x="115" y="727" type="line"/>
      <point x="46" y="637" type="line"/>
      <point x="138" y="637" type="line"/>
      <point x="168" y="672" type="line"/>
      <point x="199" y="637" type="line"/>
      <point x="291" y="637" type="line"/>
      <point x="222" y="727" type="line"/>
    </contour>
  </outline>
</glyph>
<glyph name="udieresis" format="1">
  <advance width="337"/>
  <unicode hex="00FC"/>
  <outline>
    <contour>
      <point x="139" y="114" type="curve" smooth="yes"/>
      <point x="139" y="547" type="line"/>
      <point x="38" y="547" type="line"/>
      <point x="38" y="99" type="line" smooth="yes"/>
      <point x="38" y="54"/>
      <point x="60" y="-8"/>
      <point x="114" y="-8" type="curve" smooth="yes"/>
      <point x="149" y="-8"/>
      <point x="188" y="41"/>
      <point x="196" y="46" type="curve"/>
      <point x="196" y="0" type="line"/>
      <point x="297" y="0" type="line"/>
      <point x="297" y="547" type="line"/>
      <point x="196" y="547" type="line"/>
      <point x="196" y="433"/>
      <point x="196" y="426"/>
      <point x="196" y="116" type="curve"/>
      <point x="196" y="116"/>
      <point x="183" y="90"/>
      <point x="163" y="90" type="curve" smooth="yes"/>
      <point x="151" y="90"/>
      <point x="139" y="93"/>
    </contour>
    <contour>
      <point x="52" y="637" type="line"/>
      <point x="145" y="637" type="line"/>
      <point x="145" y="735" type="line"/>
      <point x="52" y="735" type="line"/>
    </contour>
    <contour>
      <point x="193" y="637" type="line"/>
      <point x="286" y="637" type="line"/>
      <point x="286" y="735" type="line"/>
      <point x="193" y="735" type="line"/>
    </contour>
  </outline>
</glyph>
<glyph name="yacute" format="1">
  <advance width="310"/>
  <unicode hex="00FD"/>
  <outline>
    <contour>
      <point x="16" y="-104" type="line"/>
      <point x="16" y="-104"/>
      <point x="24" y="-106"/>
      <point x="40" y="-106" type="curve"/>
      <point x="82" y="-102"/>
      <point x="105" y="-56"/>
      <point x="105" y="-16" type="curve"/>
      <point x="12" y="547" type="line"/>
      <point x="111" y="547" type="line"/>
      <point x="151" y="211" type="line"/>
      <point x="153" y="183" type="line"/>
      <point x="157" y="183" type="line"/>
      <point x="159" y="211" type="line"/>
      <point x="199" y="547" type="line"/>
      <point x="298" y="547" type="line"/>
      <point x="201" y="-41" type="line" smooth="yes"/>
      <point x="191" y="-117"/>
      <point x="141" y="-196"/>
      <point x="61" y="-196" type="curve" smooth="yes"/>
      <point x="50" y="-196"/>
      <point x="16" y="-194"/>
      <point x="16" y="-194" type="curve"/>
    </contour>
    <contour>
      <point x="165" y="727" type="line"/>
      <point x="113" y="637" type="line"/>
      <point x="191" y="637" type="line"/>
      <point x="270" y="727" type="line"/>
    </contour>
  </outline>
</glyph>
<glyph name="thorn" format="1">
  <advance width="335"/>
  <unicode hex="00FE"/>
  <outline>
    <contour>
      <point x="40" y="-188" type="line"/>
      <point x="141" y="-188" type="line"/>
      <point x="141" y="36" type="line"/>
      <point x="141" y="36"/>
      <point x="184" y="-8"/>
      <point x="221" y="-8" type="curve" smooth="yes"/>
      <point x="276" y="-8"/>
      <point x="299" y="54"/>
      <point x="299" y="99" type="curve" smooth="yes"/>
      <point x="299" y="448" type="line" smooth="yes"/>
      <point x="299" y="493"/>
      <point x="276" y="555"/>
      <point x="221" y="555" type="curve" smooth="yes"/>
      <point x="184" y="555"/>
      <point x="141" y="511"/>
      <point x="141" y="511" type="curve"/>
      <point x="141" y="735" type="line"/>
      <point x="40" y="735" type="line"/>
    </contour>
    <contour>
      <point x="141" y="446"/>
      <point x="157" y="460"/>
      <point x="171" y="460" type="curve" smooth="yes"/>
      <point x="186" y="460"/>
      <point x="198" y="446"/>
      <point x="198" y="427" type="curve" smooth="yes"/>
      <point x="198" y="120" type="line" smooth="yes"/>
      <point x="198" y="101"/>
      <point x="186" y="87"/>
      <point x="171" y="87" type="curve" smooth="yes"/>
      <point x="156" y="87"/>
      <point x="141" y="104"/>
      <point x="141" y="120" type="curve" smooth="yes"/>
      <point x="141" y="225"/>
      <point x="141" y="303"/>
      <point x="141" y="427" type="curve" smooth="yes"/>
    </contour>
  </outline>
</glyph>
<glyph name="ydieresis" format="1">
  <advance width="310"/>
  <unicode hex="00FF"/>
  <outline>
    <contour>
      <point x="16" y="-194" type="line"/>
      <point x="16" y="-194"/>
      <point x="50" y="-196"/>
      <point x="61" y="-196" type="curve" smooth="yes"/>
      <point x="141" y="-196"/>
      <point x="191" y="-117"/>
      <point x="201" y="-41" type="curve" smooth="yes"/>
      <point x="298" y="547" type="line"/>
      <point x="199" y="547" type="line"/>
      <point x="159" y="211" type="line"/>
      <point x="157" y="183" type="line"/>
      <point x="153" y="183" type="line"/>
      <point x="151" y="211" type="line"/>
      <point x="111" y="547" type="line"/>
      <point x="12" y="547" type="line"/>
      <point x="105" y="-16" type="line"/>
      <point x="105" y="-56"/>
      <point x="82" y="-102"/>
      <point x="40" y="-106" type="curve"/>
      <point x="24" y="-106"/>
      <point x="16" y="-104"/>
      <point x="16" y="-104" type="curve"/>
    </contour>
    <contour>
      <point x="38" y="637" type="line"/>
      <point x="131" y="637" type="line"/>
      <point x="131" y="735" type="line"/>
      <point x="38" y="735" type="line"/>
    </contour>
    <contour>
      <point x="179" y="637" type="line"/>
      <point x="272" y="637" type="line"/>
      <point x="272" y="735" type="line"/>
      <point x="179" y="735" type="line"/>
    </contour>
  </outline>
</glyph>
<glyph name="Abreve" format="1">
  <advance width="374"/>
  <unicode hex="0102"/>
  <outline>
    <contour>
      <point x="10" y="0" type="line"/>
      <point x="115" y="0" type="line"/>
      <point x="135" y="150" type="line"/>
      <point x="239" y="150" type="line"/>
      <point x="259" y="0" type="line"/>
      <point x="364" y="0" type="line"/>
      <point x="253" y="735" type="line"/>
      <point x="121" y="735" type="line"/>
    </contour>
    <contour>
      <point x="193" y="496" type="line"/>
      <point x="224" y="264" type="line"/>
      <point x="150" y="264" type="line"/>
      <point x="181" y="496" type="line"/>
      <point x="184" y="515" type="line"/>
      <point x="190" y="515" type="line"/>
    </contour>
    <contour>
      <point x="297" y="847" type="curve"/>
      <point x="245" y="893" type="line"/>
      <point x="245" y="893"/>
      <point x="225" y="870"/>
      <point x="187" y="870" type="curve" smooth="yes"/>
      <point x="151" y="870"/>
      <point x="131" y="893"/>
      <point x="131" y="893" type="curve"/>
      <point x="77" y="847" type="line"/>
      <point x="77" y="847"/>
      <point x="117" y="800"/>
      <point x="187" y="800" type="curve" smooth="yes"/>
      <point x="255" y="800"/>
      <point x="297" y="847"/>
    </contour>
  </outline>
</glyph>
<glyph name="Aogonek" format="1">
  <advance width="374"/>
  <unicode hex="0104"/>
  <outline>
    <contour>
      <point x="10" y="0" type="line"/>
      <point x="115" y="0" type="line"/>
      <point x="135" y="150" type="line"/>
      <point x="239" y="150" type="line"/>
      <point x="259" y="0" type="line"/>
      <point x="364" y="0" type="line"/>
      <point x="253" y="735" type="line"/>
      <point x="121" y="735" type="line"/>
    </contour>
    <contour>
      <point x="193" y="496" type="line"/>
      <point x="224" y="264" type="line"/>
      <point x="150" y="264" type="line"/>
      <point x="181" y="496" type="line"/>
      <point x="184" y="515" type="line"/>
      <point x="190" y="515" type="line"/>
    </contour>
    <contour>
      <point x="333" y="-188" type="curve" smooth="yes"/>
      <point x="350" y="-188"/>
      <point x="363" y="-186"/>
      <point x="384" y="-179" type="curve"/>
      <point x="392" y="-112" type="line"/>
      <point x="380" y="-117"/>
      <point x="367" y="-121"/>
      <point x="350" y="-121" type="curve" smooth="yes"/>
      <point x="328" y="-121"/>
      <point x="300" y="-112"/>
      <point x="300" y="-83" type="curve" smooth="yes"/>
      <point x="300" y="-35"/>
      <point x="345" y="0"/>
      <point x="345" y="0" type="curve"/>
      <point x="297" y="0" type="line"/>
      <point x="297" y="0"/>
      <point x="231" y="-47"/>
      <point x="231" y="-103" type="curve" smooth="yes"/>
      <point x="231" y="-148"/>
      <point x="268" y="-188"/>
    </contour>
  </outline>
</glyph>
<glyph name="aogonek" format="1">
  <advance width="333"/>
  <unicode hex="0105"/>
  <outline>
    <contour>
      <point x="193" y="264" type="curve"/>
      <point x="193" y="124" type="line" smooth="yes"/>
      <point x="193" y="106"/>
      <point x="174" y="91"/>
      <point x="151" y="91" type="curve" smooth="yes"/>
      <point x="126" y="91"/>
      <point x="123" y="129"/>
      <point x="123" y="142" type="curve" smooth="yes"/>
      <point x="123" y="194"/>
      <point x="144" y="243"/>
    </contour>
    <contour>
      <point x="105" y="-8" type="curve" smooth="yes"/>
      <point x="146" y="-8"/>
      <point x="176" y="25"/>
      <point x="186" y="44" type="curve"/>
      <point x="193" y="44" type="line"/>
      <point x="193" y="38"/>
      <point x="193" y="10"/>
      <point x="202" y="0" type="curve"/>
      <point x="202" y="0"/>
      <point x="205" y="0"/>
      <point x="301" y="0" type="curve"/>
      <point x="297" y="24"/>
      <point x="294" y="46"/>
      <point x="294" y="95" type="curve" smooth="yes"/>
      <point x="294" y="132"/>
      <point x="294" y="225"/>
      <point x="294" y="260" type="curve" smooth="yes"/>
      <point x="294" y="431" type="line" smooth="yes"/>
      <point x="294" y="502"/>
      <point x="237" y="555"/>
      <point x="171" y="555" type="curve" smooth="yes"/>
      <point x="94" y="555"/>
      <point x="35" y="489"/>
      <point x="35" y="409" type="curve" smooth="yes"/>
      <point x="35" y="405"/>
      <point x="35" y="386"/>
      <point x="35" y="386" type="curve"/>
      <point x="136" y="386" type="line"/>
      <point x="137" y="417"/>
      <point x="131" y="467"/>
      <point x="165" y="467" type="curve" smooth="yes"/>
      <point x="193" y="467"/>
      <point x="193" y="437"/>
      <point x="193" y="417" type="curve" smooth="yes"/>
      <point x="193" y="407"/>
      <point x="193" y="381"/>
      <point x="193" y="375" type="curve" smooth="yes"/>
      <point x="193" y="370"/>
      <point x="193" y="363"/>
      <point x="193" y="357" type="curve"/>
      <point x="183" y="324"/>
      <point x="24" y="312"/>
      <point x="24" y="127" type="curve" smooth="yes"/>
      <point x="24" y="12"/>
      <point x="78" y="-8"/>
    </contour>
    <contour>
      <point x="275" y="-188" type="curve" smooth="yes"/>
      <point x="292" y="-188"/>
      <point x="305" y="-186"/>
      <point x="326" y="-179" type="curve"/>
      <point x="334" y="-112" type="line"/>
      <point x="322" y="-117"/>
      <point x="309" y="-121"/>
      <point x="292" y="-121" type="curve" smooth="yes"/>
      <point x="270" y="-121"/>
      <point x="242" y="-112"/>
      <point x="242" y="-83" type="curve" smooth="yes"/>
      <point x="242" y="-35"/>
      <point x="287" y="0"/>
      <point x="287" y="0" type="curve"/>
      <point x="239" y="0" type="line"/>
      <point x="239" y="0"/>
      <point x="173" y="-47"/>
      <point x="173" y="-103" type="curve" smooth="yes"/>
      <point x="173" y="-148"/>
      <point x="210" y="-188"/>
    </contour>
  </outline>
</glyph>
<glyph name="Cacute" format="1">
  <advance width="346"/>
  <unicode hex="0106"/>
  <outline>
    <contour>
      <point x="321" y="252" type="line"/>
      <point x="220" y="252" type="line"/>
      <point x="220" y="151" type="line"/>
      <point x="220" y="151"/>
      <point x="224" y="97"/>
      <point x="179" y="97" type="curve" smooth="yes"/>
      <point x="141" y="97"/>
      <point x="141" y="151"/>
      <point x="141" y="151" type="curve"/>
      <point x="141" y="584" type="line"/>
      <point x="141" y="584"/>
      <point x="141" y="638"/>
      <point x="179" y="638" type="curve" smooth="yes"/>
      <point x="224" y="638"/>
      <point x="220" y="584"/>
      <point x="220" y="584" type="curve"/>
      <point x="220" y="483" type="line"/>
      <point x="220" y="483"/>
      <point x="321" y="483"/>
      <point x="321" y="483" type="curve"/>
      <point x="321" y="584" type="line"/>
      <point x="321" y="584"/>
      <point x="322" y="743"/>
      <point x="177" y="743" type="curve" smooth="yes"/>
      <point x="32" y="743"/>
      <point x="33" y="584"/>
      <point x="33" y="584" type="curve"/>
      <point x="33" y="151" type="line"/>
      <point x="33" y="151"/>
      <point x="32" y="-8"/>
      <point x="177" y="-8" type="curve" smooth="yes"/>
      <point x="322" y="-8"/>
      <point x="321" y="151"/>
      <point x="321" y="151" type="curve"/>
    </contour>
    <contour>
      <point x="295" y="898" type="line"/>
      <point x="190" y="898" type="line"/>
      <point x="138" y="808" type="line"/>
      <point x="216" y="808" type="line"/>
    </contour>
  </outline>
</glyph>
<glyph name="cdotaccent" format="1">
  <advance width="315"/>
  <unicode hex="010B"/>
  <outline>
    <contour>
      <point x="133" y="126" type="curve" smooth="yes"/>
      <point x="133" y="421" type="line" smooth="yes"/>
      <point x="133" y="441"/>
      <point x="134" y="465"/>
      <point x="161" y="465" type="curve" smooth="yes"/>
      <point x="184" y="465"/>
      <point x="190" y="454"/>
      <point x="190" y="421" type="curve" smooth="yes"/>
      <point x="190" y="355" type="line"/>
      <point x="291" y="355" type="line"/>
      <point x="291" y="398" type="line" smooth="yes"/>
      <point x="291" y="520"/>
      <point x="246" y="555"/>
      <point x="161" y="555" type="curve" smooth="yes"/>
      <point x="88" y="555"/>
      <point x="32" y="515"/>
      <point x="32" y="393" type="curve" smooth="yes"/>
      <point x="32" y="154" type="line" smooth="yes"/>
      <point x="32" y="32"/>
      <point x="88" y="-8"/>
      <point x="161" y="-8" type="curve" smooth="yes"/>
      <point x="246" y="-8"/>
      <point x="291" y="27"/>
      <point x="291" y="149" type="curve" smooth="yes"/>
      <point x="291" y="202" type="line"/>
      <point x="190" y="202" type="line"/>
      <point x="190" y="126" type="line" smooth="yes"/>
      <point x="190" y="93"/>
      <point x="184" y="82"/>
      <point x="161" y="82" type="curve" smooth="yes"/>
      <point x="134" y="82"/>
      <point x="133" y="106"/>
    </contour>
    <contour>
      <point x="111" y="721" type="line"/>
      <point x="111" y="620" type="line"/>
      <point x="212" y="620" type="line"/>
      <point x="212" y="721" type="line"/>
    </contour>
  </outline>
</glyph>
<glyph name="Dcaron" format="1">
  <advance width="372"/>
  <unicode hex="010E"/>
  <outline>
    <contour>
      <point x="125" y="735" type="curve" smooth="yes"/>
      <point x="40" y="735" type="line"/>
      <point x="40" y="0" type="line"/>
      <point x="125" y="0" type="line" smooth="yes"/>
      <point x="325" y="1"/>
      <point x="340" y="80"/>
      <point x="340" y="367" type="curve" smooth="yes"/>
      <point x="340" y="655"/>
      <point x="325" y="734"/>
    </contour>
    <contour>
      <point x="148" y="108" type="curve"/>
      <point x="148" y="627" type="line"/>
      <point x="224" y="627"/>
      <point x="229" y="608"/>
      <point x="228" y="368" type="curve"/>
      <point x="229" y="127"/>
      <point x="224" y="108"/>
    </contour>
    <contour>
      <point x="121" y="800" type="line"/>
      <point x="228" y="800" type="line"/>
      <point x="297" y="890" type="line"/>
      <point x="205" y="890" type="line"/>
      <point x="174" y="855" type="line"/>
      <point x="144" y="890" type="line"/>
      <point x="52" y="890" type="line"/>
    </contour>
  </outline>
</glyph>
<glyph name="dcaron" format="1">
  <advance width="490"/>
  <unicode hex="010F"/>
  <outline>
    <contour>
      <point x="450" y="735" type="line"/>
      <point x="345" y="735" type="line"/>
      <point x="345" y="624" type="line"/>
      <point x="380" y="624" type="line"/>
      <point x="345" y="494" type="line"/>
      <point x="395" y="494" type="line"/>
      <point x="450" y="624" type="line"/>
    </contour>
    <contour>
      <point x="295.0" y="735.0" type="line"/>
      <point x="194.0" y="735.0" type="line"/>
      <point x="194.0" y="511.0" type="line"/>
      <point x="194.0" y="511.0"/>
      <point x="151.0" y="555.0"/>
      <point x="114.0" y="555.0" type="curve" smooth="yes"/>
      <point x="59.0" y="555.0"/>
      <point x="36.0" y="493.0"/>
      <point x="36.0" y="448.0" type="curve" smooth="yes"/>
      <point x="36.0" y="99.0" type="line" smooth="yes"/>
      <point x="36.0" y="54.0"/>
      <point x="59.0" y="-8.0"/>
      <point x="114.0" y="-8.0" type="curve" smooth="yes"/>
      <point x="151.0" y="-8.0"/>
      <point x="194.0" y="36.0"/>
      <point x="194.0" y="36.0" type="curve"/>
      <point x="194.0" y="0.0" type="line"/>
      <point x="295.0" y="0.0" type="line"/>
    </contour>
    <contour>
      <point x="164.0" y="87.0" type="curve" smooth="yes"/>
      <point x="149.0" y="87.0"/>
      <point x="137.0" y="101.0"/>
      <point x="137.0" y="120.0" type="curve" smooth="yes"/>
      <point x="137.0" y="427.0" type="line" smooth="yes"/>
      <point x="137.0" y="446.0"/>
      <point x="149.0" y="460.0"/>
      <point x="164.0" y="460.0" type="curve" smooth="yes"/>
      <point x="179.0" y="460.0"/>
      <point x="194.0" y="443.0"/>
      <point x="194.0" y="427.0" type="curve" smooth="yes"/>
      <point x="194.0" y="322.0"/>
      <point x="194.0" y="244.0"/>
      <point x="194.0" y="120.0" type="curve" smooth="yes"/>
      <point x="194.0" y="101.0"/>
      <point x="178.0" y="87.0"/>
    </contour>
  </outline>
</glyph>
<glyph name="Dcroat" format="1">
  <advance width="372"/>
  <unicode hex="0110"/>
  <outline>
    <contour>
      <point x="10.0" y="320.0" type="line"/>
      <point x="40.0" y="320.0" type="line"/>
      <point x="40.0" y="0.0" type="line"/>
      <point x="125.0" y="0.0" type="line" smooth="yes"/>
      <point x="325.0" y="1.0"/>
      <point x="340.0" y="80.0"/>
      <point x="340.0" y="367.0" type="curve" smooth="yes"/>
      <point x="340.0" y="655.0"/>
      <point x="325.0" y="734.0"/>
      <point x="125.0" y="735.0" type="curve" smooth="yes"/>
      <point x="40.0" y="735.0" type="line"/>
      <point x="40.0" y="431.0" type="line"/>
      <point x="10.0" y="431.0" type="line"/>
    </contour>
    <contour>
      <point x="148.0" y="627.0" type="line"/>
      <point x="224.0" y="627.0"/>
      <point x="229.0" y="608.0"/>
      <point x="228.0" y="368.0" type="curve" smooth="yes"/>
      <point x="229.0" y="127.0"/>
      <point x="224.0" y="108.0"/>
      <point x="148.0" y="108.0" type="curve"/>
      <point x="148.0" y="320.0" type="line"/>
      <point x="189.0" y="320.0" type="line"/>
      <point x="189.0" y="431.0" type="line"/>
      <point x="148.0" y="431.0" type="line"/>
    </contour>
  </outline>
</glyph>
<glyph name="dcroat" format="1">
  <advance width="335"/>
  <unicode hex="0111"/>
  <outline>
    <contour>
      <point x="295" y="735" type="line"/>
      <point x="194" y="735" type="line"/>
      <point x="194" y="670" type="line"/>
      <point x="153" y="670" type="line"/>
      <point x="153" y="600" type="line"/>
      <point x="194" y="600" type="line"/>
      <point x="194" y="511" type="line"/>
      <point x="194" y="511"/>
      <point x="151" y="555"/>
      <point x="114" y="555" type="curve" smooth="yes"/>
      <point x="59" y="555"/>
      <point x="36" y="493"/>
      <point x="36" y="448" type="curve" smooth="yes"/>
      <point x="36" y="99" type="line" smooth="yes"/>
      <point x="36" y="54"/>
      <point x="59" y="-8"/>
      <point x="114" y="-8" type="curve" smooth="yes"/>
      <point x="151" y="-8"/>
      <point x="194" y="36"/>
      <point x="194" y="36" type="curve"/>
      <point x="194" y="0" type="line"/>
      <point x="295" y="0" type="line"/>
      <point x="295" y="600" type="line"/>
      <point x="325" y="600" type="line"/>
      <point x="325" y="670" type="line"/>
      <point x="295" y="670" type="line"/>
    </contour>
    <contour>
      <point x="164.0" y="87.0" type="curve" smooth="yes"/>
      <point x="149.0" y="87.0"/>
      <point x="137.0" y="101.0"/>
      <point x="137.0" y="120.0" type="curve" smooth="yes"/>
      <point x="137.0" y="427.0" type="line" smooth="yes"/>
      <point x="137.0" y="446.0"/>
      <point x="149.0" y="460.0"/>
      <point x="164.0" y="460.0" type="curve" smooth="yes"/>
      <point x="179.0" y="460.0"/>
      <point x="194.0" y="443.0"/>
      <point x="194.0" y="427.0" type="curve" smooth="yes"/>
      <point x="194.0" y="322.0"/>
      <point x="194.0" y="244.0"/>
      <point x="194.0" y="120.0" type="curve" smooth="yes"/>
      <point x="194.0" y="101.0"/>
      <point x="178.0" y="87.0"/>
    </contour>
  </outline>
</glyph>
<glyph name="Emacron" format="1">
  <advance width="307"/>
  <unicode hex="0112"/>
  <outline>
    <contour>
      <point x="40" y="735" type="line"/>
      <point x="40" y="0" type="line"/>
      <point x="287" y="0" type="line"/>
      <point x="287" y="111" type="line"/>
      <point x="148" y="111" type="line"/>
      <point x="148" y="313" type="line"/>
      <point x="248" y="313" type="line"/>
      <point x="248" y="431" type="line"/>
      <point x="148" y="431" type="line"/>
      <point x="148" y="624" type="line"/>
      <point x="287" y="624" type="line"/>
      <point x="287" y="735" type="line"/>
    </contour>
    <contour>
      <point x="66" y="879" type="line"/>
      <point x="66" y="800" type="line"/>
      <point x="260" y="800" type="line"/>
      <point x="260" y="879" type="line"/>
    </contour>
  </outline>
</glyph>
<glyph name="Ebreve" format="1">
  <advance width="307"/>
  <unicode hex="0114"/>
  <outline>
    <contour>
      <point x="40" y="735" type="line"/>
      <point x="40" y="0" type="line"/>
      <point x="287" y="0" type="line"/>
      <point x="287" y="111" type="line"/>
      <point x="148" y="111" type="line"/>
      <point x="148" y="313" type="line"/>
      <point x="248" y="313" type="line"/>
      <point x="248" y="431" type="line"/>
      <point x="148" y="431" type="line"/>
      <point x="148" y="624" type="line"/>
      <point x="287" y="624" type="line"/>
      <point x="287" y="735" type="line"/>
    </contour>
    <contour>
      <point x="273" y="847" type="curve"/>
      <point x="221" y="893" type="line"/>
      <point x="221" y="893"/>
      <point x="201" y="870"/>
      <point x="163" y="870" type="curve" smooth="yes"/>
      <point x="127" y="870"/>
      <point x="107" y="893"/>
      <point x="107" y="893" type="curve"/>
      <point x="53" y="847" type="line"/>
      <point x="53" y="847"/>
      <point x="93" y="800"/>
      <point x="163" y="800" type="curve" smooth="yes"/>
      <point x="231" y="800"/>
      <point x="273" y="847"/>
    </contour>
  </outline>
</glyph>
<glyph name="ebreve" format="1">
  <advance width="322"/>
  <unicode hex="0115"/>
  <outline>
    <contour>
      <point x="293" y="196" type="line"/>
      <point x="199" y="196" type="line"/>
      <point x="199" y="136" type="line"/>
      <point x="199" y="136"/>
      <point x="201" y="81"/>
      <point x="163" y="81" type="curve" smooth="yes"/>
      <point x="126" y="81"/>
      <point x="126" y="136"/>
      <point x="126" y="136" type="curve"/>
      <point x="126" y="255" type="line"/>
      <point x="293" y="255" type="line"/>
      <point x="293" y="414" type="line"/>
      <point x="293" y="414"/>
      <point x="294" y="555"/>
      <point x="163" y="555" type="curve" smooth="yes"/>
      <point x="33" y="555"/>
      <point x="32" y="411"/>
      <point x="32" y="411" type="curve"/>
      <point x="32" y="136" type="line"/>
      <point x="32" y="136"/>
      <point x="32" y="-8"/>
      <point x="162" y="-8" type="curve" smooth="yes"/>
      <point x="293" y="-8"/>
      <point x="293" y="133"/>
      <point x="293" y="133" type="curve"/>
    </contour>
    <contour>
      <point x="126" y="334" type="line"/>
      <point x="126" y="411" type="line"/>
      <point x="126" y="411"/>
      <point x="126" y="467"/>
      <point x="163" y="467" type="curve" smooth="yes"/>
      <point x="201" y="467"/>
      <point x="199" y="411"/>
      <point x="199" y="411" type="curve"/>
      <point x="199" y="334" type="line"/>
    </contour>
    <contour>
      <point x="273" y="667" type="curve"/>
      <point x="221" y="713" type="line"/>
      <point x="221" y="713"/>
      <point x="201" y="690"/>
      <point x="163" y="690" type="curve" smooth="yes"/>
      <point x="127" y="690"/>
      <point x="107" y="713"/>
      <point x="107" y="713" type="curve"/>
      <point x="53" y="667" type="line"/>
      <point x="53" y="667"/>
      <point x="93" y="620"/>
      <point x="163" y="620" type="curve" smooth="yes"/>
      <point x="231" y="620"/>
      <point x="273" y="667"/>
    </contour>
  </outline>
</glyph>
<glyph name="Eogonek" format="1">
  <advance width="307"/>
  <unicode hex="0118"/>
  <outline>
    <contour>
      <point x="40" y="735" type="line"/>
      <point x="40" y="0" type="line"/>
      <point x="287" y="0" type="line"/>
      <point x="287" y="111" type="line"/>
      <point x="148" y="111" type="line"/>
      <point x="148" y="313" type="line"/>
      <point x="248" y="313" type="line"/>
      <point x="248" y="431" type="line"/>
      <point x="148" y="431" type="line"/>
      <point x="148" y="624" type="line"/>
      <point x="287" y="624" type="line"/>
      <point x="287" y="735" type="line"/>
    </contour>
    <contour>
      <point x="251" y="-188" type="curve" smooth="yes"/>
      <point x="268" y="-188"/>
      <point x="281" y="-186"/>
      <point x="302" y="-179" type="curve"/>
      <point x="310" y="-112" type="line"/>
      <point x="298" y="-117"/>
      <point x="285" y="-121"/>
      <point x="268" y="-121" type="curve" smooth="yes"/>
      <point x="246" y="-121"/>
      <point x="218" y="-112"/>
      <point x="218" y="-83" type="curve" smooth="yes"/>
      <point x="218" y="-35"/>
      <point x="263" y="0"/>
      <point x="263" y="0" type="curve"/>
      <point x="215" y="0" type="line"/>
      <point x="215" y="0"/>
      <point x="149" y="-47"/>
      <point x="149" y="-103" type="curve" smooth="yes"/>
      <point x="149" y="-148"/>
      <point x="186" y="-188"/>
    </contour>
  </outline>
</glyph>
<glyph name="eogonek" format="1">
  <advance width="322"/>
  <unicode hex="0119"/>
  <outline>
    <contour>
      <point x="183" y="-188" type="curve" smooth="yes"/>
      <point x="200" y="-188"/>
      <point x="213" y="-186"/>
      <point x="234" y="-179" type="curve"/>
      <point x="242" y="-112" type="line"/>
      <point x="230" y="-117"/>
      <point x="217" y="-121"/>
      <point x="200" y="-121" type="curve" smooth="yes"/>
      <point x="178" y="-121"/>
      <point x="150" y="-112"/>
      <point x="150" y="-83" type="curve" smooth="yes"/>
      <point x="150" y="-47"/>
      <point x="176" y="-18"/>
      <point x="188" y="-6" type="curve"/>
      <point x="293" y="12"/>
      <point x="293" y="133"/>
      <point x="293" y="133" type="curve"/>
      <point x="293" y="196" type="line"/>
      <point x="199" y="196" type="line"/>
      <point x="199" y="136" type="line"/>
      <point x="199" y="136"/>
      <point x="201" y="81"/>
      <point x="163" y="81" type="curve" smooth="yes"/>
      <point x="126" y="81"/>
      <point x="126" y="136"/>
      <point x="126" y="136" type="curve"/>
      <point x="126" y="255" type="line"/>
      <point x="293" y="255" type="line"/>
      <point x="293" y="414" type="line"/>
      <point x="293" y="414"/>
      <point x="294" y="555"/>
      <point x="163" y="555" type="curve" smooth="yes"/>
      <point x="33" y="555"/>
      <point x="32" y="411"/>
      <point x="32" y="411" type="curve"/>
      <point x="32" y="136" type="line"/>
      <point x="32" y="136"/>
      <point x="32" y="10"/>
      <point x="139" y="-6" type="curve"/>
      <point x="121" y="-21"/>
      <point x="81" y="-59"/>
      <point x="81" y="-103" type="curve" smooth="yes"/>
      <point x="81" y="-148"/>
      <point x="118" y="-188"/>
    </contour>
    <contour>
      <point x="126" y="334" type="line"/>
      <point x="126" y="411" type="line"/>
      <point x="126" y="411"/>
      <point x="126" y="467"/>
      <point x="163" y="467" type="curve" smooth="yes"/>
      <point x="201" y="467"/>
      <point x="199" y="411"/>
      <point x="199" y="411" type="curve"/>
      <point x="199" y="334" type="line"/>
    </contour>
  </outline>
</glyph>
<glyph name="Gbreve" format="1">
  <advance width="360"/>
  <unicode hex="011E"/>
  <outline>
    <contour>
      <point x="213" y="471" type="line"/>
      <point x="321" y="471" type="line"/>
      <point x="321" y="584" type="line"/>
      <point x="321" y="584"/>
      <point x="322" y="743"/>
      <point x="177" y="743" type="curve" smooth="yes"/>
      <point x="32" y="743"/>
      <point x="33" y="584"/>
      <point x="33" y="584" type="curve"/>
      <point x="33" y="151" type="line"/>
      <point x="33" y="151"/>
      <point x="23" y="-8"/>
      <point x="160" y="-8" type="curve" smooth="yes"/>
      <point x="194" y="-8"/>
      <point x="224" y="10"/>
      <point x="244" y="35" type="curve"/>
      <point x="257" y="0" type="line"/>
      <point x="321" y="0" type="line"/>
      <point x="321" y="366" type="line"/>
      <point x="170" y="366" type="line"/>
      <point x="170" y="275" type="line"/>
      <point x="213" y="275" type="line"/>
      <point x="213" y="142" type="line"/>
      <point x="213" y="142"/>
      <point x="215" y="88"/>
      <point x="177" y="88" type="curve" smooth="yes"/>
      <point x="139" y="88"/>
      <point x="141" y="142"/>
      <point x="141" y="142" type="curve"/>
      <point x="141" y="584" type="line"/>
      <point x="141" y="584"/>
      <point x="139" y="638"/>
      <point x="177" y="638" type="curve" smooth="yes"/>
      <point x="215" y="638"/>
      <point x="213" y="584"/>
      <point x="213" y="584" type="curve"/>
    </contour>
    <contour>
      <point x="287" y="855" type="curve"/>
      <point x="235" y="901" type="line"/>
      <point x="235" y="901"/>
      <point x="215" y="878"/>
      <point x="177" y="878" type="curve" smooth="yes"/>
      <point x="141" y="878"/>
      <point x="121" y="901"/>
      <point x="121" y="901" type="curve"/>
      <point x="67" y="855" type="line"/>
      <point x="67" y="855"/>
      <point x="107" y="808"/>
      <point x="177" y="808" type="curve" smooth="yes"/>
      <point x="245" y="808"/>
      <point x="287" y="855"/>
    </contour>
  </outline>
</glyph>
<glyph name="Gcommaaccent" format="1">
  <advance width="360"/>
  <unicode hex="0122"/>
  <outline>
    <contour>
      <point x="213" y="471" type="line"/>
      <point x="321" y="471" type="line"/>
      <point x="321" y="584" type="line"/>
      <point x="321" y="584"/>
      <point x="322" y="743"/>
      <point x="177" y="743" type="curve" smooth="yes"/>
      <point x="32" y="743"/>
      <point x="33" y="584"/>
      <point x="33" y="584" type="curve"/>
      <point x="33" y="151" type="line"/>
      <point x="33" y="151"/>
      <point x="23" y="-8"/>
      <point x="160" y="-8" type="curve" smooth="yes"/>
      <point x="194" y="-8"/>
      <point x="224" y="10"/>
      <point x="244" y="35" type="curve"/>
      <point x="257" y="0" type="line"/>
      <point x="321" y="0" type="line"/>
      <point x="321" y="366" type="line"/>
      <point x="170" y="366" type="line"/>
      <point x="170" y="275" type="line"/>
      <point x="213" y="275" type="line"/>
      <point x="213" y="142" type="line"/>
      <point x="213" y="142"/>
      <point x="215" y="88"/>
      <point x="177" y="88" type="curve" smooth="yes"/>
      <point x="139" y="88"/>
      <point x="141" y="142"/>
      <point x="141" y="142" type="curve"/>
      <point x="141" y="584" type="line"/>
      <point x="141" y="584"/>
      <point x="139" y="638"/>
      <point x="177" y="638" type="curve" smooth="yes"/>
      <point x="215" y="638"/>
      <point x="213" y="584"/>
      <point x="213" y="584" type="curve"/>
    </contour>
    <contour>
      <point x="214" y="-142" type="line"/>
      <point x="214" y="-73" type="line"/>
      <point x="130" y="-73" type="line"/>
      <point x="130" y="-142" type="line"/>
      <point x="161" y="-142" type="line"/>
      <point x="141" y="-207" type="line"/>
      <point x="192" y="-207" type="line"/>
    </contour>
  </outline>
</glyph>
<glyph name="Hcircumflex" format="1">
  <advance width="380"/>
  <unicode hex="0124"/>
  <outline>
    <contour>
      <point x="232" y="320" type="line"/>
      <point x="232" y="0" type="line"/>
      <point x="340" y="0" type="line"/>
      <point x="340" y="735" type="line"/>
      <point x="232" y="735" type="line"/>
      <point x="232" y="431" type="line"/>
      <point x="148" y="431" type="line"/>
      <point x="148" y="735" type="line"/>
      <point x="40" y="735" type="line"/>
      <point x="40" y="0" type="line"/>
      <point x="148" y="0" type="line"/>
      <point x="148" y="320" type="line"/>
    </contour>
    <contour>
      <point x="243" y="890" type="line"/>
      <point x="136" y="890" type="line"/>
      <point x="67" y="800" type="line"/>
      <point x="159" y="800" type="line"/>
      <point x="189" y="835" type="line"/>
      <point x="220" y="800" type="line"/>
      <point x="312" y="800" type="line"/>
    </contour>
  </outline>
</glyph>
<glyph name="Hbar" format="1">
  <advance width="380"/>
  <unicode hex="0126"/>
  <outline>
    <contour>
      <point x="232" y="600" type="line"/>
      <point x="232" y="431" type="line"/>
      <point x="148" y="431" type="line"/>
      <point x="148" y="600" type="line"/>
    </contour>
    <contour>
      <point x="232" y="0" type="line"/>
      <point x="340" y="0" type="line"/>
      <point x="340" y="600" type="line"/>
      <point x="371" y="600" type="line"/>
      <point x="371" y="670" type="line"/>
      <point x="340" y="670" type="line"/>
      <point x="340" y="735" type="line"/>
      <point x="232" y="735" type="line"/>
      <point x="232" y="670" type="line"/>
      <point x="148" y="670" type="line"/>
      <point x="148" y="735" type="line"/>
      <point x="40" y="735" type="line"/>
      <point x="40" y="670" type="line"/>
      <point x="9" y="670" type="line"/>
      <point x="9" y="600" type="line"/>
      <point x="40" y="600" type="line"/>
      <point x="40" y="0" type="line"/>
      <point x="148" y="0" type="line"/>
      <point x="148" y="320" type="line"/>
      <point x="232" y="320" type="line"/>
    </contour>
  </outline>
</glyph>
<glyph name="hbar" format="1">
  <advance width="367.0"/>
  <unicode hex="0127"/>
  <outline>
    <contour>
      <point x="204" y="457" type="curve" smooth="yes"/>
      <point x="216" y="457"/>
      <point x="228" y="454"/>
      <point x="228" y="433" type="curve" smooth="yes"/>
      <point x="228" y="0" type="line"/>
      <point x="329" y="0" type="line"/>
      <point x="329" y="448" type="line" smooth="yes"/>
      <point x="329" y="493"/>
      <point x="307" y="555"/>
      <point x="253" y="555" type="curve" smooth="yes"/>
      <point x="218" y="555"/>
      <point x="179" y="506"/>
      <point x="171" y="501" type="curve"/>
      <point x="171" y="600" type="line"/>
      <point x="212" y="600" type="line"/>
      <point x="212" y="670" type="line"/>
      <point x="171" y="670" type="line"/>
      <point x="171" y="735" type="line"/>
      <point x="70" y="735" type="line"/>
      <point x="70" y="670" type="line"/>
      <point x="40" y="670" type="line"/>
      <point x="40" y="600" type="line"/>
      <point x="70" y="600" type="line"/>
      <point x="70" y="0" type="line"/>
      <point x="171" y="0" type="line"/>
      <point x="171" y="431" type="line"/>
      <point x="171" y="431"/>
      <point x="184" y="457"/>
    </contour>
  </outline>
</glyph>
<glyph name="Itilde" format="1">
  <advance width="188"/>
  <unicode hex="0128"/>
  <outline>
    <contour>
      <point x="40" y="735" type="line"/>
      <point x="40" y="0" type="line"/>
      <point x="148" y="0" type="line"/>
      <point x="148" y="735" type="line"/>
    </contour>
    <contour>
      <point x="138" y="800" type="curve" smooth="yes"/>
      <point x="166" y="800"/>
      <point x="191" y="819"/>
      <point x="191" y="819" type="curve"/>
      <point x="191" y="893" type="line"/>
      <point x="191" y="893"/>
      <point x="166" y="877"/>
      <point x="138" y="877" type="curve"/>
      <point x="107" y="879"/>
      <point x="81" y="896"/>
      <point x="50" y="896" type="curve" smooth="yes"/>
      <point x="21" y="896"/>
      <point x="-3" y="877"/>
      <point x="-3" y="877" type="curve"/>
      <point x="-3" y="803" type="line"/>
      <point x="-3" y="803"/>
      <point x="22" y="819"/>
      <point x="50" y="819" type="curve" smooth="yes"/>
      <point x="82" y="818"/>
      <point x="108" y="800"/>
    </contour>
  </outline>
</glyph>
<glyph name="itilde" format="1">
  <advance width="181"/>
  <unicode hex="0129"/>
  <outline>
    <contour>
      <point x="40" y="0" type="line"/>
      <point x="141" y="0" type="line"/>
      <point x="141" y="547" type="line"/>
      <point x="40" y="547" type="line"/>
    </contour>
    <contour>
      <point x="134" y="612" type="curve" smooth="yes"/>
      <point x="162" y="612"/>
      <point x="187" y="631"/>
      <point x="187" y="631" type="curve"/>
      <point x="187" y="705" type="line"/>
      <point x="187" y="705"/>
      <point x="162" y="689"/>
      <point x="134" y="689" type="curve"/>
      <point x="103" y="691"/>
      <point x="77" y="708"/>
      <point x="46" y="708" type="curve" smooth="yes"/>
      <point x="17" y="708"/>
      <point x="-7" y="689"/>
      <point x="-7" y="689" type="curve"/>
      <point x="-7" y="615" type="line"/>
      <point x="-7" y="615"/>
      <point x="18" y="631"/>
      <point x="46" y="631" type="curve" smooth="yes"/>
      <point x="78" y="630"/>
      <point x="104" y="612"/>
    </contour>
  </outline>
</glyph>
<glyph name="Imacron" format="1">
  <advance width="188"/>
  <unicode hex="012A"/>
  <outline>
    <contour>
      <point x="40" y="735" type="line"/>
      <point x="40" y="0" type="line"/>
      <point x="148" y="0" type="line"/>
      <point x="148" y="735" type="line"/>
    </contour>
    <contour>
      <point x="-3" y="879" type="line"/>
      <point x="-3" y="800" type="line"/>
      <point x="191" y="800" type="line"/>
      <point x="191" y="879" type="line"/>
    </contour>
  </outline>
</glyph>
<glyph name="imacron" format="1">
  <advance width="181"/>
  <unicode hex="012B"/>
  <outline>
    <contour>
      <point x="40" y="0" type="line"/>
      <point x="141" y="0" type="line"/>
      <point x="141" y="547" type="line"/>
      <point x="40" y="547" type="line"/>
    </contour>
    <contour>
      <point x="-7" y="691" type="line"/>
      <point x="-7" y="612" type="line"/>
      <point x="187" y="612" type="line"/>
      <point x="187" y="691" type="line"/>
    </contour>
  </outline>
</glyph>
<glyph name="Ibreve" format="1">
  <advance width="188"/>
  <unicode hex="012C"/>
  <outline>
    <contour>
      <point x="40" y="735" type="line"/>
      <point x="40" y="0" type="line"/>
      <point x="148" y="0" type="line"/>
      <point x="148" y="735" type="line"/>
    </contour>
    <contour>
      <point x="204" y="847" type="curve"/>
      <point x="152" y="893" type="line"/>
      <point x="152" y="893"/>
      <point x="132" y="870"/>
      <point x="94" y="870" type="curve" smooth="yes"/>
      <point x="58" y="870"/>
      <point x="38" y="893"/>
      <point x="38" y="893" type="curve"/>
      <point x="-16" y="847" type="line"/>
      <point x="-16" y="847"/>
      <point x="24" y="800"/>
      <point x="94" y="800" type="curve" smooth="yes"/>
      <point x="162" y="800"/>
      <point x="204" y="847"/>
    </contour>
  </outline>
</glyph>
<glyph name="ibreve" format="1">
  <advance width="181"/>
  <unicode hex="012D"/>
  <outline>
    <contour>
      <point x="40" y="0" type="line"/>
      <point x="141" y="0" type="line"/>
      <point x="141" y="547" type="line"/>
      <point x="40" y="547" type="line"/>
    </contour>
    <contour>
      <point x="200" y="659" type="curve"/>
      <point x="148" y="705" type="line"/>
      <point x="148" y="705"/>
      <point x="128" y="682"/>
      <point x="90" y="682" type="curve" smooth="yes"/>
      <point x="54" y="682"/>
      <point x="34" y="705"/>
      <point x="34" y="705" type="curve"/>
      <point x="-20" y="659" type="line"/>
      <point x="-20" y="659"/>
      <point x="20" y="612"/>
      <point x="90" y="612" type="curve" smooth="yes"/>
      <point x="158" y="612"/>
      <point x="200" y="659"/>
    </contour>
  </outline>
</glyph>
<glyph name="Iogonek" format="1">
  <advance width="188"/>
  <unicode hex="012E"/>
  <outline>
    <contour>
      <point x="40" y="735" type="line"/>
      <point x="40" y="0" type="line"/>
      <point x="148" y="0" type="line"/>
      <point x="148" y="735" type="line"/>
    </contour>
    <contour>
      <point x="115" y="-188" type="curve" smooth="yes"/>
      <point x="132" y="-188"/>
      <point x="145" y="-186"/>
      <point x="166" y="-179" type="curve"/>
      <point x="174" y="-112" type="line"/>
      <point x="162" y="-117"/>
      <point x="149" y="-121"/>
      <point x="132" y="-121" type="curve" smooth="yes"/>
      <point x="110" y="-121"/>
      <point x="82" y="-112"/>
      <point x="82" y="-83" type="curve" smooth="yes"/>
      <point x="82" y="-35"/>
      <point x="127" y="0"/>
      <point x="127" y="0" type="curve"/>
      <point x="79" y="0" type="line"/>
      <point x="79" y="0"/>
      <point x="13" y="-47"/>
      <point x="13" y="-103" type="curve" smooth="yes"/>
      <point x="13" y="-148"/>
      <point x="50" y="-188"/>
    </contour>
  </outline>
</glyph>
<glyph name="iogonek" format="1">
  <advance width="181"/>
  <unicode hex="012F"/>
  <outline>
    <contour>
      <point x="40" y="0" type="line"/>
      <point x="141" y="0" type="line"/>
      <point x="141" y="547" type="line"/>
      <point x="40" y="547" type="line"/>
    </contour>
    <contour>
      <point x="112" y="-188" type="curve" smooth="yes"/>
      <point x="129" y="-188"/>
      <point x="142" y="-186"/>
      <point x="163" y="-179" type="curve"/>
      <point x="171" y="-112" type="line"/>
      <point x="159" y="-117"/>
      <point x="146" y="-121"/>
      <point x="129" y="-121" type="curve" smooth="yes"/>
      <point x="107" y="-121"/>
      <point x="79" y="-112"/>
      <point x="79" y="-83" type="curve" smooth="yes"/>
      <point x="79" y="-35"/>
      <point x="124" y="0"/>
      <point x="124" y="0" type="curve"/>
      <point x="76" y="0" type="line"/>
      <point x="76" y="0"/>
      <point x="10" y="-47"/>
      <point x="10" y="-103" type="curve" smooth="yes"/>
      <point x="10" y="-148"/>
      <point x="47" y="-188"/>
    </contour>
  </outline>
</glyph>
<glyph name="Idotaccent" format="1">
  <advance width="188"/>
  <unicode hex="0130"/>
  <outline>
    <contour>
      <point x="40" y="735" type="line"/>
      <point x="40" y="0" type="line"/>
      <point x="148" y="0" type="line"/>
      <point x="148" y="735" type="line"/>
    </contour>
    <contour>
      <point x="43" y="901" type="line"/>
      <point x="43" y="800" type="line"/>
      <point x="144" y="800" type="line"/>
      <point x="144" y="901" type="line"/>
    </contour>
  </outline>
</glyph>
<glyph name="dotlessi" format="1">
  <advance width="181"/>
  <unicode hex="0131"/>
  <outline>
    <contour>
      <point x="141" y="0" type="line"/>
      <point x="141" y="547" type="line"/>
      <point x="40" y="547" type="line"/>
      <point x="40" y="0" type="line"/>
    </contour>
  </outline>
</glyph>
<glyph name="IJ" format="1">
  <advance width="396"/>
  <unicode hex="0132"/>
  <outline>
    <contour>
      <point x="190" y="-7" type="line"/>
      <point x="318" y="-14"/>
      <point x="356" y="57"/>
      <point x="356" y="136" type="curve" smooth="yes"/>
      <point x="356" y="735" type="line"/>
      <point x="248" y="735" type="line"/>
      <point x="248" y="153" type="line" smooth="yes"/>
      <point x="248" y="87"/>
      <point x="190" y="99"/>
      <point x="190" y="99" type="curve"/>
    </contour>
    <contour>
      <point x="40.0" y="0.0" type="line"/>
      <point x="148.0" y="0.0" type="line"/>
      <point x="148.0" y="735.0" type="line"/>
      <point x="40.0" y="735.0" type="line"/>
    </contour>
  </outline>
</glyph>
<glyph name="ij" format="1">
  <advance width="356"/>
  <unicode hex="0133"/>
  <outline>
    <contour>
      <point x="215" y="634" type="line"/>
      <point x="316" y="634" type="line"/>
      <point x="316" y="735" type="line"/>
      <point x="215" y="735" type="line"/>
    </contour>
    <contour>
      <point x="215" y="547" type="line"/>
      <point x="215" y="-13" type="line" smooth="yes"/>
      <point x="215" y="-38"/>
      <point x="218" y="-93"/>
      <point x="184" y="-93" type="curve" smooth="yes"/>
      <point x="170" y="-93"/>
      <point x="156" y="-89"/>
      <point x="156" y="-89" type="curve"/>
      <point x="156" y="-182" type="line"/>
      <point x="156" y="-182"/>
      <point x="158" y="-188"/>
      <point x="190" y="-188" type="curve" smooth="yes"/>
      <point x="306" y="-188"/>
      <point x="316" y="-71"/>
      <point x="316" y="-14" type="curve" smooth="yes"/>
      <point x="316" y="547" type="line"/>
    </contour>
    <contour>
      <point x="141.0" y="0.0" type="line"/>
      <point x="141.0" y="547.0" type="line"/>
      <point x="40.0" y="547.0" type="line"/>
      <point x="40.0" y="0.0" type="line"/>
    </contour>
    <contour>
      <point x="40.0" y="634.0" type="line"/>
      <point x="141.0" y="634.0" type="line"/>
      <point x="141.0" y="735.0" type="line"/>
      <point x="40.0" y="735.0" type="line"/>
    </contour>
  </outline>
</glyph>
<glyph name="Jcircumflex" format="1">
  <advance width="207"/>
  <unicode hex="0134"/>
  <outline>
    <contour>
      <point x="6" y="99" type="curve"/>
      <point x="6" y="-7" type="line"/>
      <point x="134" y="-14"/>
      <point x="172" y="57"/>
      <point x="172" y="136" type="curve" smooth="yes"/>
      <point x="172" y="735" type="line"/>
      <point x="64" y="735" type="line"/>
      <point x="64" y="153" type="line" smooth="yes"/>
      <point x="64" y="87"/>
      <point x="6" y="99"/>
    </contour>
    <contour>
      <point x="171" y="890" type="line"/>
      <point x="64" y="890" type="line"/>
      <point x="-5" y="800" type="line"/>
      <point x="87" y="800" type="line"/>
      <point x="117" y="835" type="line"/>
      <point x="148" y="800" type="line"/>
      <point x="240" y="800" type="line"/>
    </contour>
  </outline>
</glyph>
<glyph name="jcircumflex" format="1">
  <advance width="178"/>
  <unicode hex="0135"/>
  <outline>
    <contour>
      <point x="138.0" y="547.0" type="line"/>
      <point x="37.0" y="547.0" type="line"/>
      <point x="37.0" y="-13.0" type="line" smooth="yes"/>
      <point x="37.0" y="-38.0"/>
      <point x="40.0" y="-93.0"/>
      <point x="6.0" y="-93.0" type="curve" smooth="yes"/>
      <point x="-8.0" y="-93.0"/>
      <point x="-22.0" y="-89.0"/>
      <point x="-22.0" y="-89.0" type="curve"/>
      <point x="-22.0" y="-182.0" type="line"/>
      <point x="-22.0" y="-182.0"/>
      <point x="-10.0" y="-188.0"/>
      <point x="22.0" y="-188.0" type="curve" smooth="yes"/>
      <point x="138.0" y="-188.0"/>
      <point x="138.0" y="-71.0"/>
      <point x="138.0" y="-14.0" type="curve" smooth="yes"/>
    </contour>
    <contour>
      <point x="141" y="702" type="line"/>
      <point x="34" y="702" type="line"/>
      <point x="-35" y="612" type="line"/>
      <point x="57" y="612" type="line"/>
      <point x="87" y="647" type="line"/>
      <point x="118" y="612" type="line"/>
      <point x="210" y="612" type="line"/>
    </contour>
  </outline>
</glyph>
<glyph name="Kcommaaccent" format="1">
  <advance width="375"/>
  <unicode hex="0136"/>
  <outline>
    <contour>
      <point x="148" y="735" type="line"/>
      <point x="40" y="735" type="line"/>
      <point x="40" y="735"/>
      <point x="40" y="230"/>
      <point x="40" y="0" type="curve"/>
      <point x="148" y="0" type="line"/>
      <point x="148" y="260" type="line"/>
      <point x="173" y="320" type="line"/>
      <point x="179" y="335" type="line"/>
      <point x="182" y="335" type="line"/>
      <point x="185" y="320" type="line"/>
      <point x="260" y="0" type="line"/>
      <point x="365" y="0" type="line"/>
      <point x="253" y="493" type="line"/>
      <point x="352" y="735" type="line"/>
      <point x="247" y="735" type="line"/>
      <point x="157" y="490" type="line"/>
      <point x="152" y="478" type="line"/>
      <point x="148" y="478" type="line"/>
      <point x="148" y="490" type="line"/>
    </contour>
    <contour>
      <point x="244" y="-134" type="line"/>
      <point x="244" y="-65" type="line"/>
      <point x="160" y="-65" type="line"/>
      <point x="160" y="-134" type="line"/>
      <point x="191" y="-134" type="line"/>
      <point x="171" y="-199" type="line"/>
      <point x="222" y="-199" type="line"/>
    </contour>
  </outline>
</glyph>
<glyph name="kcommaaccent" format="1">
  <advance width="313"/>
  <unicode hex="0137"/>
  <outline>
    <contour>
      <point x="141" y="735" type="line"/>
      <point x="40" y="735" type="line"/>
      <point x="40" y="735"/>
      <point x="40" y="192"/>
      <point x="40" y="0" type="curve"/>
      <point x="141" y="0" type="line"/>
      <point x="141" y="189" type="line"/>
      <point x="154" y="221" type="line"/>
      <point x="157" y="229" type="line"/>
      <point x="162" y="229" type="line"/>
      <point x="164" y="221" type="line"/>
      <point x="214" y="0" type="line"/>
      <point x="311" y="0" type="line"/>
      <point x="219" y="369" type="line"/>
      <point x="292" y="547" type="line"/>
      <point x="201" y="547" type="line"/>
      <point x="152" y="404" type="line"/>
      <point x="146" y="386" type="line"/>
      <point x="141" y="386" type="line"/>
      <point x="141" y="404" type="line"/>
    </contour>
    <contour>
      <point x="217" y="-134" type="line"/>
      <point x="217" y="-65" type="line"/>
      <point x="133" y="-65" type="line"/>
      <point x="133" y="-134" type="line"/>
      <point x="164" y="-134" type="line"/>
      <point x="144" y="-199" type="line"/>
      <point x="195" y="-199" type="line"/>
    </contour>
  </outline>
</glyph>
<glyph name="kgreenlandic" format="1">
  <advance width="375"/>
  <unicode hex="0138"/>
  <outline>
    <contour>
      <point x="40.0" y="547.0" type="line" smooth="yes"/>
      <point x="40.0" y="547.0"/>
      <point x="40.0" y="171.170068027"/>
      <point x="40.0" y="0.0" type="curve"/>
      <point x="148.0" y="0.0" type="line"/>
      <point x="148.0" y="193.496598639" type="line"/>
      <point x="173.0" y="238.149659864" type="line"/>
      <point x="179.0" y="249.31292517" type="line"/>
      <point x="182.0" y="249.31292517" type="line"/>
      <point x="185.0" y="238.149659864" type="line"/>
      <point x="260.0" y="0.0" type="line"/>
      <point x="365.0" y="0.0" type="line"/>
      <point x="253.0" y="366.899319728" type="line"/>
      <point x="352.0" y="547.0" type="line"/>
      <point x="247.0" y="547.0" type="line"/>
      <point x="157.0" y="364.666666667" type="line"/>
      <point x="152.0" y="355.736054422" type="line"/>
      <point x="148.0" y="355.736054422" type="line"/>
      <point x="148.0" y="364.666666667" type="line"/>
      <point x="148.0" y="547.0" type="line"/>
    </contour>
  </outline>
</glyph>
<glyph name="Lacute" format="1">
  <advance width="295"/>
  <unicode hex="0139"/>
  <outline>
    <contour>
      <point x="40" y="735" type="line"/>
      <point x="40" y="0" type="line"/>
      <point x="291" y="0" type="line"/>
      <point x="291" y="100" type="line"/>
      <point x="148" y="100" type="line"/>
      <point x="148" y="735" type="line"/>
    </contour>
    <contour>
      <point x="212" y="890" type="line"/>
      <point x="107" y="890" type="line"/>
      <point x="55" y="800" type="line"/>
      <point x="133" y="800" type="line"/>
    </contour>
  </outline>
</glyph>
<glyph name="lacute" format="1">
  <advance width="181"/>
  <unicode hex="013A"/>
  <outline>
    <contour>
      <point x="40" y="0" type="curve"/>
      <point x="141" y="0" type="line"/>
      <point x="141" y="542"/>
      <point x="141" y="735"/>
      <point x="141" y="735" type="curve"/>
      <point x="141" y="735"/>
      <point x="52" y="735"/>
      <point x="40" y="735" type="curve"/>
      <point x="40" y="729"/>
      <point x="40" y="335"/>
    </contour>
    <contour>
      <point x="208" y="890" type="line"/>
      <point x="103" y="890" type="line"/>
      <point x="51" y="800" type="line"/>
      <point x="129" y="800" type="line"/>
    </contour>
  </outline>
</glyph>
<glyph name="Lcommaaccent" format="1">
  <advance width="295"/>
  <unicode hex="013B"/>
  <outline>
    <contour>
      <point x="40" y="735" type="line"/>
      <point x="40" y="0" type="line"/>
      <point x="291" y="0" type="line"/>
      <point x="291" y="100" type="line"/>
      <point x="148" y="100" type="line"/>
      <point x="148" y="735" type="line"/>
    </contour>
    <contour>
      <point x="207" y="-134" type="line"/>
      <point x="207" y="-65" type="line"/>
      <point x="123" y="-65" type="line"/>
      <point x="123" y="-134" type="line"/>
      <point x="154" y="-134" type="line"/>
      <point x="134" y="-199" type="line"/>
      <point x="185" y="-199" type="line"/>
    </contour>
  </outline>
</glyph>
<glyph name="lcommaaccent" format="1">
  <advance width="181"/>
  <unicode hex="013C"/>
  <outline>
    <contour>
      <point x="40" y="0" type="curve"/>
      <point x="141" y="0" type="line"/>
      <point x="141" y="542"/>
      <point x="141" y="735"/>
      <point x="141" y="735" type="curve"/>
      <point x="141" y="735"/>
      <point x="52" y="735"/>
      <point x="40" y="735" type="curve"/>
      <point x="40" y="729"/>
      <point x="40" y="335"/>
    </contour>
    <contour>
      <point x="132" y="-134" type="line"/>
      <point x="132" y="-65" type="line"/>
      <point x="48" y="-65" type="line"/>
      <point x="48" y="-134" type="line"/>
      <point x="79" y="-134" type="line"/>
      <point x="59" y="-199" type="line"/>
      <point x="110" y="-199" type="line"/>
    </contour>
  </outline>
</glyph>
<glyph name="Lcaron" format="1">
  <advance width="343"/>
  <unicode hex="013D"/>
  <outline>
    <contour>
      <point x="303" y="735" type="line"/>
      <point x="198" y="735" type="line"/>
      <point x="198" y="624" type="line"/>
      <point x="233" y="624" type="line"/>
      <point x="198" y="494" type="line"/>
      <point x="248" y="494" type="line"/>
      <point x="303" y="624" type="line"/>
    </contour>
    <contour>
      <point x="40.0" y="0.0" type="line"/>
      <point x="291.0" y="0.0" type="line"/>
      <point x="291.0" y="100.0" type="line"/>
      <point x="148.0" y="100.0" type="line"/>
      <point x="148.0" y="735.0" type="line"/>
      <point x="40.0" y="735.0" type="line"/>
    </contour>
  </outline>
</glyph>
<glyph name="lcaron" format="1">
  <advance width="336"/>
  <unicode hex="013E"/>
  <outline>
    <contour>
      <point x="296" y="735" type="line"/>
      <point x="191" y="735" type="line"/>
      <point x="191" y="624" type="line"/>
      <point x="226" y="624" type="line"/>
      <point x="191" y="494" type="line"/>
      <point x="241" y="494" type="line"/>
      <point x="296" y="624" type="line"/>
    </contour>
    <contour>
      <point x="141.0" y="0.0" type="line"/>
      <point x="141.0" y="542.0"/>
      <point x="141.0" y="735.0"/>
      <point x="141.0" y="735.0" type="curve" smooth="yes"/>
      <point x="141.0" y="735.0"/>
      <point x="52.0" y="735.0"/>
      <point x="40.0" y="735.0" type="curve"/>
      <point x="40.0" y="729.0"/>
      <point x="40.0" y="335.0"/>
      <point x="40.0" y="0.0" type="curve"/>
    </contour>
  </outline>
</glyph>
<glyph name="Ldot" format="1">
  <advance width="331"/>
  <unicode hex="013F"/>
  <outline>
    <contour>
      <point x="186" y="317" type="line"/>
      <point x="291" y="317" type="line"/>
      <point x="291" y="428" type="line"/>
      <point x="186" y="428" type="line"/>
    </contour>
    <contour>
      <point x="40.0" y="0.0" type="line"/>
      <point x="291.0" y="0.0" type="line"/>
      <point x="291.0" y="100.0" type="line"/>
      <point x="148.0" y="100.0" type="line"/>
      <point x="148.0" y="735.0" type="line"/>
      <point x="40.0" y="735.0" type="line"/>
    </contour>
  </outline>
</glyph>
<glyph name="ldot" format="1">
  <advance width="336"/>
  <unicode hex="0140"/>
  <outline>
    <contour>
      <point x="191" y="317" type="line"/>
      <point x="296" y="317" type="line"/>
      <point x="296" y="428" type="line"/>
      <point x="191" y="428" type="line"/>
    </contour>
    <contour>
      <point x="141.0" y="0.0" type="line"/>
      <point x="141.0" y="542.0"/>
      <point x="141.0" y="735.0"/>
      <point x="141.0" y="735.0" type="curve" smooth="yes"/>
      <point x="141.0" y="735.0"/>
      <point x="52.0" y="735.0"/>
      <point x="40.0" y="735.0" type="curve"/>
      <point x="40.0" y="729.0"/>
      <point x="40.0" y="335.0"/>
      <point x="40.0" y="0.0" type="curve"/>
    </contour>
  </outline>
</glyph>
<glyph name="Nacute" format="1">
  <advance width="395"/>
  <unicode hex="0143"/>
  <outline>
    <contour>
      <point x="154" y="383" type="line"/>
      <point x="259" y="0" type="line"/>
      <point x="259" y="0"/>
      <point x="355" y="0"/>
      <point x="355" y="0" type="curve"/>
      <point x="355" y="0"/>
      <point x="355" y="735"/>
      <point x="355" y="735" type="curve"/>
      <point x="256" y="735" type="line"/>
      <point x="256" y="352" type="line"/>
      <point x="256" y="318" type="line"/>
      <point x="250" y="318" type="line"/>
      <point x="241" y="352" type="line"/>
      <point x="241" y="352"/>
      <point x="136" y="735"/>
      <point x="136" y="735" type="curve"/>
      <point x="136" y="735"/>
      <point x="40" y="735"/>
      <point x="40" y="735" type="curve"/>
      <point x="40" y="735"/>
      <point x="40" y="0"/>
      <point x="40" y="0" type="curve"/>
      <point x="139" y="0" type="line"/>
      <point x="139" y="383" type="line"/>
      <point x="139" y="417" type="line"/>
      <point x="145" y="417" type="line"/>
    </contour>
    <contour>
      <point x="315" y="890" type="line"/>
      <point x="210" y="890" type="line"/>
      <point x="158" y="800" type="line"/>
      <point x="236" y="800" type="line"/>
    </contour>
  </outline>
</glyph>
<glyph name="Ncommaaccent" format="1">
  <advance width="395"/>
  <unicode hex="0145"/>
  <outline>
    <contour>
      <point x="154" y="383" type="line"/>
      <point x="259" y="0" type="line"/>
      <point x="259" y="0"/>
      <point x="355" y="0"/>
      <point x="355" y="0" type="curve"/>
      <point x="355" y="0"/>
      <point x="355" y="735"/>
      <point x="355" y="735" type="curve"/>
      <point x="256" y="735" type="line"/>
      <point x="256" y="352" type="line"/>
      <point x="256" y="318" type="line"/>
      <point x="250" y="318" type="line"/>
      <point x="241" y="352" type="line"/>
      <point x="241" y="352"/>
      <point x="136" y="735"/>
      <point x="136" y="735" type="curve"/>
      <point x="136" y="735"/>
      <point x="40" y="735"/>
      <point x="40" y="735" type="curve"/>
      <point x="40" y="735"/>
      <point x="40" y="0"/>
      <point x="40" y="0" type="curve"/>
      <point x="139" y="0" type="line"/>
      <point x="139" y="383" type="line"/>
      <point x="139" y="417" type="line"/>
      <point x="145" y="417" type="line"/>
    </contour>
    <contour>
      <point x="239" y="-134" type="line"/>
      <point x="239" y="-65" type="line"/>
      <point x="155" y="-65" type="line"/>
      <point x="155" y="-134" type="line"/>
      <point x="186" y="-134" type="line"/>
      <point x="166" y="-199" type="line"/>
      <point x="217" y="-199" type="line"/>
    </contour>
  </outline>
</glyph>
<glyph name="Ncaron" format="1">
  <advance width="395"/>
  <unicode hex="0147"/>
  <outline>
    <contour>
      <point x="154" y="383" type="line"/>
      <point x="259" y="0" type="line"/>
      <point x="259" y="0"/>
      <point x="355" y="0"/>
      <point x="355" y="0" type="curve"/>
      <point x="355" y="0"/>
      <point x="355" y="735"/>
      <point x="355" y="735" type="curve"/>
      <point x="256" y="735" type="line"/>
      <point x="256" y="352" type="line"/>
      <point x="256" y="318" type="line"/>
      <point x="250" y="318" type="line"/>
      <point x="241" y="352" type="line"/>
      <point x="241" y="352"/>
      <point x="136" y="735"/>
      <point x="136" y="735" type="curve"/>
      <point x="136" y="735"/>
      <point x="40" y="735"/>
      <point x="40" y="735" type="curve"/>
      <point x="40" y="735"/>
      <point x="40" y="0"/>
      <point x="40" y="0" type="curve"/>
      <point x="139" y="0" type="line"/>
      <point x="139" y="383" type="line"/>
      <point x="139" y="417" type="line"/>
      <point x="145" y="417" type="line"/>
    </contour>
    <contour>
      <point x="144" y="800" type="line"/>
      <point x="251" y="800" type="line"/>
      <point x="320" y="890" type="line"/>
      <point x="228" y="890" type="line"/>
      <point x="197" y="855" type="line"/>
      <point x="167" y="890" type="line"/>
      <point x="75" y="890" type="line"/>
    </contour>
  </outline>
</glyph>
<glyph name="ncaron" format="1">
  <advance width="337"/>
  <unicode hex="0148"/>
  <outline>
    <contour>
      <point x="198" y="433" type="curve" smooth="yes"/>
      <point x="198" y="0" type="line"/>
      <point x="299" y="0" type="line"/>
      <point x="299" y="448" type="line" smooth="yes"/>
      <point x="299" y="493"/>
      <point x="277" y="555"/>
      <point x="223" y="555" type="curve" smooth="yes"/>
      <point x="188" y="555"/>
      <point x="149" y="506"/>
      <point x="141" y="501" type="curve"/>
      <point x="141" y="547" type="line"/>
      <point x="40" y="547" type="line"/>
      <point x="40" y="0" type="line"/>
      <point x="141" y="0" type="line"/>
      <point x="141" y="114"/>
      <point x="141" y="121"/>
      <point x="141" y="431" type="curve"/>
      <point x="141" y="431"/>
      <point x="154" y="457"/>
      <point x="174" y="457" type="curve" smooth="yes"/>
      <point x="186" y="457"/>
      <point x="198" y="454"/>
    </contour>
    <contour>
      <point x="116" y="620" type="line"/>
      <point x="223" y="620" type="line"/>
      <point x="292" y="710" type="line"/>
      <point x="200" y="710" type="line"/>
      <point x="169" y="675" type="line"/>
      <point x="139" y="710" type="line"/>
      <point x="47" y="710" type="line"/>
    </contour>
  </outline>
</glyph>
<glyph name="napostrophe" format="1">
  <advance width="440"/>
  <unicode hex="0149"/>
  <outline>
    <contour>
      <point x="145" y="735" type="line"/>
      <point x="40" y="735" type="line"/>
      <point x="40" y="624" type="line"/>
      <point x="75" y="624" type="line"/>
      <point x="40" y="494" type="line"/>
      <point x="90" y="494" type="line"/>
      <point x="145" y="624" type="line"/>
    </contour>
    <contour>
      <point x="301.0" y="433.0" type="curve" smooth="yes"/>
      <point x="301.0" y="0.0" type="line"/>
      <point x="402.0" y="0.0" type="line"/>
      <point x="402.0" y="448.0" type="line" smooth="yes"/>
      <point x="402.0" y="493.0"/>
      <point x="380.0" y="555.0"/>
      <point x="326.0" y="555.0" type="curve" smooth="yes"/>
      <point x="291.0" y="555.0"/>
      <point x="252.0" y="506.0"/>
      <point x="244.0" y="501.0" type="curve"/>
      <point x="244.0" y="547.0" type="line"/>
      <point x="143.0" y="547.0" type="line"/>
      <point x="143.0" y="0.0" type="line"/>
      <point x="244.0" y="0.0" type="line"/>
      <point x="244.0" y="114.0"/>
      <point x="244.0" y="121.0"/>
      <point x="244.0" y="431.0" type="curve"/>
      <point x="244.0" y="431.0"/>
      <point x="257.0" y="457.0"/>
      <point x="277.0" y="457.0" type="curve" smooth="yes"/>
      <point x="289.0" y="457.0"/>
      <point x="301.0" y="454.0"/>
    </contour>
  </outline>
</glyph>
<glyph name="Eng" format="1">
  <advance width="395"/>
  <unicode hex="014A"/>
  <outline>
    <contour>
      <point x="239" y="-188" type="curve" smooth="yes"/>
      <point x="355" y="-188"/>
      <point x="355" y="-71"/>
      <point x="355" y="-14" type="curve" smooth="yes"/>
      <point x="355" y="735" type="line"/>
      <point x="256" y="735" type="line"/>
      <point x="256" y="318" type="line"/>
      <point x="250" y="318" type="line"/>
      <point x="241" y="352" type="line"/>
      <point x="136" y="735" type="line"/>
      <point x="40" y="735" type="line"/>
      <point x="40" y="0" type="line"/>
      <point x="139" y="0" type="line"/>
      <point x="139" y="417" type="line"/>
      <point x="145" y="417" type="line"/>
      <point x="154" y="383" type="line"/>
      <point x="259" y="0" type="line"/>
      <point x="259" y="-13" type="line"/>
      <point x="259" y="-38"/>
      <point x="257" y="-93"/>
      <point x="223" y="-93" type="curve" smooth="yes"/>
      <point x="209" y="-93"/>
      <point x="195" y="-89"/>
      <point x="195" y="-89" type="curve"/>
      <point x="195" y="-182" type="line"/>
      <point x="195" y="-182"/>
      <point x="207" y="-188"/>
    </contour>
  </outline>
</glyph>
<glyph name="eng" format="1">
  <advance width="337"/>
  <unicode hex="014B"/>
  <outline>
    <contour>
      <point x="183" y="-188" type="curve" smooth="yes"/>
      <point x="299" y="-188"/>
      <point x="299" y="-71"/>
      <point x="299" y="-14" type="curve" smooth="yes"/>
      <point x="299" y="448" type="line" smooth="yes"/>
      <point x="299" y="493"/>
      <point x="277" y="555"/>
      <point x="223" y="555" type="curve" smooth="yes"/>
      <point x="188" y="555"/>
      <point x="149" y="506"/>
      <point x="141" y="501" type="curve"/>
      <point x="141" y="547" type="line"/>
      <point x="40" y="547" type="line"/>
      <point x="40" y="0" type="line"/>
      <point x="141" y="0" type="line"/>
      <point x="141" y="431" type="line"/>
      <point x="141" y="431"/>
      <point x="154" y="457"/>
      <point x="174" y="457" type="curve" smooth="yes"/>
      <point x="186" y="457"/>
      <point x="198" y="454"/>
      <point x="198" y="433" type="curve" smooth="yes"/>
      <point x="198" y="-13" type="line" smooth="yes"/>
      <point x="198" y="-38"/>
      <point x="201" y="-93"/>
      <point x="167" y="-93" type="curve" smooth="yes"/>
      <point x="153" y="-93"/>
      <point x="139" y="-89"/>
      <point x="139" y="-89" type="curve"/>
      <point x="139" y="-182" type="line"/>
      <point x="139" y="-182"/>
      <point x="151" y="-188"/>
    </contour>
  </outline>
</glyph>
<glyph name="Omacron" format="1">
  <advance width="354"/>
  <unicode hex="014C"/>
  <outline>
    <contour>
      <point x="321" y="151" type="curve"/>
      <point x="321" y="584" type="line"/>
      <point x="321" y="584"/>
      <point x="322" y="743"/>
      <point x="177" y="743" type="curve" smooth="yes"/>
      <point x="32" y="743"/>
      <point x="33" y="584"/>
      <point x="33" y="584" type="curve"/>
      <point x="33" y="151" type="line"/>
      <point x="33" y="151"/>
      <point x="32" y="-8"/>
      <point x="177" y="-8" type="curve" smooth="yes"/>
      <point x="322" y="-8"/>
      <point x="321" y="151"/>
    </contour>
    <contour>
      <point x="213" y="584" type="curve"/>
      <point x="213" y="151" type="line"/>
      <point x="213" y="151"/>
      <point x="215" y="97"/>
      <point x="177" y="97" type="curve" smooth="yes"/>
      <point x="139" y="97"/>
      <point x="141" y="151"/>
      <point x="141" y="151" type="curve"/>
      <point x="141" y="584" type="line"/>
      <point x="141" y="584"/>
      <point x="139" y="638"/>
      <point x="177" y="638" type="curve" smooth="yes"/>
      <point x="215" y="638"/>
      <point x="213" y="584"/>
    </contour>
    <contour>
      <point x="80" y="887" type="line"/>
      <point x="80" y="808" type="line"/>
      <point x="274" y="808" type="line"/>
      <point x="274" y="887" type="line"/>
    </contour>
  </outline>
</glyph>
<glyph name="omacron" format="1">
  <advance width="321"/>
  <unicode hex="014D"/>
  <outline>
    <contour>
      <point x="290" y="133" type="curve"/>
      <point x="290" y="414" type="line"/>
      <point x="290" y="414"/>
      <point x="291" y="555"/>
      <point x="160" y="555" type="curve" smooth="yes"/>
      <point x="30" y="555"/>
      <point x="31" y="411"/>
      <point x="31" y="411" type="curve"/>
      <point x="31" y="136" type="line"/>
      <point x="31" y="136"/>
      <point x="30" y="-8"/>
      <point x="160" y="-8" type="curve" smooth="yes"/>
      <point x="291" y="-8"/>
      <point x="290" y="133"/>
    </contour>
    <contour>
      <point x="195" y="411" type="curve"/>
      <point x="195" y="136" type="line"/>
      <point x="195" y="136"/>
      <point x="198" y="81"/>
      <point x="160" y="81" type="curve" smooth="yes"/>
      <point x="123" y="81"/>
      <point x="126" y="136"/>
      <point x="126" y="136" type="curve"/>
      <point x="126" y="411" type="line"/>
      <point x="126" y="411"/>
      <point x="123" y="467"/>
      <point x="160" y="467" type="curve" smooth="yes"/>
      <point x="198" y="467"/>
      <point x="195" y="411"/>
    </contour>
    <contour>
      <point x="63" y="699" type="line"/>
      <point x="63" y="620" type="line"/>
      <point x="257" y="620" type="line"/>
      <point x="257" y="699" type="line"/>
    </contour>
  </outline>
</glyph>
<glyph name="Obreve" format="1">
  <advance width="354"/>
  <unicode hex="014E"/>
  <outline>
    <contour>
      <point x="321" y="151" type="curve"/>
      <point x="321" y="584" type="line"/>
      <point x="321" y="584"/>
      <point x="322" y="743"/>
      <point x="177" y="743" type="curve" smooth="yes"/>
      <point x="32" y="743"/>
      <point x="33" y="584"/>
      <point x="33" y="584" type="curve"/>
      <point x="33" y="151" type="line"/>
      <point x="33" y="151"/>
      <point x="32" y="-8"/>
      <point x="177" y="-8" type="curve" smooth="yes"/>
      <point x="322" y="-8"/>
      <point x="321" y="151"/>
    </contour>
    <contour>
      <point x="213" y="584" type="curve"/>
      <point x="213" y="151" type="line"/>
      <point x="213" y="151"/>
      <point x="215" y="97"/>
      <point x="177" y="97" type="curve" smooth="yes"/>
      <point x="139" y="97"/>
      <point x="141" y="151"/>
      <point x="141" y="151" type="curve"/>
      <point x="141" y="584" type="line"/>
      <point x="141" y="584"/>
      <point x="139" y="638"/>
      <point x="177" y="638" type="curve" smooth="yes"/>
      <point x="215" y="638"/>
      <point x="213" y="584"/>
    </contour>
    <contour>
      <point x="287" y="855" type="curve"/>
      <point x="235" y="901" type="line"/>
      <point x="235" y="901"/>
      <point x="215" y="878"/>
      <point x="177" y="878" type="curve" smooth="yes"/>
      <point x="141" y="878"/>
      <point x="121" y="901"/>
      <point x="121" y="901" type="curve"/>
      <point x="67" y="855" type="line"/>
      <point x="67" y="855"/>
      <point x="107" y="808"/>
      <point x="177" y="808" type="curve" smooth="yes"/>
      <point x="245" y="808"/>
      <point x="287" y="855"/>
    </contour>
  </outline>
</glyph>
<glyph name="obreve" format="1">
  <advance width="321"/>
  <unicode hex="014F"/>
  <outline>
    <contour>
      <point x="290" y="133" type="curve"/>
      <point x="290" y="414" type="line"/>
      <point x="290" y="414"/>
      <point x="291" y="555"/>
      <point x="160" y="555" type="curve" smooth="yes"/>
      <point x="30" y="555"/>
      <point x="31" y="411"/>
      <point x="31" y="411" type="curve"/>
      <point x="31" y="136" type="line"/>
      <point x="31" y="136"/>
      <point x="30" y="-8"/>
      <point x="160" y="-8" type="curve" smooth="yes"/>
      <point x="291" y="-8"/>
      <point x="290" y="133"/>
    </contour>
    <contour>
      <point x="195" y="411" type="curve"/>
      <point x="195" y="136" type="line"/>
      <point x="195" y="136"/>
      <point x="198" y="81"/>
      <point x="160" y="81" type="curve" smooth="yes"/>
      <point x="123" y="81"/>
      <point x="126" y="136"/>
      <point x="126" y="136" type="curve"/>
      <point x="126" y="411" type="line"/>
      <point x="126" y="411"/>
      <point x="123" y="467"/>
      <point x="160" y="467" type="curve" smooth="yes"/>
      <point x="198" y="467"/>
      <point x="195" y="411"/>
    </contour>
    <contour>
      <point x="270" y="667" type="curve"/>
      <point x="218" y="713" type="line"/>
      <point x="218" y="713"/>
      <point x="198" y="690"/>
      <point x="160" y="690" type="curve" smooth="yes"/>
      <point x="124" y="690"/>
      <point x="104" y="713"/>
      <point x="104" y="713" type="curve"/>
      <point x="50" y="667" type="line"/>
      <point x="50" y="667"/>
      <point x="90" y="620"/>
      <point x="160" y="620" type="curve" smooth="yes"/>
      <point x="228" y="620"/>
      <point x="270" y="667"/>
    </contour>
  </outline>
</glyph>
<glyph name="Ohungarumlaut" format="1">
  <advance width="354"/>
  <unicode hex="0150"/>
  <outline>
    <contour>
      <point x="321" y="151" type="curve"/>
      <point x="321" y="584" type="line"/>
      <point x="321" y="584"/>
      <point x="322" y="743"/>
      <point x="177" y="743" type="curve" smooth="yes"/>
      <point x="32" y="743"/>
      <point x="33" y="584"/>
      <point x="33" y="584" type="curve"/>
      <point x="33" y="151" type="line"/>
      <point x="33" y="151"/>
      <point x="32" y="-8"/>
      <point x="177" y="-8" type="curve" smooth="yes"/>
      <point x="322" y="-8"/>
      <point x="321" y="151"/>
    </contour>
    <contour>
      <point x="213" y="584" type="curve"/>
      <point x="213" y="151" type="line"/>
      <point x="213" y="151"/>
      <point x="215" y="97"/>
      <point x="177" y="97" type="curve" smooth="yes"/>
      <point x="139" y="97"/>
      <point x="141" y="151"/>
      <point x="141" y="151" type="curve"/>
      <point x="141" y="584" type="line"/>
      <point x="141" y="584"/>
      <point x="139" y="638"/>
      <point x="177" y="638" type="curve" smooth="yes"/>
      <point x="215" y="638"/>
      <point x="213" y="584"/>
    </contour>
    <contour>
      <point x="221" y="898" type="line"/>
      <point x="116" y="898" type="line"/>
      <point x="64" y="808" type="line"/>
      <point x="142" y="808" type="line"/>
    </contour>
    <contour>
      <point x="369" y="898" type="line"/>
      <point x="264" y="898" type="line"/>
      <point x="212" y="808" type="line"/>
      <point x="290" y="808" type="line"/>
    </contour>
  </outline>
</glyph>
<glyph name="ohungarumlaut" format="1">
  <advance width="321"/>
  <unicode hex="0151"/>
  <outline>
    <contour>
      <point x="290" y="133" type="curve"/>
      <point x="290" y="414" type="line"/>
      <point x="290" y="414"/>
      <point x="291" y="555"/>
      <point x="160" y="555" type="curve" smooth="yes"/>
      <point x="30" y="555"/>
      <point x="31" y="411"/>
      <point x="31" y="411" type="curve"/>
      <point x="31" y="136" type="line"/>
      <point x="31" y="136"/>
      <point x="30" y="-8"/>
      <point x="160" y="-8" type="curve" smooth="yes"/>
      <point x="291" y="-8"/>
      <point x="290" y="133"/>
    </contour>
    <contour>
      <point x="195" y="411" type="curve"/>
      <point x="195" y="136" type="line"/>
      <point x="195" y="136"/>
      <point x="198" y="81"/>
      <point x="160" y="81" type="curve" smooth="yes"/>
      <point x="123" y="81"/>
      <point x="126" y="136"/>
      <point x="126" y="136" type="curve"/>
      <point x="126" y="411" type="line"/>
      <point x="126" y="411"/>
      <point x="123" y="467"/>
      <point x="160" y="467" type="curve" smooth="yes"/>
      <point x="198" y="467"/>
      <point x="195" y="411"/>
    </contour>
    <contour>
      <point x="204" y="710" type="line"/>
      <point x="99" y="710" type="line"/>
      <point x="47" y="620" type="line"/>
      <point x="125" y="620" type="line"/>
    </contour>
    <contour>
      <point x="352" y="710" type="line"/>
      <point x="247" y="710" type="line"/>
      <point x="195" y="620" type="line"/>
      <point x="273" y="620" type="line"/>
    </contour>
  </outline>
</glyph>
<glyph name="OE" format="1">
  <advance width="480"/>
  <unicode hex="0152"/>
  <outline>
    <contour>
      <point x="460" y="0" type="line"/>
      <point x="460" y="111" type="line"/>
      <point x="321" y="111" type="line"/>
      <point x="321" y="313" type="line"/>
      <point x="421" y="313" type="line"/>
      <point x="421" y="431" type="line"/>
      <point x="321" y="431" type="line"/>
      <point x="321" y="624" type="line"/>
      <point x="460" y="624" type="line"/>
      <point x="460" y="735" type="line"/>
      <point x="177" y="735" type="line" smooth="yes"/>
      <point x="32" y="735"/>
      <point x="33" y="584"/>
      <point x="33" y="584" type="curve"/>
      <point x="33" y="151" type="line"/>
      <point x="33" y="151"/>
      <point x="32" y="0"/>
      <point x="177" y="0" type="curve" smooth="yes"/>
    </contour>
    <contour>
      <point x="213" y="151" type="line"/>
      <point x="213" y="151"/>
      <point x="215" y="97"/>
      <point x="177" y="97" type="curve" smooth="yes"/>
      <point x="139" y="97"/>
      <point x="141" y="151"/>
      <point x="141" y="151" type="curve"/>
      <point x="141" y="584" type="line"/>
      <point x="141" y="584"/>
      <point x="139" y="638"/>
      <point x="177" y="638" type="curve" smooth="yes"/>
      <point x="207" y="638"/>
      <point x="212" y="605"/>
      <point x="213" y="591" type="curve"/>
    </contour>
  </outline>
</glyph>
<glyph name="oe" format="1">
  <advance width="486"/>
  <unicode hex="0153"/>
  <outline>
    <contour>
      <point x="363" y="196" type="line"/>
      <point x="363" y="136" type="line"/>
      <point x="363" y="136"/>
      <point x="365" y="81"/>
      <point x="327" y="81" type="curve" smooth="yes"/>
      <point x="294" y="81"/>
      <point x="290" y="124"/>
      <point x="290" y="133" type="curve" smooth="yes"/>
      <point x="290" y="255" type="line"/>
      <point x="457" y="255" type="line"/>
      <point x="457" y="414" type="line"/>
      <point x="457" y="414"/>
      <point x="458" y="555"/>
      <point x="327" y="555" type="curve" smooth="yes"/>
      <point x="289" y="555"/>
      <point x="263" y="543"/>
      <point x="244" y="526" type="curve"/>
      <point x="225" y="543"/>
      <point x="198" y="555"/>
      <point x="160" y="555" type="curve" smooth="yes"/>
      <point x="30" y="555"/>
      <point x="31" y="411"/>
      <point x="31" y="411" type="curve"/>
      <point x="31" y="136" type="line"/>
      <point x="31" y="136"/>
      <point x="30" y="-8"/>
      <point x="160" y="-8" type="curve" smooth="yes"/>
      <point x="197" y="-8"/>
      <point x="224" y="4"/>
      <point x="243" y="20" type="curve"/>
      <point x="262" y="3"/>
      <point x="289" y="-8"/>
      <point x="326" y="-8" type="curve" smooth="yes"/>
      <point x="457" y="-8"/>
      <point x="457" y="133"/>
      <point x="457" y="133" type="curve"/>
      <point x="457" y="196" type="line"/>
    </contour>
    <contour>
      <point x="195" y="136" type="line"/>
      <point x="195" y="136"/>
      <point x="198" y="81"/>
      <point x="160" y="81" type="curve" smooth="yes"/>
      <point x="123" y="81"/>
      <point x="126" y="136"/>
      <point x="126" y="136" type="curve"/>
      <point x="126" y="411" type="line"/>
      <point x="126" y="411"/>
      <point x="123" y="467"/>
      <point x="160" y="467" type="curve" smooth="yes"/>
      <point x="198" y="467"/>
      <point x="195" y="411"/>
      <point x="195" y="411" type="curve"/>
    </contour>
    <contour>
      <point x="290" y="414" type="line" smooth="yes"/>
      <point x="290" y="424"/>
      <point x="294" y="467"/>
      <point x="327" y="467" type="curve" smooth="yes"/>
      <point x="365" y="467"/>
      <point x="363" y="411"/>
      <point x="363" y="411" type="curve"/>
      <point x="363" y="334" type="line"/>
      <point x="290" y="334" type="line"/>
    </contour>
  </outline>
</glyph>
<glyph name="Rcommaaccent" format="1">
  <advance width="361"/>
  <unicode hex="0156"/>
  <outline>
    <contour>
      <point x="233" y="0" type="line"/>
      <point x="341" y="0" type="line"/>
      <point x="272" y="356" type="line"/>
      <point x="313" y="384"/>
      <point x="332" y="450"/>
      <point x="332" y="523" type="curve" smooth="yes"/>
      <point x="332" y="661"/>
      <point x="276" y="735"/>
      <point x="148" y="735" type="curve" smooth="yes"/>
      <point x="40" y="735" type="line"/>
      <point x="40" y="0" type="line"/>
      <point x="148" y="0" type="line"/>
      <point x="148" y="310" type="line"/>
      <point x="177" y="310" type="line"/>
    </contour>
    <contour>
      <point x="148" y="410" type="curve"/>
      <point x="148" y="628" type="line"/>
      <point x="178" y="628"/>
      <point x="228" y="624"/>
      <point x="228" y="519" type="curve" smooth="yes"/>
      <point x="228" y="414"/>
      <point x="178" y="410"/>
    </contour>
    <contour>
      <point x="232" y="-134" type="line"/>
      <point x="232" y="-65" type="line"/>
      <point x="148" y="-65" type="line"/>
      <point x="148" y="-134" type="line"/>
      <point x="179" y="-134" type="line"/>
      <point x="159" y="-199" type="line"/>
      <point x="210" y="-199" type="line"/>
    </contour>
  </outline>
</glyph>
<glyph name="rcommaaccent" format="1">
  <advance width="246"/>
  <unicode hex="0157"/>
  <outline>
    <contour>
      <point x="242" y="443" type="curve"/>
      <point x="242" y="555" type="line"/>
      <point x="168" y="555"/>
      <point x="144" y="500"/>
      <point x="141" y="486" type="curve"/>
      <point x="141" y="547" type="line"/>
      <point x="40" y="547" type="line"/>
      <point x="40" y="0" type="line"/>
      <point x="141" y="0" type="line"/>
      <point x="141" y="114"/>
      <point x="141" y="70"/>
      <point x="141" y="380" type="curve" smooth="yes"/>
      <point x="141" y="397"/>
      <point x="145" y="414"/>
      <point x="163" y="430" type="curve" smooth="yes"/>
      <point x="195" y="458"/>
      <point x="242" y="443"/>
    </contour>
    <contour>
      <point x="183" y="-134" type="line"/>
      <point x="183" y="-65" type="line"/>
      <point x="99" y="-65" type="line"/>
      <point x="99" y="-134" type="line"/>
      <point x="130" y="-134" type="line"/>
      <point x="110" y="-199" type="line"/>
      <point x="161" y="-199" type="line"/>
    </contour>
  </outline>
</glyph>
<glyph name="Rcaron" format="1">
  <advance width="361"/>
  <unicode hex="0158"/>
  <outline>
    <contour>
      <point x="233" y="0" type="line"/>
      <point x="341" y="0" type="line"/>
      <point x="272" y="356" type="line"/>
      <point x="313" y="384"/>
      <point x="332" y="450"/>
      <point x="332" y="523" type="curve" smooth="yes"/>
      <point x="332" y="661"/>
      <point x="276" y="735"/>
      <point x="148" y="735" type="curve" smooth="yes"/>
      <point x="40" y="735" type="line"/>
      <point x="40" y="0" type="line"/>
      <point x="148" y="0" type="line"/>
      <point x="148" y="310" type="line"/>
      <point x="177" y="310" type="line"/>
    </contour>
    <contour>
      <point x="148" y="410" type="curve"/>
      <point x="148" y="628" type="line"/>
      <point x="178" y="628"/>
      <point x="228" y="624"/>
      <point x="228" y="519" type="curve" smooth="yes"/>
      <point x="228" y="414"/>
      <point x="178" y="410"/>
    </contour>
    <contour>
      <point x="94" y="800" type="line"/>
      <point x="201" y="800" type="line"/>
      <point x="270" y="890" type="line"/>
      <point x="178" y="890" type="line"/>
      <point x="147" y="855" type="line"/>
      <point x="117" y="890" type="line"/>
      <point x="25" y="890" type="line"/>
    </contour>
  </outline>
</glyph>
<glyph name="rcaron" format="1">
  <advance width="246"/>
  <unicode hex="0159"/>
  <outline>
    <contour>
      <point x="242" y="443" type="curve"/>
      <point x="242" y="555" type="line"/>
      <point x="168" y="555"/>
      <point x="144" y="500"/>
      <point x="141" y="486" type="curve"/>
      <point x="141" y="547" type="line"/>
      <point x="40" y="547" type="line"/>
      <point x="40" y="0" type="line"/>
      <point x="141" y="0" type="line"/>
      <point x="141" y="114"/>
      <point x="141" y="70"/>
      <point x="141" y="380" type="curve" smooth="yes"/>
      <point x="141" y="397"/>
      <point x="145" y="414"/>
      <point x="163" y="430" type="curve" smooth="yes"/>
      <point x="195" y="458"/>
      <point x="242" y="443"/>
    </contour>
    <contour>
      <point x="76" y="620" type="line"/>
      <point x="183" y="620" type="line"/>
      <point x="252" y="710" type="line"/>
      <point x="160" y="710" type="line"/>
      <point x="129" y="675" type="line"/>
      <point x="99" y="710" type="line"/>
      <point x="7" y="710" type="line"/>
    </contour>
  </outline>
</glyph>
<glyph name="scedilla" format="1">
  <advance width="308"/>
  <unicode hex="015F"/>
  <outline>
    <contour>
      <point x="131" y="239" type="curve" smooth="yes"/>
      <point x="162" y="209"/>
      <point x="194" y="175"/>
      <point x="194" y="142" type="curve" smooth="yes"/>
      <point x="194" y="110"/>
      <point x="188" y="76"/>
      <point x="159" y="76" type="curve" smooth="yes"/>
      <point x="117" y="76"/>
      <point x="112" y="130"/>
      <point x="112" y="159" type="curve"/>
      <point x="18" y="159" type="line"/>
      <point x="18" y="100"/>
      <point x="36" y="-8"/>
      <point x="159" y="-8" type="curve" smooth="yes"/>
      <point x="255" y="-8"/>
      <point x="288" y="74"/>
      <point x="288" y="142" type="curve" smooth="yes"/>
      <point x="288" y="213"/>
      <point x="239" y="267"/>
      <point x="195" y="309" type="curve" smooth="yes"/>
      <point x="164" y="339"/>
      <point x="129" y="372"/>
      <point x="129" y="407" type="curve" smooth="yes"/>
      <point x="129" y="435"/>
      <point x="133" y="470"/>
      <point x="160" y="471" type="curve" smooth="yes"/>
      <point x="192" y="471"/>
      <point x="193" y="433"/>
      <point x="193" y="407" type="curve"/>
      <point x="287" y="407" type="line"/>
      <point x="287" y="469"/>
      <point x="276" y="557"/>
      <point x="158" y="555" type="curve" smooth="yes"/>
      <point x="61" y="553"/>
      <point x="35" y="472"/>
      <point x="35" y="407" type="curve" smooth="yes"/>
      <point x="35" y="328"/>
      <point x="84" y="284"/>
    </contour>
    <contour>
      <point x="195" y="-142" type="line"/>
      <point x="195" y="-73" type="line"/>
      <point x="111" y="-73" type="line"/>
      <point x="111" y="-142" type="line"/>
      <point x="142" y="-142" type="line"/>
      <point x="122" y="-207" type="line"/>
      <point x="173" y="-207" type="line"/>
    </contour>
  </outline>
</glyph>
